<svg><metadata>Created by FontForge 20090914 at Fri May 24 13:59:15 2013 By www-data ITC Franklin Gothic is a trademark of The International Typeface Corporation which may be registered in certain jurisdictions. Portions copyright Microsoft Corporation. All rights reserved.</metadata><defs><font id="FranklinGothic-Medium" horiz-adv-x="1451"><font-face x-height="1010" ascent="1638" bbox="-441 -628 2239 1949" cap-height="1365" descent="-410" font-family="Franklin Gothic Medium" font-stretch="normal" font-weight="400" panose-1="2 11 6 3 2 1 2 2 2 4" underline-position="-103" underline-thickness="102" unicode-range="U+0020-U+FB02" units-per-em="2048"/><glyph d="M256 0v1536h1536v-1536h-1536zM384 128h1280v1280h-1280v-1280z" glyph-name=".notdef" horiz-adv-x="2048"/><glyph glyph-name="space" horiz-adv-x="512"/><glyph d="M437 1365l-101 -951h-104l-96 951h301zM406 250v-250h-249v250h249z" glyph-name="exclam" horiz-adv-x="564" unicode="!"/><glyph d="M297 817h-157l-33 548h224zM634 817h-157l-33 548h224z" glyph-name="quotedbl" horiz-adv-x="775" unicode="&quot;"/><glyph d="M1151 994l-34 -193h-199l-37 -209h199l-34 -193h-200l-71 -399h-186l71 399h-217l-71 -399h-188l71 401h-205l34 191h208l37 209h-208l35 193h207l66 371h186l-66 -371h215l66 371h186l-67 -371h202zM730 801h-216l-36 -209h215z" glyph-name="numbersign" horiz-adv-x="1201" unicode="#"/><glyph d="M659 -175h-135v185c-248 20.667 -406.667 140.667 -476 360l215 50c38.667 -140.667 125.667 -216.334 261 -227.001v395c-176.667 40.667 -291.667 92.167 -345 154.5s-80 136.833 -80 223.5c0 224.667 141.667 354.334 425 389.001v144h135v-144 c207.333 -26.667 338.333 -129 393 -307l-203 -43c-34.667 102.667 -98 158 -190 166v-349c130.667 -37.333 218.667 -66 264 -86s86.166 -59 122.499 -117s54.5 -126 54.5 -204c0 -110.667 -37.667 -202.667 -113 -276s-184.666 -116.333 -327.999 -129v-185zM524 1171 c-58 -0.666992 -106.5 -15.168 -145.5 -43.501s-58.5 -70.166 -58.5 -125.499c0 -93.333 68 -149 204 -167v336zM659 192.999c62.667 0.666992 115.167 19.001 157.5 55.001s63.5 83 63.5 141c0 97.333 -73.667 159.666 -221 186.999v-383z" glyph-name="dollar" horiz-adv-x="1201" unicode="$"/><glyph d="M382 617c-96 0 -172.833 37.5 -230.5 112.5s-86.5 166.5 -86.5 274.5c0 106 29 194.833 87 266.5s135.667 107.5 233 107.5c108.667 0 189.167 -37.667 241.5 -113s78.5 -161.333 78.5 -258c0 -120 -31.333 -215 -94 -285s-139 -105 -229 -105zM383 765 c92 0 138 80 138 240c0 152 -44.333 228 -133 228c-90 0 -135 -75.667 -135 -227c0 -160.667 43.333 -241 130 -241zM1289 1365l-845 -1365h-151l848 1365h148zM1189 -12c-90 0 -164.5 34.833 -223.5 104.5s-88.5 157.5 -88.5 263.5c0 122 32.833 218.167 98.5 288.5 s141.167 105.5 226.5 105.5c80.667 0 153 -32.667 217 -98s96 -164 96 -296c0 -110.667 -30.833 -199.667 -92.5 -267s-139.5 -101 -233.5 -101zM1197 133c47.333 0 81.833 22.833 103.5 68.5s32.5 98.167 32.5 157.5c0 86 -10.5 147.5 -31.5 184.5s-53.167 55.5 -96.5 55.5 c-94.667 0 -142 -77.667 -142 -233s44.667 -233 134 -233z" glyph-name="percent" horiz-adv-x="1580" unicode="%"/><glyph d="M1223 828l205.004 -35.998c-29.333 -194.667 -110.333 -366.667 -243 -516c46.667 -50.667 81.167 -81.5 103.5 -92.5s48.833 -16.5 79.5 -16.5c14 0 34 1.66699 60 5v-191l-95 -2c-62 0 -112.833 9 -152.5 27s-90.834 57.667 -153.501 119 c-136.667 -97.333 -285.334 -146 -446.001 -146c-152.667 0 -276.834 41.167 -372.501 123.5s-143.5 183.833 -143.5 304.5c0 76.667 22.333 149.667 67 219s140.667 136.666 288 201.999c-79.333 93.333 -119 179.666 -119 258.999c0 88.667 33.333 160.667 100 216 s152 83 256 83c106.667 0 194 -26.667 262 -80s102 -126 102 -218c0 -64.667 -23 -127 -69 -187s-111.667 -107.333 -197 -142l296 -338c93.333 120 150.666 255.667 171.999 407zM643.004 908.002c116 48.667 174 108.667 174 180c0 38.667 -14 69 -42 91s-61 33 -99 33 c-38.667 0 -72.5 -11.167 -101.5 -33.5s-43.5 -51.5 -43.5 -87.5c0 -58.667 37.333 -119.667 112 -183zM539.004 678.002c-136 -61.333 -204 -146.668 -204 -256.001c0 -73.333 26.5 -132.166 79.5 -176.499s119.833 -66.5 200.5 -66.5c99.333 0 193 32.333 281 97z" glyph-name="ampersand" horiz-adv-x="1468" unicode="&amp;"/><glyph d="M297 817h-157l-33 548h224z" glyph-name="quotesingle" horiz-adv-x="438" unicode="'"/><glyph d="M545 -341h-135c-229.333 250.667 -344 541 -344 871c0 180 38.333 347.667 115 503s153 266 229 332h135c-109.333 -152.667 -184.666 -295.5 -225.999 -428.5s-62 -275.5 -62 -427.5c0 -154 26.167 -305.167 78.5 -453.5s122.166 -280.5 209.499 -396.5z" glyph-name="parenleft" horiz-adv-x="601" unicode="("/><glyph d="M55 1365l135.001 -0.000976562c230.667 -252 346 -542.333 346 -871c0 -180.667 -38.833 -348.667 -116.5 -504s-154.167 -265.666 -229.5 -330.999h-135c109.333 152 184.666 294.5 225.999 427.5s62 275.833 62 428.5c0 306 -96 589.333 -288 850z" glyph-name="parenright" horiz-adv-x="601" unicode=")"/><glyph d="M695 1379l-24 -342l310 118l49 -180l-316 -70l203 -251l-158 -105l-158 274l-159 -274l-157 105l202 251l-316 70l49 180l310 -118l-23 342h188z" glyph-name="asterisk" horiz-adv-x="1201" unicode="*"/><glyph d="M1107 785v-191h-411v-425h-190v425h-411v191h411v426h190v-426h411z" glyph-name="plus" horiz-adv-x="1201" unicode="+"/><glyph d="M371 255v-229l-161 -318h-88l119 292h-119v255h249z" glyph-name="comma" horiz-adv-x="493" unicode=","/><glyph d="M497 613v-187h-502v187h502z" glyph-name="hyphen" horiz-adv-x="493" unicode="-"/><glyph d="M370 262v-262h-247v262h247z" glyph-name="period" horiz-adv-x="493" unicode="."/><glyph d="M919 1365l-893 -1706h-142l889 1706h146z" glyph-name="slash" horiz-adv-x="981" unicode="/"/><glyph d="M598 -21c-167.333 0 -296.333 64.834 -387 194.501s-136 294.5 -136 494.5c0 216 47.5 389.667 142.5 521s222.5 197 382.5 197c115.333 0 212.833 -30.833 292.5 -92.5s139 -147.334 178 -257.001s58.5 -212.5 58.5 -308.5c0 -160.667 -18.333 -292.5 -55 -395.5 s-95 -187.667 -175 -254s-180.333 -99.5 -301 -99.5zM597 172.001c69.333 0 125.335 21.332 168.002 63.999s71.667 102.334 87 179.001s23 182.667 23 318c0 112 -18.833 218.333 -56.5 319s-109.834 151 -216.501 151c-185.333 0 -278 -171.333 -278 -514 c0 -155.333 19.667 -280.333 59 -375s110.666 -142 213.999 -142z" glyph-name="zero" horiz-adv-x="1201" unicode="0"/><glyph d="M1185 0h-1045v201h411v862c-136.667 -119.333 -261 -201.333 -373 -246v246c114 43.333 185.333 74.166 214 92.499s70.667 52.333 126 102s94.333 94.834 117 135.501h164v-1192h386v-201z" glyph-name="one" horiz-adv-x="1201" unicode="1"/><glyph d="M1092 213v-212.997h-1006v239l418 278c130 86.667 217.333 163.5 262 230.5s67 128.5 67 184.5c0 67.333 -22.333 124 -67 170s-102.667 69 -174 69c-156 0 -245.667 -95 -269 -285l-237 59c18 121.333 71.833 225.166 161.5 311.499s207.167 129.5 352.5 129.5 c150.667 0 271 -42.833 361 -128.5s135 -194.5 135 -326.5c0 -116.667 -40 -220.834 -120 -312.501s-278.333 -226.834 -595 -405.501h711z" glyph-name="two" horiz-adv-x="1201" unicode="2"/><glyph d="M431 603v193.999h125c74.667 0 137 16.667 187 50s75 83 75 149c0 64.667 -21.167 113.334 -63.5 146.001s-96.833 49 -163.5 49c-134.667 0 -226.334 -66 -275.001 -198l-225 39c25.333 104 83.833 189 175.5 255s202.167 99 331.5 99 c128.667 0 238.5 -33.167 329.5 -99.5s136.5 -155.166 136.5 -266.499c0 -82.667 -24.5 -153.334 -73.5 -212.001s-109.5 -90.667 -181.5 -96c89.333 -13.333 161.166 -50.333 215.499 -111s81.5 -133.667 81.5 -219c0 -117.333 -47.167 -213.833 -141.5 -289.5 s-219.833 -113.5 -376.5 -113.5c-144.667 0 -264.167 36.833 -358.5 110.5s-153.833 158.167 -178.5 253.5l233 57c46.667 -152 147.334 -228 302.001 -228c80 0 144.5 20.5 193.5 61.5s73.5 90.5 73.5 148.5c0 58.667 -21.167 110.167 -63.5 154.5 s-106.166 66.5 -191.499 66.5h-167z" glyph-name="three" horiz-adv-x="1201" unicode="3"/><glyph d="M928 0h-253v310h-606v180l606 903h253v-873h205v-210h-205v-310zM693 1136l-387 -616h369v377c0 40 2 76 6 108z" glyph-name="four" horiz-adv-x="1201" unicode="4"/><glyph d="M217 1365l849 0.000976562l-22 -211h-647l-38 -396c82 104.667 189 157 321 157c131.333 0 242.166 -45.333 332.499 -136s135.5 -198.334 135.5 -323.001c0 -130 -47.333 -242 -142 -336s-224.667 -141 -390 -141c-131.333 0 -246.166 30.333 -344.499 91 s-162.166 155 -191.499 283l236 35c46 -139.333 141.667 -209 287 -209c89.333 0 158.166 27 206.499 81s72.5 119.333 72.5 196c0 76 -24 140.167 -72 192.5s-110.333 78.5 -187 78.5c-116 0 -204 -53 -264 -159l-220 43z" glyph-name="five" horiz-adv-x="1201" unicode="5"/><glyph d="M1087 1054l-208 -40.001c-38.667 128 -118.667 192 -240 192c-116 0 -197.167 -50.167 -243.5 -150.5s-69.5 -206.166 -69.5 -317.499c0 -22 0.333008 -44 1 -66c68 136.667 185.333 205 352 205c129.333 0 237.333 -41 324 -123s130 -185.333 130 -310 c0 -132 -46.333 -242.5 -139 -331.5s-209.334 -133.5 -350.001 -133.5c-175.333 0 -313.166 61.833 -413.499 185.5s-150.5 293.167 -150.5 508.5c0 211.333 49.167 383 147.5 515s230.166 198 395.499 198c248.667 0 403.334 -110.667 464.001 -332zM635 159.999 c73.333 0 135.166 22.168 185.499 66.501s75.5 112.166 75.5 203.499c0 62 -23.833 120 -71.5 174s-113.834 81 -198.501 81c-77.333 0 -139.666 -25.667 -186.999 -77s-71 -114.333 -71 -189c0 -75.333 24.333 -137.333 73 -186s113.334 -73 194.001 -73z" glyph-name="six" horiz-adv-x="1201" unicode="6"/><glyph d="M125 1365h969v-174c-168 -218 -279.5 -407 -334.5 -567s-88.167 -368 -99.5 -624h-281c23.333 442 192 826.667 506 1154h-781z" glyph-name="seven" horiz-adv-x="1201" unicode="7"/><glyph d="M347 674c-160 73.333 -240.002 182.335 -240.002 327.002c0 112 44.167 204.167 132.5 276.5s211.833 108.5 370.5 108.5c144.667 0 260.834 -32.333 348.501 -97s131.5 -150.334 131.5 -257.001c0 -130 -81 -228.667 -243 -296c198 -84.667 297 -204.334 297 -359.001 c0 -114.667 -49.5 -209.667 -148.5 -285s-232.5 -113 -400.5 -113c-177.333 0 -311.166 34.833 -401.499 104.5s-135.5 157.167 -135.5 262.5c0 150 96.333 259.333 289 328zM676.998 807.002c126 52 188.999 124.332 188.999 216.999c0 60.667 -25.667 107.667 -77 141 s-110.666 50 -177.999 50c-70 0 -130.167 -15 -180.5 -45s-75.5 -73.667 -75.5 -131c0 -59.333 27.333 -104.666 82 -135.999s134.667 -63.333 240 -96zM515.997 593.001c-66.667 -24 -120.334 -57.167 -161.001 -99.5s-61 -87.5 -61 -135.5c0 -49.333 25.5 -95 76.5 -137 s129.5 -63 235.5 -63c88 0 157.5 17.167 208.5 51.5s76.5 78.166 76.5 131.499c0 46 -21.167 86.333 -63.5 121s-146.166 78.334 -311.499 131.001z" glyph-name="eight" horiz-adv-x="1201" unicode="8"/><glyph d="M121 247l205.999 59.001c52.667 -94.667 129.334 -142 230.001 -142c103.333 0 182.666 47.667 237.999 143s83.666 228.333 84.999 399c-49.333 -92 -104.666 -151.167 -165.999 -177.5s-125 -39.5 -191 -39.5c-127.333 0 -234.166 40.167 -320.499 120.5 s-129.5 186.166 -129.5 317.499c0 132 44.5 241.5 133.5 328.5s207.167 130.5 354.5 130.5c166.667 0 301.167 -57.5 403.5 -172.5s153.5 -279.5 153.5 -493.5c0 -218 -49.333 -396 -148 -534s-238 -207 -418 -207c-114.667 0 -209.167 26.667 -283.5 80 s-123.5 116 -147.5 188zM566.999 688.001c72 0 135.166 23.333 189.499 70s81.5 114 81.5 202c0 60.667 -23.667 115.834 -71 165.501s-112.666 74.5 -195.999 74.5c-78 0 -141.5 -24.833 -190.5 -74.5s-73.5 -110.834 -73.5 -183.501c0 -64 22.833 -122.333 68.5 -175 s109.5 -79 191.5 -79z" glyph-name="nine" horiz-adv-x="1201" unicode="9"/><glyph d="M370 943v-249h-247v249h247zM370 250v-250h-247v250h247z" glyph-name="colon" horiz-adv-x="493" unicode=":"/><glyph d="M371 943v-249h-249v249h249zM371 255v-229l-161 -318h-88l119 292h-119v255h249z" glyph-name="semicolon" horiz-adv-x="493" unicode=";"/><glyph d="M371 943v-249h-249v249h249zM371 255v-229l-161 -318h-88l119 292h-119v255h249z" glyph-name="semicolon" horiz-adv-x="493" unicode=";"/><glyph d="M1024 1221v-230l-641 -310l640 -310l1 -229l-887 442v196z" glyph-name="less" horiz-adv-x="1201" unicode="&lt;"/><glyph d="M1107 924v-191h-1012v191h1012zM1107 625v-191h-1012v191h1012z" glyph-name="equal" horiz-adv-x="1201" unicode="="/><glyph d="M177 142v230l642 310l-641 311l-1 228l887 -442v-196z" glyph-name="greater" horiz-adv-x="1201" unicode="&gt;"/><glyph d="M600 392l-194.999 -0.000976562v135c0 45.333 9.16699 81 27.5 107s58.5 63 120.5 111c94.667 72.667 142 149.667 142 231c0 61.333 -18.5 110 -55.5 146s-85.167 54 -144.5 54c-137.333 0 -218.333 -95 -243 -285l-218 39c13.333 142 65.833 253.5 157.5 334.5 s201.5 121.5 329.5 121.5c127.333 0 232.666 -37.833 315.999 -113.5s125 -169.834 125 -282.501c0 -56 -11.5 -109.167 -34.5 -159.5s-49.167 -89.333 -78.5 -117s-91.333 -76.167 -186 -145.5c-26.667 -19.333 -43.667 -38.166 -51 -56.499s-11.333 -58.166 -12 -119.499z M640.001 249.999v-250h-235v250h235z" glyph-name="question" horiz-adv-x="1027" unicode="?"/><glyph d="M1098 1041l-55.0029 -466c-4 -32.667 -6 -64 -6 -94c0 -44.667 16 -67 48 -67c51.333 0 100.5 35.167 147.5 105.5s70.5 155.5 70.5 255.5c0 144.667 -52.167 262.167 -156.5 352.5s-230.833 135.5 -379.5 135.5c-163.333 0 -300.5 -56 -411.5 -168 s-166.5 -250 -166.5 -414c0 -153.333 52.167 -286.5 156.5 -399.5s250.833 -169.5 439.5 -169.5c146.667 0 296.334 39.333 449.001 118l59 -136c-163.333 -83.333 -332.666 -125 -507.999 -125c-232.667 0 -417.5 70.167 -554.5 210.5s-205.5 307.833 -205.5 502.5 c0 203.333 72 373.333 216 510s318 205 522 205c192 0 353.333 -58.833 484 -176.5s196 -266.167 196 -445.5c0 -130 -36.667 -245.833 -110 -347.5s-162.666 -152.5 -267.999 -152.5c-82 0 -138.667 34.667 -170 104c-57.333 -72 -127.333 -108 -210 -108 c-84.667 0 -157.167 35.333 -217.5 106s-90.5 163.667 -90.5 279c0 118.667 34 215.167 102 289.5s149 111.5 243 111.5c90.667 0 156 -28.667 196 -86l8 70h172zM697.997 434c53.333 0 101.5 25.833 144.5 77.5s64.5 118.834 64.5 201.501c0 46.667 -16.5 88.5 -49.5 125.5 s-73.5 55.5 -121.5 55.5c-52 0 -95 -22.833 -129 -68.5s-51 -104.834 -51 -177.501c0 -62 13.167 -113.167 39.5 -153.5s60.5 -60.5 102.5 -60.5z" glyph-name="at" horiz-adv-x="1469" unicode="@"/><glyph d="M1221 0h-263l-109 325h-525l-107 -325h-210l453 1365h303zM783 522l-199 609l-199 -609h398z" glyph-name="A" horiz-adv-x="1235" unicode="A"/><glyph d="M150 0l0.000976562 1365h532c90 0 164.667 -9.33301 224 -28s110.666 -57.667 153.999 -117s65 -129 65 -209c0 -75.333 -22 -140.833 -66 -196.5s-104.667 -91.167 -182 -106.5c96 -16.667 168.667 -55.667 218 -117s74 -134 74 -218 c0 -105.333 -34.5 -193.833 -103.5 -265.5s-175.167 -107.5 -318.5 -107.5h-597zM383.001 792l300.001 -0.00195312c61.333 0 109.833 18.333 145.5 55s53.5 83.334 53.5 140.001c0 62.667 -20.333 108.834 -61 138.501s-88.334 44.5 -143.001 44.5h-295v-378z M383.002 204.998h318c67.333 0 120.5 17.667 159.5 53s58.5 83 58.5 143c0 57.333 -19.833 104.333 -59.5 141s-92.167 55 -157.5 55h-319v-392z" glyph-name="B" horiz-adv-x="1244" unicode="B"/><glyph d="M913 474l227.999 -25.001c-14.667 -136.667 -67.5 -249.167 -158.5 -337.5s-210.5 -132.5 -358.5 -132.5c-124.667 0 -225.834 31.333 -303.501 94s-137.5 147.667 -179.5 255s-63 225.666 -63 354.999c0 208 49.333 377.167 148 507.5s234.334 195.5 407.001 195.5 c135.333 0 248 -41.667 338 -125s146.667 -202.666 170 -357.999l-228 -24c-42 206 -134.667 309 -278 309c-92 0 -163.5 -42.833 -214.5 -128.5s-76.5 -209.834 -76.5 -372.501c0 -165.333 27.333 -290.166 82 -374.499s127 -126.5 217 -126.5c72 0 133.333 28.333 184 85 s79.334 124.334 86.001 203.001z" glyph-name="C" horiz-adv-x="1186" unicode="C"/><glyph d="M143 0v1365h503c186 0 335.333 -65.833 448 -197.5s169 -294.167 169 -487.5s-58 -355 -174 -485s-282 -195 -498 -195h-448zM396 201l205 0.000976562c110 0 203.333 41.333 280 124s115 205.667 115 369c0 133.333 -33.5 246.166 -100.5 338.499 s-155.5 138.5 -265.5 138.5h-234v-970z" glyph-name="D" horiz-adv-x="1341" unicode="D"/><glyph d="M1037 0h-887v1365h878v-203h-632v-370h508v-198h-508v-382h641v-212z" glyph-name="E" horiz-adv-x="1099" unicode="E"/><glyph d="M403 0h-253v1365h863v-211h-610v-373h480v-205h-480v-576z" glyph-name="F" horiz-adv-x="1040" unicode="F"/><glyph d="M1186 698v-697.999h-109l-75 184c-79.333 -136.667 -202.333 -205 -369 -205c-186 0 -324.833 70.667 -416.5 212s-137.5 305 -137.5 491c0 196.667 51.167 363.167 153.5 499.5s245.5 204.5 429.5 204.5c137.333 0 250.333 -39.833 339 -119.5 s144.667 -178.834 168 -297.501l-214 -38c-40 166.667 -135.667 250 -287 250c-96.667 0 -175.5 -39.333 -236.5 -118s-91.5 -199.667 -91.5 -363c0 -344.667 108 -517 324 -517c84 0 153.5 29 208.5 87s82.5 134.667 82.5 230h-282v198h513z" glyph-name="G" horiz-adv-x="1315" unicode="G"/><glyph d="M1163 0h-246v593h-521v-593h-246v1365h246v-561h521v561h246v-1365z" glyph-name="H" horiz-adv-x="1313" unicode="H"/><glyph d="M396 0h-246v1365h246v-1365z" glyph-name="I" horiz-adv-x="546" unicode="I"/><glyph d="M624 1365l-0.00195312 -941.999c0 -156.667 -33.833 -269.834 -101.5 -339.501s-175.5 -104.5 -323.5 -104.5c-85.333 0 -151.666 7 -198.999 21v198c74.667 -5.33301 127.334 -8 158.001 -8c82 0 138 15.333 168 46s45 93 45 187v942h253z" glyph-name="J" horiz-adv-x="761" unicode="J"/><glyph d="M1223 0l-275 -0.000976562l-288 695l-264 -350v-345h-246v1365h246v-717c31.333 48.667 54 82.334 68 101.001l453 616h249l-324 -449z" glyph-name="K" horiz-adv-x="1257" unicode="K"/><glyph d="M990 0h-840v1365h259v-1142h581v-223z" glyph-name="L" horiz-adv-x="1021" unicode="L"/><glyph d="M1489 0h-251v1195l-378 -1195h-129l-380 1195v-1195h-201v1365h385l286 -879l281 879h387v-1365z" glyph-name="M" horiz-adv-x="1640" unicode="M"/><glyph d="M1181 0h-239l-518 872l-39 65l-37 63v-1000h-198v1365h272l478 -804l87 -147v951h194v-1365z" glyph-name="N" horiz-adv-x="1331" unicode="N"/><glyph d="M653 -21c-181.333 0 -322.5 68.001 -423.5 204.001s-151.5 304 -151.5 504c0 198.667 53.667 364.834 161 498.501s249 200.5 425 200.5c177.333 0 317.5 -66.833 420.5 -200.5s154.5 -300.834 154.5 -501.501c0 -210.667 -53.5 -380.834 -160.5 -510.501 s-248.833 -194.5 -425.5 -194.5zM655 177.001c88.667 0 163.668 36.667 225.001 110s92 206.333 92 399c0 156.667 -25.333 279.5 -76 368.5s-129.334 133.5 -236.001 133.5c-210.667 0 -316 -169.667 -316 -509c0 -164.667 26.833 -289.5 80.5 -374.5 s130.5 -127.5 230.5 -127.5z" glyph-name="O" horiz-adv-x="1318" unicode="O"/><glyph d="M396 0l-246 -0.000976562v1365h559c159.333 0 277.5 -40.167 354.5 -120.5s115.5 -175.166 115.5 -284.499c0 -124.667 -41.667 -225.667 -125 -303s-189 -116 -317 -116h-341v-541zM396 751.999h291c76 0 134 18.667 174 56s60 87 60 149c0 56 -18.5 104 -55.5 144 s-103.833 60 -200.5 60h-269v-409z" glyph-name="P" horiz-adv-x="1227" unicode="P"/><glyph d="M1183 -73l0.00292969 -206.001c-78.667 -6 -125.334 -9 -140.001 -9c-202 0 -303.333 88.333 -304 265c-50 -2.66699 -80.333 -4 -91 -4c-182.667 0 -323.334 67.167 -422.001 201.5s-148 303.833 -148 508.5c0 200.667 50.833 368 152.5 502s244.5 201 428.5 201 c134 0 240.667 -31.333 320 -94s142.5 -145 189.5 -247s70.5 -221.667 70.5 -359c0 -292.667 -97 -502 -291 -628c-30.667 -20 -46 -37.333 -46 -52c0 -23.333 10.167 -43.333 30.5 -60s48.166 -25 83.499 -25c24 0 59.667 1.33301 107 4 c13.333 0.666992 33.333 1.33398 60 2.00098zM652.003 178.999c213.333 0 320 168 320 504c0 178.667 -28.5 307.5 -85.5 386.5s-132.167 118.5 -225.5 118.5c-211.333 0 -317 -172.667 -317 -518c0 -327.333 102.667 -491 308 -491z" glyph-name="Q" horiz-adv-x="1318" unicode="Q"/><glyph d="M1214 0h-260l-212 561h-346v-561h-246v1365h592c164.667 0 285.667 -37.167 363 -111.5s116 -170.5 116 -288.5c0 -175.333 -82 -296 -246 -362zM396 758l306.001 0.000976562c88.667 0 154.667 18.667 198 56s65 88.666 65 153.999c0 60 -21.333 108.5 -64 145.5 s-102.334 55.5 -179.001 55.5h-326v-411z" glyph-name="R" horiz-adv-x="1316" unicode="R"/><glyph d="M7 329l239.003 51c28.667 -135.333 138.667 -203 330 -203c87.333 0 154.5 17.333 201.5 52s70.5 77.667 70.5 129c0 37.333 -10.667 71.833 -32 103.5s-67 56.5 -137 74.5l-261 68c-89.333 23.333 -155.333 49.833 -198 79.5s-76.834 71.5 -102.501 125.5 s-38.5 111.667 -38.5 173c0 122 45.333 219.833 136 293.5s206.667 110.5 348 110.5c117.333 0 222.166 -25.667 314.499 -77s151.166 -124 176.499 -218l-234 -58c-36 103.333 -120 155 -252 155c-76.667 0 -135.167 -16 -175.5 -48s-60.5 -72.667 -60.5 -122 c0 -78 63.333 -132.667 190 -164l232 -58c140.667 -35.333 235 -87.5 283 -156.5s72 -145.167 72 -228.5c0 -134 -50.5 -239.5 -151.5 -316.5s-231.833 -115.5 -392.5 -115.5c-135.333 0 -253.833 28.333 -355.5 85s-169.167 145 -202.5 265z" glyph-name="S" horiz-adv-x="1170" unicode="S"/><glyph d="M627 0h-264v1154h-363v211h990v-211h-363v-1154z" glyph-name="T" horiz-adv-x="990" unicode="T"/><glyph d="M1087 1365v-877c0 -118.667 -13.333 -210 -40 -274s-78.167 -119.167 -154.5 -165.5s-169.5 -69.5 -279.5 -69.5c-111.333 0 -202.833 20 -274.5 60s-123.167 94.833 -154.5 164.5s-47 158.5 -47 266.5v895h251v-877c0 -120 25.167 -198.833 75.5 -236.5 s108.833 -56.5 175.5 -56.5c76.667 0 138 20.167 184 60.5s69 117.833 69 232.5v877h195z" glyph-name="U" horiz-adv-x="1218" unicode="U"/><glyph d="M675 0h-250l-421 1365h260l313 -1046l320 1046h205z" glyph-name="V" horiz-adv-x="1107" unicode="V"/><glyph d="M1789 1365l-365 -1365h-258l-272 1004l-247 -1004h-253l-373 1365h261l264 -995l246 995h249l272 -995l259 995h217z" glyph-name="W" horiz-adv-x="1809" unicode="W"/><glyph d="M1149 0h-287l-302 538l-320 -538h-229l432 711l-371 654h286l252 -454l267 454h230l-380 -623z" glyph-name="X" horiz-adv-x="1160" unicode="X"/><glyph d="M699 0h-261v576l-465 789h298l324 -563l310 563h236l-442 -789v-576z" glyph-name="Y" horiz-adv-x="1113" unicode="Y"/><glyph d="M1050 212v-212h-1009v194l699 976h-650v195h940v-195l-691 -958h711z" glyph-name="Z" horiz-adv-x="1091" unicode="Z"/><glyph d="M482 1201h-167v-1378h167v-164h-344v1706h344v-164z" glyph-name="bracketleft" horiz-adv-x="601" unicode="["/><glyph d="M62 1365h146l889 -1706h-141z" glyph-name="backslash" horiz-adv-x="981" unicode="\"/><glyph d="M119 -177h167v1378h-167v164h344v-1706h-344v164z" glyph-name="bracketright" horiz-adv-x="601" unicode="]"/><glyph d="M266 703h-244l338 669h305l338 -669h-244l-247 484z" glyph-name="asciicircum" horiz-adv-x="1024" unicode="^"/><glyph d="M0 -107h1024v-208h-1024v208z" glyph-name="underscore" horiz-adv-x="1024" unicode="_"/><glyph d="M280 1487l393 -219l-42 -107l-417 176z" glyph-name="grave" horiz-adv-x="1024" unicode="`"/><glyph d="M1001 0h-216.999c-19.333 61.333 -31 129.333 -35 204c-60.667 -150 -174.667 -225 -342 -225c-100.667 0 -181.5 29.5 -242.5 88.5s-91.5 133.167 -91.5 222.5c0 232 203.667 348 611 348c16 0 37.667 -0.333008 65 -1v76c0 104.667 -71.333 157 -214 157 c-138.667 0 -217.334 -52.333 -236.001 -157l-194 29c10.667 84 54 153.167 130 207.5s186 81.5 330 81.5c78 0 141.667 -6.5 191 -19.5s91 -35 125 -66s57.5 -64.667 70.5 -101s19.5 -97.833 19.5 -184.5v-456c0 -66 10 -134 30 -204zM749.001 514 c-294.667 0 -442 -70.333 -442 -211c0 -42 14.833 -77.833 44.5 -107.5s74.5 -44.5 134.5 -44.5c86.667 0 152.167 27.5 196.5 82.5s66.5 117.5 66.5 187.5v93z" glyph-name="a" horiz-adv-x="1107" unicode="a"/><glyph d="M240 0l-102.999 0.000976562v1365h228v-493c43.333 75.333 86.666 125 129.999 149s94 36 152 36c110.667 0 202.334 -47 275.001 -141s109 -224.333 109 -391c0 -150.667 -35.833 -279.334 -107.5 -386.001s-174.5 -160 -308.5 -160 c-134.667 0 -239.334 62.333 -314.001 187zM365.001 431.001c0 -90 19.501 -156.499 58.501 -199.499s89.5 -64.5 151.5 -64.5c60 0 110.333 24.667 151 74s62.334 146 65.001 290c0 105.333 -18.333 186.5 -55 243.5s-88.334 85.5 -155.001 85.5 c-62.667 0 -114.334 -24.333 -155.001 -73s-61 -117.334 -61 -206.001v-150z" glyph-name="b" horiz-adv-x="1103" unicode="b"/><glyph d="M720 371l196.002 -19.999c-25.333 -126.667 -74.333 -220.334 -147 -281.001s-160.334 -91 -263.001 -91c-139.333 0 -246.5 50.833 -321.5 152.5s-112.5 226.167 -112.5 373.5c0 152 41 277.667 123 377s191.333 149 328 149c220 0 351 -116 393 -348l-196 -27 c-17.333 125.333 -79 188 -185 188c-77.333 0 -133.5 -33.833 -168.5 -101.5s-52.5 -149.5 -52.5 -245.5c0 -102 18.167 -180.667 54.5 -236s87.166 -83 152.499 -83c100 0 166.333 64.333 199 193z" glyph-name="c" horiz-adv-x="954" unicode="c"/><glyph d="M967 0l-213.001 0.000976562v204c-58.667 -150 -158 -225 -298 -225c-124 0 -219 51.667 -285 155s-99 231.666 -99 384.999c0 142.667 34.333 267 103 373s166.334 159 293.001 159c130 0 220.333 -59.333 271 -178v492h228v-1365zM738.999 596.001 c0 82 -19.5 145.835 -58.5 191.502s-89.5 68.5 -151.5 68.5c-67.333 0 -120 -29.333 -158 -88s-57 -146.334 -57 -263.001c0 -225.333 70.667 -338 212 -338c56 0 105.5 24.167 148.5 72.5s64.5 110.166 64.5 185.499v171z" glyph-name="d" horiz-adv-x="1103" unicode="d"/><glyph d="M779 322l206 -28c-26.667 -91.333 -78.667 -166.666 -156 -225.999s-174.333 -89 -291 -89c-140 0 -252.667 47 -338 141s-128 221.333 -128 382c0 152.667 43 279 129 379s202.667 150 350 150c144 0 255.333 -49.333 334 -148s118 -225.334 118 -380.001l-1 -26h-693 c0 -68.667 6.5 -123.667 19.5 -165s38.833 -77.333 77.5 -108s87 -46 145 -46c112.667 0 188.667 54.667 228 164zM765 624c-0.666992 72.667 -22.5 132 -65.5 178s-96.167 69 -159.5 69c-62.667 0 -115 -21.5 -157 -64.5s-66.667 -103.833 -74 -182.5h456z" glyph-name="e" horiz-adv-x="1074" unicode="e"/><glyph d="M392 0h-219.999v833h-150v177h150v50c0 98.667 24 178 72 238s145 90 291 90c21.333 0 48.333 -0.666992 81 -2v-179c-28.667 2 -48.334 3 -59.001 3c-56 0 -95.333 -7.5 -118 -22.5s-36.167 -32.667 -40.5 -53s-6.5 -61.833 -6.5 -124.5h224v-177h-224v-833z" glyph-name="f" horiz-adv-x="647" unicode="f"/><glyph d="M1058 1203l-0.00195312 -174.999h-70c-30.667 0 -57.5 -3.66699 -80.5 -11s-45.5 -31 -67.5 -71c80 -65.333 120 -138 120 -218c0 -89.333 -37.5 -163.333 -112.5 -222s-174.167 -88 -297.5 -88c-53.333 0 -115.666 8.66699 -186.999 26 c-46.667 -21.333 -70 -54.333 -70 -99c0 -24.667 11.333 -47.334 34 -68.001s57 -31 103 -31h300c102.667 0 183.167 -26.5 241.5 -79.5s87.5 -118.833 87.5 -197.5c0 -95.333 -44.167 -174.333 -132.5 -237s-219.166 -94 -392.499 -94c-326 0 -489 91 -489 273 c0 90 49 158.333 147 205c-62.667 53.333 -94 109 -94 167c0 88 53.667 158 161 210c-93.333 56.667 -140 134.667 -140 234c0 84 34.333 155.667 103 215s173 89 313 89c64 0 129 -7 195 -21c30.667 128.667 111.667 193 243 193h85zM539.998 553.001 c124 0 186 58.332 186 174.999c0 44.667 -15.5 82.334 -46.5 113.001s-76.167 46 -135.5 46c-60 0 -106.5 -16 -139.5 -48s-49.5 -72 -49.5 -120c0 -49.333 16.333 -89.333 49 -120s78 -46 136 -46zM289.998 55c-32.667 -30 -49 -59 -49 -87c0 -46 27.333 -86.5 82 -121.5 s141.667 -52.5 261 -52.5c175.333 0 263 45 263 135c0 33.333 -15.333 58.5 -46 75.5s-65.667 25.5 -105 25.5h-242c-46 0 -100.667 8.33301 -164 25z" glyph-name="g" horiz-adv-x="1061" unicode="g"/><glyph d="M973 0h-228v661c0 71.333 -15.167 121.5 -45.5 150.5s-65.833 43.5 -106.5 43.5c-64.667 0 -119 -25.667 -163 -77s-66 -136 -66 -254v-524h-228v1365h228v-532c56.667 145.333 156 218 298 218c207.333 0 311 -119 311 -357v-694z" glyph-name="h" horiz-adv-x="1110" unicode="h"/><glyph d="M364 1128h-228v237h228v-237zM364 0h-228v1010h228v-1010z" glyph-name="i" horiz-adv-x="501" unicode="i"/><glyph d="M364 1128h-228v237h228v-237zM364 1010v-994c0 -252 -115.667 -378 -347 -378c-35.333 0 -74.333 4 -117 12v193c28.667 -3.33301 53 -5 73 -5c63.333 0 106.333 12 129 36s34 71.333 34 142v994h228z" glyph-name="j" horiz-adv-x="501" unicode="j"/><glyph d="M1077 0h-239.999l-258 518l-224 -251v-267h-218v1365h218v-847c19.333 25.333 34.666 44.333 45.999 57l400 435h245l-304 -334z" glyph-name="k" horiz-adv-x="1090" unicode="k"/><glyph d="M364 0h-228v1365h228v-1365z" glyph-name="l" horiz-adv-x="501" unicode="l"/><glyph d="M1645 0h-239v629c0 130.667 -58 196 -174 196c-67.333 0 -121.166 -24.667 -161.499 -74s-60.5 -123 -60.5 -221v-530h-242v629c0 132.667 -54.333 199 -163 199c-66 0 -121.5 -26.667 -166.5 -80s-67.5 -126 -67.5 -218v-530h-235v1010h221v-215 c72 157.333 184.333 236 337 236c148.667 0 245.334 -78.667 290.001 -236c81.333 157.333 193.666 236 336.999 236c97.333 0 175.666 -30.333 234.999 -91s89 -136 89 -226v-714z" glyph-name="m" horiz-adv-x="1782" unicode="m"/><glyph d="M973 0l-228 -0.000976562v631c0 66.667 -15.333 116.834 -46 150.501s-67.667 50.5 -111 50.5c-59.333 0 -111.333 -26 -156 -78s-67 -130.333 -67 -235v-519h-228v1010h208v-234c72.667 170 174.667 255 306 255c88.667 0 164.5 -28 227.5 -84s94.5 -154.333 94.5 -295 v-652z" glyph-name="n" horiz-adv-x="1109" unicode="n"/><glyph d="M532 -21c-149.333 0 -263.333 53.6689 -342 161.002s-118 230.333 -118 369c0 149.333 43.5 273.666 130.5 372.999s201.833 149 344.5 149c135.333 0 246.5 -48.333 333.5 -145s130.5 -222.334 130.5 -377.001c0 -159.333 -45.167 -287.5 -135.5 -384.5 s-204.833 -145.5 -343.5 -145.5zM540 167.002c153.333 0 230 114.333 230 343c0 103.333 -18.333 184.833 -55 244.5s-93 89.5 -169 89.5c-78.667 0 -137 -30.833 -175 -92.5s-57 -143.5 -57 -245.5c0 -110 20.167 -194 60.5 -252s95.5 -87 165.5 -87z" glyph-name="o" horiz-adv-x="1083" unicode="o"/><glyph d="M369 -341l-232 -0.000976562v1351h218v-176c70 131.333 173 197 309 197c112 0 201.333 -48.667 268 -146s100 -221.666 100 -372.999c0 -143.333 -31.833 -268 -95.5 -374s-158.5 -159 -284.5 -159c-130 0 -224.333 54 -283 162v-482zM369 413.999 c0 -73.333 21.832 -134.167 65.499 -182.5s92.167 -72.5 145.5 -72.5c72.667 0 125.834 31.833 159.501 95.5s50.5 144.5 50.5 242.5c0 102.667 -17 186.167 -51 250.5s-84.667 96.5 -152 96.5c-60.667 0 -112.167 -26.333 -154.5 -79s-63.5 -121.667 -63.5 -207v-144z" glyph-name="p" horiz-adv-x="1103" unicode="p"/><glyph d="M973 -341l-237 -0.000976562v519c-54 -132.667 -147.667 -199 -281 -199c-128 0 -223.833 52.333 -287.5 157s-95.5 226.334 -95.5 365.001c0 156 37.333 283.333 112 382s178 148 310 148c123.333 0 222 -54 296 -162l61 141h122v-1351zM736 592.999 c0 66 -15.167 124.333 -45.5 175s-79.833 76 -148.5 76c-74 0 -130.667 -30.5 -170 -91.5s-59 -144.167 -59 -249.5c0 -108 20.167 -192 60.5 -252s91.5 -90 153.5 -90c56.667 0 105.667 25.5 147 76.5s62 120.833 62 209.5v146z" glyph-name="q" horiz-adv-x="1109" unicode="q"/><glyph d="M365 0h-227.999v1010h206v-241c29.333 94 69.666 162.667 120.999 206s104 65 158 65c7.33301 0 17.333 -0.333008 30 -1v-245c-116 0 -192.833 -37 -230.5 -111s-56.5 -145.667 -56.5 -215v-468z" glyph-name="r" horiz-adv-x="679" unicode="r"/><glyph d="M14 232l214 41.002c32.667 -82 104.667 -123 216 -123c141.333 0 212 41.667 212 125c0 26.667 -11 48.667 -33 66s-48 29 -78 35l-184 35c-204 39.333 -306 139 -306 299c0 89.333 32.333 165.166 97 227.499s161 93.5 289 93.5c213.333 0 343.666 -78.333 390.999 -235 l-203 -41c-21.333 76 -82 114 -182 114c-121.333 0 -182 -38 -182 -114c0 -52.667 49 -89 147 -109l217 -45c168.667 -34.667 253 -131.334 253 -290.001c0 -111.333 -43.333 -194.5 -130 -249.5s-189.667 -82.5 -309 -82.5c-103.333 0 -194.666 20.833 -273.999 62.5 s-131 105.167 -155 190.5z" glyph-name="s" horiz-adv-x="930" unicode="s"/><glyph d="M605 178v-177.999c-68 -14.667 -120.667 -22 -158 -22c-61.333 0 -114 12.167 -158 36.5s-76.167 57.666 -96.5 99.999s-30.5 107.5 -30.5 195.5v523h-126v177h139l21 263l187 17v-280h203v-177h-203v-493c0 -63.333 11.5 -106.5 34.5 -129.5s66.5 -34.5 130.5 -34.5 c18 0 37 0.666992 57 2z" glyph-name="t" horiz-adv-x="660" unicode="t"/><glyph d="M968 0l-212 0.000976562v218c-57.333 -159.333 -163.666 -239 -318.999 -239c-92 0 -165 28.5 -219 85.5s-81 136.5 -81 238.5v707h233v-658c0 -72.667 16 -120.334 48 -143.001s63.333 -34 94 -34c49.333 0 99.666 22.167 150.999 66.5s77 138.833 77 283.5v485h228 v-1010z" glyph-name="u" horiz-adv-x="1105" unicode="u"/><glyph d="M897 1010l-343 -1010h-189l-351 1010h238l236 -685l230 685h179z" glyph-name="v" horiz-adv-x="910" unicode="v"/><glyph d="M1406 1010l-296 -1010h-205l-182 708l-181 -708h-211l-311 1010h242l199 -679l174 679h207l177 -679l195 679h192z" glyph-name="w" horiz-adv-x="1427" unicode="w"/><glyph d="M904 0h-260l-214 368l-234 -368h-196l336 520l-291 490h261l166 -297l189 297h191l-285 -438z" glyph-name="x" horiz-adv-x="904" unicode="x"/><glyph d="M891 1010l-393 -1150c-24 -70.667 -56.833 -125.5 -98.5 -164.5s-100.5 -58.5 -176.5 -58.5c-30 0 -73.667 2.33301 -131 7v181l109 -2c48 0 83.5 7.83301 106.5 23.5s41.167 43.5 54.5 83.5s20 63.333 20 70c0 4 -7 24.667 -21 62l-347 948h239l245 -666l211 666h182z" glyph-name="y" horiz-adv-x="905" unicode="y"/><glyph d="M810 177v-177h-762v177l487 656h-441v177h716v-161l-499 -672h499z" glyph-name="z" horiz-adv-x="857" unicode="z"/><glyph d="M215 511c82.667 -40.667 124 -119.668 124 -237.001v-296c0 -77.333 14.667 -124.166 44 -140.499s81 -24.5 155 -24.5v-153l-90 -2c-102 0 -176.333 22 -223 66s-70 118 -70 222v319c0 65.333 -11 109.833 -33 133.5s-49.333 39.167 -82 46.5v145 c76.667 16 115 71.667 115 167v335c0 97.333 23.5 167.333 70.5 210s123.167 64 228.5 64c18 0 46 -0.666992 84 -2v-153c-84 0 -138.167 -10.667 -162.5 -32s-36.5 -64.333 -36.5 -129v-304c0 -41.333 -6.16699 -83.5 -18.5 -126.5s-47.5 -79.167 -105.5 -108.5z" glyph-name="braceleft" horiz-adv-x="601" unicode="{"/><glyph d="M396 1365h232v-1706h-232v1706z" glyph-name="bar" horiz-adv-x="1024" unicode="|"/><glyph d="M386 513c-82.667 40 -124 119.002 -124 237.002v296c0 77.333 -14.5 124.166 -43.5 140.499s-80.833 24.5 -155.5 24.5v153l89 2c105.333 0 180.5 -23 225.5 -69s67.5 -119 67.5 -219v-319c0 -64.667 10.833 -109 32.5 -133s49.5 -39.667 83.5 -47v-145 c-77.333 -16 -116 -71.667 -116 -167v-335c0 -97.333 -23.5 -167.333 -70.5 -210s-122.833 -64 -227.5 -64c-18.667 0 -46.667 0.666992 -84 2v153c84 0 138.167 10.667 162.5 32s36.5 64.333 36.5 129v304c0 45.333 6.66699 88.666 20 129.999s48 76.333 104 105z" glyph-name="braceright" horiz-adv-x="601" unicode="}"/><glyph d="M233 493l-129.001 84c42.667 104 87.5 175.167 134.5 213.5s102.5 57.5 166.5 57.5c47.333 0 120 -19.333 218 -58c89.333 -35.333 150.333 -53 183 -53c64 0 116.667 38.333 158 115l133 -78c-75.333 -174 -181.666 -261 -318.999 -261c-38 0 -120 24 -246 72 c-67.333 26 -115 39 -143 39c-62.667 0 -114.667 -43.667 -156 -131z" glyph-name="asciitilde" horiz-adv-x="1201" unicode="~"/><glyph glyph-name="nonbreakingspace" horiz-adv-x="512"/><glyph d="M157 774v250h250v-250h-250zM126 -341l101 951h104l96 -951h-301z" glyph-name="exclamdown" horiz-adv-x="564" unicode="¡"/><glyph d="M561 1450h126.999v-258c196.667 -26.667 314 -139 352 -337l-186 -33c-34.667 116 -90 179.333 -166 190v-618c76.667 4.66699 132 66 166 184l186 -27c-35.333 -196 -152.666 -309 -351.999 -339v-280h-127v280c-120.667 16 -215.167 69 -283.5 159 s-102.5 197 -102.5 321c0 140 35.5 254.667 106.5 344s164.167 141.333 279.5 156v258zM560.999 1012c-98.667 -16 -148 -124 -148 -324c0 -172.667 49.333 -270.667 148 -294v618z" glyph-name="cent" horiz-adv-x="1201" unicode="¢"/><glyph d="M-25 0l0.000976562 227.001c83.333 1.33301 145.166 9.16602 185.499 23.499s75.333 43.833 105 88.5s44.5 92.334 44.5 143.001c0 26 -4 73.333 -12 142h-158v177h137c-11.333 75.333 -17 131.666 -17 168.999c0 120.667 38.333 220.167 115 298.5s176 117.5 298 117.5 c180 0 310.667 -83 392 -249l-194 -90c-31.333 102 -94.333 153 -189 153c-53.333 0 -95.833 -17.667 -127.5 -53s-47.5 -87.666 -47.5 -156.999c0 -50 10.667 -113 32 -189h248v-177h-248c0 -108 -9.66699 -186.667 -29 -236s-60.333 -103 -123 -161h261 c135.333 0 224.5 16.5 267.5 49.5s67.5 80.833 73.5 143.5l216 -108c-27.333 -74.667 -62.666 -135.334 -105.999 -182.001s-91.333 -80 -144 -100s-125.334 -30 -218.001 -30h-762z" glyph-name="sterling" horiz-adv-x="1201" unicode="£"/><glyph d="M63 273l205 204.999c-62.667 88.667 -94 183.334 -94 284.001c0 102 31.333 196.667 94 284l-208 208l127 127l208 -207c89.333 62.667 187.333 94 294 94c98 0 191.333 -30.667 280 -92l205 204l127 -126l-205 -205c64.667 -94 97 -189.667 97 -287 c0 -99.333 -31.333 -193.333 -94 -282l207 -207l-125 -127l-207 206c-90.667 -64 -187.667 -96 -291 -96c-98 0 -194.333 31.667 -289 95l-206 -204zM981 761.999c0 82 -29.167 152.333 -87.5 211s-128.5 88 -210.5 88c-81.333 0 -151.166 -29.333 -209.499 -88 s-87.5 -129 -87.5 -211s29.167 -152.333 87.5 -211s128.166 -88 209.499 -88s151.333 29.167 210 87.5s88 128.833 88 211.5z" glyph-name="currency" horiz-adv-x="1365" unicode="¤"/><glyph d="M107 867h223l-271 498h284l294 -563l280 563h225l-257 -498h209v-123h-272l-87 -168v-34h359v-123h-359v-419h-247v419h-381v123h381v34l-91 168h-290v123z" glyph-name="yen" horiz-adv-x="1202" unicode="¥"/><glyph d="M396 1365h232v-701h-232v701zM396 314h232v-655h-232v655z" glyph-name="brokenbar" horiz-adv-x="1024" unicode="¦"/><glyph d="M124 -62l218 41.002c54.667 -110.667 148.334 -166 281.001 -166c63.333 0 115.166 14.167 155.499 42.5s60.5 62.5 60.5 102.5c0 37.333 -12.5 70.166 -37.5 98.499s-76.833 57.166 -155.5 86.499l-215 80c-64 23.333 -110 46.333 -138 69s-52.833 55.5 -74.5 98.5 s-32.5 90.833 -32.5 143.5c0 116.667 52 205 156 265c-82 62 -123 139.667 -123 233c0 96.667 36.167 178.5 108.5 245.5s178.166 100.5 317.499 100.5c203.333 0 341.333 -83 414 -249l-185 -52c-38.667 101.333 -121 152 -247 152c-132 0 -198 -45 -198 -135 c0 -60.667 53.333 -109.334 160 -146.001l179 -61c111.333 -38 187.333 -84.667 228 -140s61 -117.666 61 -186.999c0 -90 -44 -179.333 -132 -268c102 -62 153 -153.667 153 -275c0 -111.333 -40.5 -201 -121.5 -269s-196.5 -102 -346.5 -102 c-118 0 -216.167 21.667 -294.5 65s-142.166 119 -191.499 227zM786 352.002c48.667 49.333 73 96.332 73 140.999c0 74 -59 131.333 -177 172l-216 74c-48.667 -40.667 -73 -83.667 -73 -129c0 -77.333 68.333 -140.666 205 -189.999z" glyph-name="section" horiz-adv-x="1201" unicode="§"/><glyph d="M343 1188c-32 0 -58.5029 10.5 -79.5029 31.5s-31.5 46.167 -31.5 75.5s10.333 55.166 31 77.499s47.334 33.5 80.001 33.5c30.667 0 57.334 -9.83301 80.001 -29.5s34 -46.5 34 -80.5c0 -33.333 -11.167 -59.666 -33.5 -78.999s-49.166 -29 -80.499 -29zM677.997 1188 c-32.667 0 -59.501 10.667 -80.501 32s-31.5 46.333 -31.5 75c0 29.333 10.5 55.166 31.5 77.499s47.833 33.5 80.5 33.5c30 0 56.5 -9.83301 79.5 -29.5s34.5 -46.5 34.5 -80.5c0 -33.333 -11.167 -59.666 -33.5 -78.999s-49.166 -29 -80.499 -29z" glyph-name="dieresis" horiz-adv-x="1024" unicode="¨"/><glyph d="M1501 682c0 -194.667 -69.334 -361.832 -208.001 -501.499s-305 -209.5 -499 -209.5c-195.333 0 -362.666 69.833 -501.999 209.5s-209 307.167 -209 502.5s69.5 362.666 208.5 501.999s307.167 209 504.5 209c194 0 360 -69.667 498 -209s207 -307 207 -503z M1374 683.002c0 163.333 -56.832 303.667 -170.499 421s-249.834 176 -408.501 176c-162 0 -300 -58.5 -414 -175.5s-171 -257.5 -171 -421.5c0 -165.333 57.167 -306.333 171.5 -423s251.5 -175 411.5 -175c158.667 0 295.167 58.333 409.5 175s171.5 257.667 171.5 423z M956 568.003l164.999 -18.001c-10.667 -88 -45.5 -158.167 -104.5 -210.5s-135.5 -78.5 -229.5 -78.5c-105.333 0 -190.166 37.667 -254.499 113s-96.5 178.333 -96.5 309c0 126.667 32 228.667 96 306s150.667 116 260 116c184 0 293.667 -99.333 329 -298l-164 -17 c0 0.666992 -2 8.33398 -6 23.001c-27.333 107.333 -80 161 -158 161c-48 0 -88.333 -22.5 -121 -67.5s-49 -118.833 -49 -221.5c0 -94 16 -165.667 48 -215s74.333 -74 127 -74c41.333 0 77 16 107 48s47 73.333 51 124z" glyph-name="copyright" horiz-adv-x="1584" unicode="©"/><glyph d="M657 771l-158.001 -0.000976562c-10 22 -16.333 47.333 -19 76l-1 11c-16 -20.667 -32 -37.667 -48 -51c-38 -32 -90.667 -48 -158 -48c-65.333 0 -118 17.833 -158 53.5s-60 80.834 -60 135.501c0 142 140 213 420 213v37c0 57.333 -40.667 86 -122 86 c-82 0 -128 -31.333 -138 -94l-142 20c22.667 122 121 183 295 183c76.667 0 134.334 -9.83301 173.001 -29.5s64.167 -43.5 76.5 -71.5s18.5 -69.667 18.5 -125v-269c0 -38.667 7 -81 21 -127zM474.999 1074c-168.667 0 -253 -39 -253 -117c0 -55.333 33.333 -83 100 -83 c52 0 90.5 15.5 115.5 46.5s37.5 66.167 37.5 105.5v48z" glyph-name="ordfeminine" horiz-adv-x="730" unicode="ª"/><glyph d="M585 799l-91 -290l91 -288h-91l-165 288l165 290h91zM329 799l-97 -290l97 -288h-97l-157 288l157 290h97z" glyph-name="guillemotleft" horiz-adv-x="674" unicode="«"/><glyph d="M812 0v338h-655v208h887v-546h-232z" glyph-name="logicalnot" horiz-adv-x="1201" unicode="¬"/><glyph d="M497 613v-187h-502v187h502z" glyph-name="sfthyphen" horiz-adv-x="493" unicode="­"/><glyph d="M1501 682c0 -194.667 -69.334 -361.832 -208.001 -501.499s-305 -209.5 -499 -209.5c-195.333 0 -362.666 69.833 -501.999 209.5s-209 307.167 -209 502.5s69.5 362.666 208.5 501.999s307.167 209 504.5 209c194 0 360 -69.667 498 -209s207 -307 207 -503z M1374 683.002c0 163.333 -56.832 303.667 -170.499 421s-249.834 176 -408.501 176c-162 0 -300 -58.5 -414 -175.5s-171 -257.5 -171 -421.5c0 -165.333 57.167 -306.333 171.5 -423s251.5 -175 411.5 -175c158.667 0 295.167 58.333 409.5 175s171.5 257.667 171.5 423z M1149 273.003l-184 -0.000976562l-133 331h-196v-331h-175v819h380c104 0 181.5 -22.667 232.5 -68s76.5 -103.666 76.5 -174.999c0 -102 -50.667 -174 -152 -216zM636 734.002h180c102 0 153 39 153 117c0 74.667 -46.667 112 -140 112h-193v-229z" glyph-name="registered" horiz-adv-x="1584" unicode="®"/><glyph d="M0 1811h1024v-209h-1024v209z" glyph-name="overscore" horiz-adv-x="1024" unicode="¯"/><glyph d="M601 1393c77.333 0 142.167 -26.999 194.5 -80.999s78.5 -118 78.5 -192c0 -74.667 -26.5 -138.834 -79.5 -192.501s-117.5 -80.5 -193.5 -80.5c-77.333 0 -142.166 27.333 -194.499 82s-78.5 118.334 -78.5 191.001c0 71.333 25.667 134.666 77 189.999 s116.666 83 195.999 83zM602.001 1256c-38.667 0 -71 -13.667 -97 -41s-39 -59 -39 -95c0 -35.333 12.833 -66.833 38.5 -94.5s58.167 -41.5 97.5 -41.5c37.333 0 69.333 13.333 96 40s40 58.667 40 96c0 36.667 -13 68.5 -39 95.5s-58.333 40.5 -97 40.5z" glyph-name="degree" horiz-adv-x="1201" unicode="°"/><glyph d="M1107 785v-191h-411v-425h-190v425h-411v191h411v426h190v-426h411zM1107 102v-191h-1012v191h1012z" glyph-name="plusminus" horiz-adv-x="1201" unicode="±"/><glyph d="M713 685v-139.002h-649v152l245 152c72.667 45.333 124 83.5 154 114.5s49.5 56.833 58.5 77.5s13.5 41 13.5 61c0 38.667 -13.333 70.834 -40 96.501s-61.667 38.5 -105 38.5c-95.333 0 -150 -57 -164 -171l-163 38c11.333 76 46 140.5 104 193.5s134 79.5 228 79.5 c98 0 175.833 -26.167 233.5 -78.5s86.5 -118.166 86.5 -197.499c0 -72.667 -26.833 -136.667 -80.5 -192s-170.5 -130.333 -350.5 -225h429z" glyph-name="twosuperior" horiz-adv-x="792" unicode="²"/><glyph d="M282 903l-0.00195312 127.999h86c44.667 0 82.334 9.16699 113.001 27.5s46 45.833 46 82.5c0 71.333 -45.667 107 -137 107c-83.333 0 -139.666 -39 -168.999 -117l-155 26c16 66 53.833 119.333 113.5 160s131.167 61 214.5 61c82.667 0 153.334 -20.167 212.001 -60.5 s88 -94.166 88 -161.499c0 -88 -43 -149 -129 -183c104 -36.667 156 -101.667 156 -195c0 -70.667 -30.333 -129 -91 -175s-141.334 -69 -242.001 -69c-92.667 0 -169.5 22.333 -230.5 67s-99.833 98 -116.5 160l160 36c28.667 -90.667 90 -136 184 -136 c50.667 0 90.5 11.5 119.5 34.5s43.5 50.5 43.5 82.5c0 33.333 -12.667 62.5 -38 87.5s-64 37.5 -116 37.5h-112z" glyph-name="threesuperior" horiz-adv-x="792" unicode="³"/><glyph d="M739 1487l66 -150l-417 -176l-42 107z" glyph-name="acute" horiz-adv-x="1024" unicode="´"/><glyph d="M173 -341v1351h228v-540c0 -74 5.5 -129.667 16.5 -167s32.833 -69.333 65.5 -96s70.667 -40 114 -40c62 0 111.333 21.667 148 65s55 122.666 55 237.999v540h228v-1010h-193v155c-50.667 -117.333 -127.667 -176 -231 -176c-48 0 -91.167 14.167 -129.5 42.5 s-62.833 61.833 -73.5 100.5v-463h-228z" glyph-name="mu1" horiz-adv-x="1201" unicode="µ"/><glyph d="M1155 1365l-0.000976562 -114h-150v-1586h-114v1586h-112v-1586h-118v1038h-130c-121.333 0 -211.166 8.5 -269.499 25.5s-104.833 51 -139.5 102s-52 115.833 -52 194.5c0 61.333 18.333 122.333 55 183s81.167 102 133.5 124s144.833 33 277.5 33h619zM660.999 818 v433.001h-107c-101.333 0 -167.5 -9.33301 -198.5 -28s-53 -49.334 -66 -92.001s-19.5 -79.667 -19.5 -111c0 -67.333 19.167 -117.833 57.5 -151.5s106.5 -50.5 204.5 -50.5h129z" glyph-name="paragraph" horiz-adv-x="1201" unicode="¶"/><glyph d="M247 651v-262h-247v262h247z" glyph-name="middot" horiz-adv-x="247" unicode="·"/><glyph d="M513 0l-25.999 -92.999c68 0 120.667 -15.333 158 -46s56 -68.334 56 -113.001c0 -43.333 -18 -81.5 -54 -114.5s-82.667 -49.5 -140 -49.5c-50 0 -117.667 19.667 -203 59l32 78c58 -31.333 109.667 -47 155 -47c23.333 0 42.666 6.66699 57.999 20s23 29.333 23 48 c0 57.333 -50.667 86 -152 86c-10.667 0 -26 -0.666992 -46 -2l58 174h81z" glyph-name="cedilla" horiz-adv-x="1024" unicode="¸"/><glyph d="M743 546h-617.001v133h232v487c-81.333 -66 -159.666 -113 -234.999 -141v160c136.667 44 233.667 109.667 291 197h114v-703h215v-133z" glyph-name="onesuperior" horiz-adv-x="792" unicode="¹"/><glyph d="M351 759c-92 0 -164.5 31 -217.5 93s-79.5 137.333 -79.5 226c0 90 28.167 165 84.5 225s130.5 90 222.5 90c90 0 162.5 -30 217.5 -90s82.5 -135 82.5 -225c0 -96 -29.167 -173.167 -87.5 -231.5s-132.5 -87.5 -222.5 -87.5zM356 883c88.667 0 133 65.333 133 196 c0 126.667 -42.667 190 -128 190c-90 0 -135 -64.667 -135 -194c0 -128 43.333 -192 130 -192z" glyph-name="ordmasculine" horiz-adv-x="715" unicode="º"/><glyph d="M89 797h94l160 -292l-160 -282h-94l94 282zM343 797h94l162 -292l-162 -282h-94l94 282z" glyph-name="guillemotright" horiz-adv-x="673" unicode="»"/><glyph d="M685 546h-617.001v133h232v487c-81.333 -66 -159.666 -113 -234.999 -141v160c136.667 44 233.667 109.667 291 197h114v-703h215v-133zM435.999 0l843 1365h133l-843 -1365h-133zM1636 0h-172v183h-382v115l386 538h168v-515h129v-138h-129v-183zM1484 665 l-241 -354.999h232v186c0 41.333 3 97.666 9 168.999z" glyph-name="onequarter" horiz-adv-x="1802" unicode="¼"/><glyph d="M692 546h-617.001v133h232v487c-81.333 -66 -159.666 -113 -234.999 -141v160c136.667 44 233.667 109.667 291 197h114v-703h215v-133zM442.999 0l843 1365h133l-843 -1365h-133zM1748 139v-139.002h-649v152l245 152c72.667 45.333 124 83.5 154 114.5 s49.5 56.833 58.5 77.5s13.5 41 13.5 61c0 38.667 -13.333 70.834 -40 96.501s-61.667 38.5 -105 38.5c-95.333 0 -150 -57 -164 -171l-163 38c11.333 76 46 140.5 104 193.5s134 79.5 228 79.5c98 0 175.833 -26.167 233.5 -78.5s86.5 -118.166 86.5 -197.499 c0 -72.667 -26.833 -136.667 -80.5 -192s-170.5 -130.333 -350.5 -225h429z" glyph-name="onehalf" horiz-adv-x="1802" unicode="½"/><glyph d="M271 903l-0.00195312 127.999h86c44.667 0 82.334 9.16699 113.001 27.5s46 45.833 46 82.5c0 71.333 -45.667 107 -137 107c-83.333 0 -139.666 -39 -168.999 -117l-155 26c16 66 53.833 119.333 113.5 160s131.167 61 214.5 61c82.667 0 153.334 -20.167 212.001 -60.5 s88 -94.166 88 -161.499c0 -88 -43 -149 -129 -183c104 -36.667 156 -101.667 156 -195c0 -70.667 -30.333 -129 -91 -175s-141.334 -69 -242.001 -69c-92.667 0 -169.5 22.333 -230.5 67s-99.833 98 -116.5 160l160 36c28.667 -90.667 90 -136 184 -136 c50.667 0 90.5 11.5 119.5 34.5s43.5 50.5 43.5 82.5c0 33.333 -12.667 62.5 -38 87.5s-64 37.5 -116 37.5h-112zM460.998 -0.000976562l843 1365h133l-843 -1365h-133zM1615 -0.000976562h-172v183h-382v115l386 538h168v-515h129v-138h-129v-183zM1463 664.999 l-241 -354.999h232v186c0 41.333 3 97.666 9 168.999z" glyph-name="threequarters" horiz-adv-x="1802" unicode="¾"/><glyph d="M387 775v249h235v-249h-235zM427 632h195.001v-135c0 -45.333 -9.16699 -81 -27.5 -107s-58.5 -63 -120.5 -111c-94.667 -72.667 -142 -149.667 -142 -231c0 -60.667 18.5 -109.167 55.5 -145.5s85.167 -54.5 144.5 -54.5c137.333 0 218.333 95 243 285l218 -39 c-13.333 -143.333 -65.833 -255.166 -157.5 -335.499s-201.167 -120.5 -328.5 -120.5c-130.667 0 -237 38 -319 114s-123 170.333 -123 283c0 55.333 11.667 108.166 35 158.499s49.666 89.5 78.999 117.5s91 76.333 185 145c27.333 20 44.5 39 51.5 57 s10.833 57.667 11.5 119z" glyph-name="questiondown" horiz-adv-x="1027" unicode="¿"/><glyph d="M1221 0h-263l-109 325h-525l-107 -325h-210l453 1365h303zM783 522l-199 609l-199 -609h398zM349 1800l393 -219l-42 -107l-417 176z" glyph-name="Agrave" horiz-adv-x="1235" unicode="À"/><glyph d="M1221 0h-263l-109 325h-525l-107 -325h-210l453 1365h303zM783 522l-199 609l-199 -609h398zM873 1800l66 -150l-417 -176l-42 107z" glyph-name="Aacute" horiz-adv-x="1235" unicode="Á"/><glyph d="M1221 0h-263l-109 325h-525l-107 -325h-210l453 1365h303zM783 522l-199 609l-199 -609h398zM615 1790l347 -288l-180 -21l-167 132l-167 -132l-181 21z" glyph-name="Acircumflex" horiz-adv-x="1235" unicode="Â"/><glyph d="M1221 0h-263l-109 325h-525l-107 -325h-210l453 1365h303zM783 522l-199 609l-199 -609h398zM876 1735l70.001 -103.001c-16 -33.333 -45.333 -61.166 -88 -83.499s-80.667 -33.5 -114 -33.5c-40.667 0 -91.334 15.667 -152.001 47c-46 24 -80 36 -102 36 c-31.333 0 -73.333 -26 -126 -78l-69 103c62 76.667 129 115 201 115c34.667 0 79.667 -13 135 -39c60 -28 104.667 -42 134 -42c40.667 0 77.667 26 111 78z" glyph-name="Atilde" horiz-adv-x="1235" unicode="Ã"/><glyph d="M1221 0h-263l-109 325h-525l-107 -325h-210l453 1365h303zM783 522l-199 609l-199 -609h398zM438 1512c-32 0 -58.5029 10.5 -79.5029 31.5s-31.5 46.167 -31.5 75.5s10.333 55.166 31 77.499s47.334 33.5 80.001 33.5c30.667 0 57.334 -9.83301 80.001 -29.5 s34 -46.5 34 -80.5c0 -33.333 -11.167 -59.666 -33.5 -78.999s-49.166 -29 -80.499 -29zM772.997 1512c-32.667 0 -59.501 10.667 -80.501 32s-31.5 46.333 -31.5 75c0 29.333 10.5 55.166 31.5 77.499s47.833 33.5 80.5 33.5c30 0 56.5 -9.83301 79.5 -29.5 s34.5 -46.5 34.5 -80.5c0 -33.333 -11.167 -59.666 -33.5 -78.999s-49.166 -29 -80.499 -29z" glyph-name="Adieresis" horiz-adv-x="1235" unicode="Ä"/><glyph d="M1221 0h-263l-109 325h-525l-107 -325h-210l453 1365h303zM783 522l-199 609l-199 -609h398zM613 1454c-51.333 0 -94.999 18 -130.999 54s-54 79.667 -54 131s18.167 95.333 54.5 132s79.833 55 130.5 55c46 0 88.5 -16.333 127.5 -49s58.5 -79.667 58.5 -141 c0 -48 -17.833 -90.333 -53.5 -127s-79.834 -55 -132.501 -55zM614.001 1558c28 0 48.666 8.5 61.999 25.5s20 34.5 20 52.5c0 25.333 -7.16699 46 -21.5 62s-33.166 24 -56.499 24c-22.667 0 -42.667 -7 -60 -21s-26 -34.333 -26 -61c0 -22 7 -41.167 21 -57.5 s34.333 -24.5 61 -24.5z" glyph-name="Aring" horiz-adv-x="1235" unicode="Å"/><glyph d="M1671 212v-212h-869v386h-408l-194 -386h-234l727 1365h961v-198h-606v-376h481v-196h-481v-383h623zM802 576v621l-310 -621h310z" glyph-name="AE" horiz-adv-x="1732" unicode="Æ"/><glyph d="M634 -21l-25.001 -79.0029c78.667 0 136.667 -14.833 174 -44.5s56 -68.5 56 -116.5c0 -47.333 -18.5 -87.666 -55.5 -120.999s-87.167 -50 -150.5 -50c-62.667 0 -137.667 20.333 -225 61l33 82c77.333 -34 132.666 -51 165.999 -51c61.333 0 92 24.333 92 73 c0 58.667 -50.333 88 -151 88c-10.667 0 -29.334 -0.666992 -56.001 -2l52 165c-143.333 15.333 -256.833 89 -340.5 221s-125.5 291.333 -125.5 478c0 208 49.333 377.167 148 507.5s234.334 195.5 407.001 195.5c135.333 0 248 -41.667 338 -125 s146.667 -202.666 170 -357.999l-228 -24c-42 206 -134.667 309 -278 309c-92 0 -163.5 -42.833 -214.5 -128.5s-76.5 -209.834 -76.5 -372.501c0 -165.333 27.333 -290.166 82 -374.499s127 -126.5 217 -126.5c72 0 133.333 28.333 184 85s79.334 124.334 86.001 203.001 l228 -25c-14 -130 -63.667 -239.5 -149 -328.5s-204.666 -136.167 -357.999 -141.5z" glyph-name="Ccedilla" horiz-adv-x="1186" unicode="Ç"/><glyph d="M1037 0h-887v1365h878v-203h-632v-370h508v-198h-508v-382h641v-212zM362 1800l393 -219l-42 -107l-417 176z" glyph-name="Egrave" horiz-adv-x="1099" unicode="È"/><glyph d="M1037 0h-887v1365h878v-203h-632v-370h508v-198h-508v-382h641v-212zM842 1800l66 -150l-417 -176l-42 107z" glyph-name="Eacute" horiz-adv-x="1099" unicode="É"/><glyph d="M1037 0h-887v1365h878v-203h-632v-370h508v-198h-508v-382h641v-212zM601 1790l347 -288l-180 -21l-167 132l-167 -132l-181 21z" glyph-name="Ecircumflex" horiz-adv-x="1099" unicode="Ê"/><glyph d="M1037 0h-887v1365h878v-203h-632v-370h508v-198h-508v-382h641v-212zM425 1512c-32 0 -58.5029 10.5 -79.5029 31.5s-31.5 46.167 -31.5 75.5s10.333 55.166 31 77.499s47.334 33.5 80.001 33.5c30.667 0 57.334 -9.83301 80.001 -29.5s34 -46.5 34 -80.5 c0 -33.333 -11.167 -59.666 -33.5 -78.999s-49.166 -29 -80.499 -29zM759.997 1512c-32.667 0 -59.501 10.667 -80.501 32s-31.5 46.333 -31.5 75c0 29.333 10.5 55.166 31.5 77.499s47.833 33.5 80.5 33.5c30 0 56.5 -9.83301 79.5 -29.5s34.5 -46.5 34.5 -80.5 c0 -33.333 -11.167 -59.666 -33.5 -78.999s-49.166 -29 -80.499 -29z" glyph-name="Edieresis" horiz-adv-x="1099" unicode="Ë"/><glyph d="M396 0h-246v1365h246v-1365zM36 1800l393 -219l-42 -107l-417 176z" glyph-name="Igrave" horiz-adv-x="546" unicode="Ì"/><glyph d="M396 0h-246v1365h246v-1365zM540 1800l66 -150l-417 -176l-42 107z" glyph-name="Iacute" horiz-adv-x="546" unicode="Í"/><glyph d="M396 0h-246v1365h246v-1365zM272 1790l347 -288l-180 -21l-167 132l-167 -132l-181 21z" glyph-name="Icircumflex" horiz-adv-x="546" unicode="Î"/><glyph d="M396 0h-246v1365h246v-1365zM118 1512c-32 0 -58.5029 10.5 -79.5029 31.5s-31.5 46.167 -31.5 75.5s10.333 55.166 31 77.499s47.334 33.5 80.001 33.5c30.667 0 57.334 -9.83301 80.001 -29.5s34 -46.5 34 -80.5c0 -33.333 -11.167 -59.666 -33.5 -78.999 s-49.166 -29 -80.499 -29zM452.997 1512c-32.667 0 -59.501 10.667 -80.501 32s-31.5 46.333 -31.5 75c0 29.333 10.5 55.166 31.5 77.499s47.833 33.5 80.5 33.5c30 0 56.5 -9.83301 79.5 -29.5s34.5 -46.5 34.5 -80.5c0 -33.333 -11.167 -59.666 -33.5 -78.999 s-49.166 -29 -80.499 -29z" glyph-name="Idieresis" horiz-adv-x="546" unicode="Ï"/><glyph d="M7 601v191h137v573h503c186 0 335.167 -65.667 447.5 -197s168.5 -294 168.5 -488c0 -192.667 -57.833 -354.167 -173.5 -484.5s-281.5 -195.5 -497.5 -195.5h-448v601h-137zM396 601l-0.000976562 -400h206c110 0 203.333 41.5 280 124.5s115 206.167 115 369.5 c0 132.667 -33.667 245.167 -101 337.5s-155.666 138.5 -264.999 138.5h-235v-379h337v-191h-337z" glyph-name="Eth" horiz-adv-x="1341" unicode="Ð"/><glyph d="M1181 0h-239l-518 872l-39 65l-37 63v-1000h-198v1365h272l478 -804l87 -147v951h194v-1365zM941 1735l70.001 -103.001c-16 -33.333 -45.333 -61.166 -88 -83.499s-80.667 -33.5 -114 -33.5c-40.667 0 -91.334 15.667 -152.001 47c-46 24 -80 36 -102 36 c-31.333 0 -73.333 -26 -126 -78l-69 103c62 76.667 129 115 201 115c34.667 0 79.667 -13 135 -39c60 -28 104.667 -42 134 -42c40.667 0 77.667 26 111 78z" glyph-name="Ntilde" horiz-adv-x="1331" unicode="Ñ"/><glyph d="M653 -21c-181.333 0 -322.5 68.001 -423.5 204.001s-151.5 304 -151.5 504c0 198.667 53.667 364.834 161 498.501s249 200.5 425 200.5c177.333 0 317.5 -66.833 420.5 -200.5s154.5 -300.834 154.5 -501.501c0 -210.667 -53.5 -380.834 -160.5 -510.501 s-248.833 -194.5 -425.5 -194.5zM655 177.001c88.667 0 163.668 36.667 225.001 110s92 206.333 92 399c0 156.667 -25.333 279.5 -76 368.5s-129.334 133.5 -236.001 133.5c-210.667 0 -316 -169.667 -316 -509c0 -164.667 26.833 -289.5 80.5 -374.5 s130.5 -127.5 230.5 -127.5zM426.001 1800l393 -219l-42 -107l-417 176z" glyph-name="Ograve" horiz-adv-x="1318" unicode="Ò"/><glyph d="M653 -21c-181.333 0 -322.5 68.001 -423.5 204.001s-151.5 304 -151.5 504c0 198.667 53.667 364.834 161 498.501s249 200.5 425 200.5c177.333 0 317.5 -66.833 420.5 -200.5s154.5 -300.834 154.5 -501.501c0 -210.667 -53.5 -380.834 -160.5 -510.501 s-248.833 -194.5 -425.5 -194.5zM655 177.001c88.667 0 163.668 36.667 225.001 110s92 206.333 92 399c0 156.667 -25.333 279.5 -76 368.5s-129.334 133.5 -236.001 133.5c-210.667 0 -316 -169.667 -316 -509c0 -164.667 26.833 -289.5 80.5 -374.5 s130.5 -127.5 230.5 -127.5zM910.001 1800l66 -150l-417 -176l-42 107z" glyph-name="Oacute" horiz-adv-x="1318" unicode="Ó"/><glyph d="M653 -21c-181.333 0 -322.5 68.001 -423.5 204.001s-151.5 304 -151.5 504c0 198.667 53.667 364.834 161 498.501s249 200.5 425 200.5c177.333 0 317.5 -66.833 420.5 -200.5s154.5 -300.834 154.5 -501.501c0 -210.667 -53.5 -380.834 -160.5 -510.501 s-248.833 -194.5 -425.5 -194.5zM655 177.001c88.667 0 163.668 36.667 225.001 110s92 206.333 92 399c0 156.667 -25.333 279.5 -76 368.5s-129.334 133.5 -236.001 133.5c-210.667 0 -316 -169.667 -316 -509c0 -164.667 26.833 -289.5 80.5 -374.5 s130.5 -127.5 230.5 -127.5zM666.001 1790l347 -288l-180 -21l-167 132l-167 -132l-181 21z" glyph-name="Ocircumflex" horiz-adv-x="1318" unicode="Ô"/><glyph d="M653 -21c-181.333 0 -322.5 68.001 -423.5 204.001s-151.5 304 -151.5 504c0 198.667 53.667 364.834 161 498.501s249 200.5 425 200.5c177.333 0 317.5 -66.833 420.5 -200.5s154.5 -300.834 154.5 -501.501c0 -210.667 -53.5 -380.834 -160.5 -510.501 s-248.833 -194.5 -425.5 -194.5zM655 177.001c88.667 0 163.668 36.667 225.001 110s92 206.333 92 399c0 156.667 -25.333 279.5 -76 368.5s-129.334 133.5 -236.001 133.5c-210.667 0 -316 -169.667 -316 -509c0 -164.667 26.833 -289.5 80.5 -374.5 s130.5 -127.5 230.5 -127.5zM934.001 1735l70.001 -103.001c-16 -33.333 -45.333 -61.166 -88 -83.499s-80.667 -33.5 -114 -33.5c-40.667 0 -91.334 15.667 -152.001 47c-46 24 -80 36 -102 36c-31.333 0 -73.333 -26 -126 -78l-69 103c62 76.667 129 115 201 115 c34.667 0 79.667 -13 135 -39c60 -28 104.667 -42 134 -42c40.667 0 77.667 26 111 78z" glyph-name="Otilde" horiz-adv-x="1318" unicode="Õ"/><glyph d="M653 -21c-181.333 0 -322.5 68.001 -423.5 204.001s-151.5 304 -151.5 504c0 198.667 53.667 364.834 161 498.501s249 200.5 425 200.5c177.333 0 317.5 -66.833 420.5 -200.5s154.5 -300.834 154.5 -501.501c0 -210.667 -53.5 -380.834 -160.5 -510.501 s-248.833 -194.5 -425.5 -194.5zM655 177.001c88.667 0 163.668 36.667 225.001 110s92 206.333 92 399c0 156.667 -25.333 279.5 -76 368.5s-129.334 133.5 -236.001 133.5c-210.667 0 -316 -169.667 -316 -509c0 -164.667 26.833 -289.5 80.5 -374.5 s130.5 -127.5 230.5 -127.5zM489.001 1512c-32 0 -58.5029 10.5 -79.5029 31.5s-31.5 46.167 -31.5 75.5s10.333 55.166 31 77.499s47.334 33.5 80.001 33.5c30.667 0 57.334 -9.83301 80.001 -29.5s34 -46.5 34 -80.5c0 -33.333 -11.167 -59.666 -33.5 -78.999 s-49.166 -29 -80.499 -29zM823.998 1512c-32.667 0 -59.501 10.667 -80.501 32s-31.5 46.333 -31.5 75c0 29.333 10.5 55.166 31.5 77.499s47.833 33.5 80.5 33.5c30 0 56.5 -9.83301 79.5 -29.5s34.5 -46.5 34.5 -80.5c0 -33.333 -11.167 -59.666 -33.5 -78.999 s-49.166 -29 -80.499 -29z" glyph-name="Odieresis" horiz-adv-x="1318" unicode="Ö"/><glyph d="M903 1126l135 -136l-301 -301l300 -300l-134 -134l-301 300l-301 -301l-135 135l301 301l-301 301l134 135l302 -301z" glyph-name="multiply" horiz-adv-x="1201" unicode="×"/><glyph d="M1094 1175c96.667 -133.333 145.001 -296.999 145.001 -490.999c0 -210.667 -53.333 -380.834 -160 -510.501s-248.334 -194.5 -425.001 -194.5c-126 0 -231 32 -315 96l-92 -131h-190l168 242c-97.333 144.667 -146 311 -146 499c0 202 54 369.333 162 502 s247.333 199 418 199c116.667 0 224 -31.333 322 -94l87 129h192zM383.001 409.001l465.999 705.999c-45.333 48.667 -106.666 73 -183.999 73c-112.667 0 -194.167 -45.167 -244.5 -135.5s-75.5 -212.166 -75.5 -365.499c0 -111.333 12.667 -204 38 -278zM940 961 l-469 -708c50.667 -50.667 113 -76 187 -76c88 0 162.5 36.667 223.5 110s91.5 206.333 91.5 399c0 91.333 -11 183 -33 275z" glyph-name="Oslash" horiz-adv-x="1318" unicode="Ø"/><glyph d="M1087 1365v-877c0 -118.667 -13.333 -210 -40 -274s-78.167 -119.167 -154.5 -165.5s-169.5 -69.5 -279.5 -69.5c-111.333 0 -202.833 20 -274.5 60s-123.167 94.833 -154.5 164.5s-47 158.5 -47 266.5v895h251v-877c0 -120 25.167 -198.833 75.5 -236.5 s108.833 -56.5 175.5 -56.5c76.667 0 138 20.167 184 60.5s69 117.833 69 232.5v877h195zM370 1800l393 -219l-42 -107l-417 176z" glyph-name="Ugrave" horiz-adv-x="1218" unicode="Ù"/><glyph d="M1087 1365v-877c0 -118.667 -13.333 -210 -40 -274s-78.167 -119.167 -154.5 -165.5s-169.5 -69.5 -279.5 -69.5c-111.333 0 -202.833 20 -274.5 60s-123.167 94.833 -154.5 164.5s-47 158.5 -47 266.5v895h251v-877c0 -120 25.167 -198.833 75.5 -236.5 s108.833 -56.5 175.5 -56.5c76.667 0 138 20.167 184 60.5s69 117.833 69 232.5v877h195zM868 1800l66 -150l-417 -176l-42 107z" glyph-name="Uacute" horiz-adv-x="1218" unicode="Ú"/><glyph d="M1087 1365v-877c0 -118.667 -13.333 -210 -40 -274s-78.167 -119.167 -154.5 -165.5s-169.5 -69.5 -279.5 -69.5c-111.333 0 -202.833 20 -274.5 60s-123.167 94.833 -154.5 164.5s-47 158.5 -47 266.5v895h251v-877c0 -120 25.167 -198.833 75.5 -236.5 s108.833 -56.5 175.5 -56.5c76.667 0 138 20.167 184 60.5s69 117.833 69 232.5v877h195zM619 1790l347 -288l-180 -21l-167 132l-167 -132l-181 21z" glyph-name="Ucircumflex" horiz-adv-x="1218" unicode="Û"/><glyph d="M1087 1365v-877c0 -118.667 -13.333 -210 -40 -274s-78.167 -119.167 -154.5 -165.5s-169.5 -69.5 -279.5 -69.5c-111.333 0 -202.833 20 -274.5 60s-123.167 94.833 -154.5 164.5s-47 158.5 -47 266.5v895h251v-877c0 -120 25.167 -198.833 75.5 -236.5 s108.833 -56.5 175.5 -56.5c76.667 0 138 20.167 184 60.5s69 117.833 69 232.5v877h195zM443 1512c-32 0 -58.5029 10.5 -79.5029 31.5s-31.5 46.167 -31.5 75.5s10.333 55.166 31 77.499s47.334 33.5 80.001 33.5c30.667 0 57.334 -9.83301 80.001 -29.5 s34 -46.5 34 -80.5c0 -33.333 -11.167 -59.666 -33.5 -78.999s-49.166 -29 -80.499 -29zM777.997 1512c-32.667 0 -59.501 10.667 -80.501 32s-31.5 46.333 -31.5 75c0 29.333 10.5 55.166 31.5 77.499s47.833 33.5 80.5 33.5c30 0 56.5 -9.83301 79.5 -29.5 s34.5 -46.5 34.5 -80.5c0 -33.333 -11.167 -59.666 -33.5 -78.999s-49.166 -29 -80.499 -29z" glyph-name="Udieresis" horiz-adv-x="1218" unicode="Ü"/><glyph d="M699 0h-261v576l-465 789h298l324 -563l310 563h236l-442 -789v-576zM829 1800l66 -150l-417 -176l-42 107z" glyph-name="Yacute" horiz-adv-x="1113" unicode="Ý"/><glyph d="M396 0l-246 -0.00195312v1365h246v-191h313c159.333 0 277.5 -40.167 354.5 -120.5s115.5 -175.166 115.5 -284.499c0 -125.333 -41.833 -226.666 -125.5 -303.999s-189.167 -116 -316.5 -116h-341v-349zM396 560.998h291.001c75.333 0 133.166 18.667 173.499 56 s60.5 87.333 60.5 150c0 49.333 -17.167 95.333 -51.5 138s-102.5 64 -204.5 64h-269v-408z" glyph-name="Thorn" horiz-adv-x="1241" unicode="Þ"/><glyph d="M371 -94l-228.003 0.000976562v830h-111v179h111c2.66699 210.667 49.334 354.834 140.001 432.501s197 116.5 319 116.5c108.667 0 200.5 -30.167 275.5 -90.5s112.5 -136.5 112.5 -228.5c0 -168.667 -117 -272.667 -351 -312c-17.333 -16.667 -26 -29.334 -26 -38.001 c0 -17.333 34.333 -38 103 -62c4 -1.33301 42.5 -18.333 115.5 -51s126 -64 159 -94s59 -66.333 78 -109s28.5 -88.667 28.5 -138c0 -108.667 -39.167 -200.167 -117.5 -274.5s-180.166 -111.5 -305.499 -111.5c-66.667 0 -135.667 12.667 -207 38l50 154 c40 -12 84.667 -18 134 -18c154.667 0 232 50.333 232 151c0 35.333 -13.5 68.833 -40.5 100.5s-81.5 65.834 -163.5 102.501c-102.667 45.333 -168.167 86.166 -196.5 122.499s-42.5 77.166 -42.5 122.499c0 67.333 32.333 138.333 97 213l42 17 c68.667 25.333 115.834 50.333 141.501 75s38.5 59.667 38.5 105c0 46.667 -15.333 85.5 -46 116.5s-72 46.5 -124 46.5c-63.333 0 -115.5 -22 -156.5 -66s-61.5 -105.333 -61.5 -184v-1145z" glyph-name="germandbls" horiz-adv-x="1142" unicode="ß"/><glyph d="M1001 0h-216.999c-19.333 61.333 -31 129.333 -35 204c-60.667 -150 -174.667 -225 -342 -225c-100.667 0 -181.5 29.5 -242.5 88.5s-91.5 133.167 -91.5 222.5c0 232 203.667 348 611 348c16 0 37.667 -0.333008 65 -1v76c0 104.667 -71.333 157 -214 157 c-138.667 0 -217.334 -52.333 -236.001 -157l-194 29c10.667 84 54 153.167 130 207.5s186 81.5 330 81.5c78 0 141.667 -6.5 191 -19.5s91 -35 125 -66s57.5 -64.667 70.5 -101s19.5 -97.833 19.5 -184.5v-456c0 -66 10 -134 30 -204zM749.001 514 c-294.667 0 -442 -70.333 -442 -211c0 -42 14.833 -77.833 44.5 -107.5s74.5 -44.5 134.5 -44.5c86.667 0 152.167 27.5 196.5 82.5s66.5 117.5 66.5 187.5v93zM333.001 1487l393 -219l-42 -107l-417 176z" glyph-name="agrave" horiz-adv-x="1107" unicode="à"/><glyph d="M1001 0h-216.999c-19.333 61.333 -31 129.333 -35 204c-60.667 -150 -174.667 -225 -342 -225c-100.667 0 -181.5 29.5 -242.5 88.5s-91.5 133.167 -91.5 222.5c0 232 203.667 348 611 348c16 0 37.667 -0.333008 65 -1v76c0 104.667 -71.333 157 -214 157 c-138.667 0 -217.334 -52.333 -236.001 -157l-194 29c10.667 84 54 153.167 130 207.5s186 81.5 330 81.5c78 0 141.667 -6.5 191 -19.5s91 -35 125 -66s57.5 -64.667 70.5 -101s19.5 -97.833 19.5 -184.5v-456c0 -66 10 -134 30 -204zM749.001 514 c-294.667 0 -442 -70.333 -442 -211c0 -42 14.833 -77.833 44.5 -107.5s74.5 -44.5 134.5 -44.5c86.667 0 152.167 27.5 196.5 82.5s66.5 117.5 66.5 187.5v93zM799.001 1487l66 -150l-417 -176l-42 107z" glyph-name="aacute" horiz-adv-x="1107" unicode="á"/><glyph d="M1001 0h-216.999c-19.333 61.333 -31 129.333 -35 204c-60.667 -150 -174.667 -225 -342 -225c-100.667 0 -181.5 29.5 -242.5 88.5s-91.5 133.167 -91.5 222.5c0 232 203.667 348 611 348c16 0 37.667 -0.333008 65 -1v76c0 104.667 -71.333 157 -214 157 c-138.667 0 -217.334 -52.333 -236.001 -157l-194 29c10.667 84 54 153.167 130 207.5s186 81.5 330 81.5c78 0 141.667 -6.5 191 -19.5s91 -35 125 -66s57.5 -64.667 70.5 -101s19.5 -97.833 19.5 -184.5v-456c0 -66 10 -134 30 -204zM749.001 514 c-294.667 0 -442 -70.333 -442 -211c0 -42 14.833 -77.833 44.5 -107.5s74.5 -44.5 134.5 -44.5c86.667 0 152.167 27.5 196.5 82.5s66.5 117.5 66.5 187.5v93zM565.001 1476l347 -288l-180 -21l-167 132l-167 -132l-181 21z" glyph-name="acircumflex" horiz-adv-x="1107" unicode="â"/><glyph d="M1001 0h-216.999c-19.333 61.333 -31 129.333 -35 204c-60.667 -150 -174.667 -225 -342 -225c-100.667 0 -181.5 29.5 -242.5 88.5s-91.5 133.167 -91.5 222.5c0 232 203.667 348 611 348c16 0 37.667 -0.333008 65 -1v76c0 104.667 -71.333 157 -214 157 c-138.667 0 -217.334 -52.333 -236.001 -157l-194 29c10.667 84 54 153.167 130 207.5s186 81.5 330 81.5c78 0 141.667 -6.5 191 -19.5s91 -35 125 -66s57.5 -64.667 70.5 -101s19.5 -97.833 19.5 -184.5v-456c0 -66 10 -134 30 -204zM749.001 514 c-294.667 0 -442 -70.333 -442 -211c0 -42 14.833 -77.833 44.5 -107.5s74.5 -44.5 134.5 -44.5c86.667 0 152.167 27.5 196.5 82.5s66.5 117.5 66.5 187.5v93zM821.001 1421l70.001 -103.001c-16 -33.333 -45.333 -61.166 -88 -83.499s-80.667 -33.5 -114 -33.5 c-40.667 0 -91.334 15.667 -152.001 47c-46 24 -80 36 -102 36c-31.333 0 -73.333 -26 -126 -78l-69 103c62 76.667 129 115 201 115c34.667 0 79.667 -13 135 -39c60 -28 104.667 -42 134 -42c40.667 0 77.667 26 111 78z" glyph-name="atilde" horiz-adv-x="1107" unicode="ã"/><glyph d="M1001 0h-216.999c-19.333 61.333 -31 129.333 -35 204c-60.667 -150 -174.667 -225 -342 -225c-100.667 0 -181.5 29.5 -242.5 88.5s-91.5 133.167 -91.5 222.5c0 232 203.667 348 611 348c16 0 37.667 -0.333008 65 -1v76c0 104.667 -71.333 157 -214 157 c-138.667 0 -217.334 -52.333 -236.001 -157l-194 29c10.667 84 54 153.167 130 207.5s186 81.5 330 81.5c78 0 141.667 -6.5 191 -19.5s91 -35 125 -66s57.5 -64.667 70.5 -101s19.5 -97.833 19.5 -184.5v-456c0 -66 10 -134 30 -204zM749.001 514 c-294.667 0 -442 -70.333 -442 -211c0 -42 14.833 -77.833 44.5 -107.5s74.5 -44.5 134.5 -44.5c86.667 0 152.167 27.5 196.5 82.5s66.5 117.5 66.5 187.5v93zM396.001 1188c-32 0 -58.5029 10.5 -79.5029 31.5s-31.5 46.167 -31.5 75.5s10.333 55.166 31 77.499 s47.334 33.5 80.001 33.5c30.667 0 57.334 -9.83301 80.001 -29.5s34 -46.5 34 -80.5c0 -33.333 -11.167 -59.666 -33.5 -78.999s-49.166 -29 -80.499 -29zM730.998 1188c-32.667 0 -59.501 10.667 -80.501 32s-31.5 46.333 -31.5 75c0 29.333 10.5 55.166 31.5 77.499 s47.833 33.5 80.5 33.5c30 0 56.5 -9.83301 79.5 -29.5s34.5 -46.5 34.5 -80.5c0 -33.333 -11.167 -59.666 -33.5 -78.999s-49.166 -29 -80.499 -29z" glyph-name="adieresis" horiz-adv-x="1107" unicode="ä"/><glyph d="M1001 0h-216.999c-19.333 61.333 -31 129.333 -35 204c-60.667 -150 -174.667 -225 -342 -225c-100.667 0 -181.5 29.5 -242.5 88.5s-91.5 133.167 -91.5 222.5c0 232 203.667 348 611 348c16 0 37.667 -0.333008 65 -1v76c0 104.667 -71.333 157 -214 157 c-138.667 0 -217.334 -52.333 -236.001 -157l-194 29c10.667 84 54 153.167 130 207.5s186 81.5 330 81.5c78 0 141.667 -6.5 191 -19.5s91 -35 125 -66s57.5 -64.667 70.5 -101s19.5 -97.833 19.5 -184.5v-456c0 -66 10 -134 30 -204zM749.001 514 c-294.667 0 -442 -70.333 -442 -211c0 -42 14.833 -77.833 44.5 -107.5s74.5 -44.5 134.5 -44.5c86.667 0 152.167 27.5 196.5 82.5s66.5 117.5 66.5 187.5v93zM564.001 1133c-51.333 0 -94.999 18 -130.999 54s-54 79.667 -54 131s18.167 95.333 54.5 132 s79.833 55 130.5 55c46 0 88.5 -16.333 127.5 -49s58.5 -79.667 58.5 -141c0 -48 -17.833 -90.333 -53.5 -127s-79.834 -55 -132.501 -55zM565.002 1237c28 0 48.666 8.5 61.999 25.5s20 34.5 20 52.5c0 25.333 -7.16699 46 -21.5 62s-33.166 24 -56.499 24 c-22.667 0 -42.667 -7 -60 -21s-26 -34.333 -26 -61c0 -22 7 -41.167 21 -57.5s34.333 -24.5 61 -24.5z" glyph-name="aring" horiz-adv-x="1107" unicode="å"/><glyph d="M1685 472h-712.002c1.33301 -96 22.5 -172.333 63.5 -229s103.5 -85 187.5 -85c112.667 0 189.667 53.667 231 161l211 -35c-23.333 -86.667 -77.666 -159.167 -162.999 -217.5s-183.666 -87.5 -294.999 -87.5c-87.333 0 -166.833 19 -238.5 57s-124.167 89 -157.5 153 c-91.333 -140 -215.666 -210 -372.999 -210c-118 0 -208.5 29.333 -271.5 88s-94.5 133 -94.5 223c0 113.333 52.333 198.333 157 255s249.667 85 435 85c24.667 0 54.667 -1.66699 90 -5c-1.33301 70 -5.5 117.5 -12.5 142.5s-26.5 47.167 -58.5 66.5s-79.333 29 -142 29 c-122 0 -195.667 -46.667 -221 -140l-203 25c48 188.667 200 283 456 283c70 0 127 -7.83301 171 -23.5s96 -46.167 156 -91.5c90 76.667 195.333 115 316 115c151.333 0 267.166 -47 347.499 -141s120.5 -213.333 120.5 -358v-60zM1449 625 c-4 82.667 -28.332 144.167 -72.999 184.5s-98.334 60.5 -161.001 60.5c-136 0 -214.333 -81.667 -235 -245h469zM752.999 503c-162.667 -4.66699 -275.167 -23.168 -337.5 -55.501s-93.5 -82.166 -93.5 -149.499c0 -48 16 -85 48 -111s72.333 -39 121 -39 c57.333 0 109 16.667 155 50s75.333 72.5 88 117.5s19 107.5 19 187.5z" glyph-name="ae" horiz-adv-x="1757" unicode="æ"/><glyph d="M514 -20l-20.998 -72.999c68 0 120.667 -15.333 158 -46s56 -68.334 56 -113.001c0 -43.333 -18.167 -81.5 -54.5 -114.5s-82.833 -49.5 -139.5 -49.5c-49.333 0 -117 19.667 -203 59l32 78c58.667 -31.333 110.334 -47 155.001 -47c23.333 0 42.666 6.66699 57.999 20 s23 29.333 23 48c0 57.333 -50.667 86 -152 86c-10.667 0 -26 -0.666992 -46 -2l52 159c-114.667 18 -203.334 75.5 -266.001 172.5s-94 212.833 -94 347.5c0 152 41 277.667 123 377s191.333 149 328 149c220 0 351 -116 393 -348l-196 -27 c-17.333 125.333 -79 188 -185 188c-77.333 0 -133.5 -33.833 -168.5 -101.5s-52.5 -149.5 -52.5 -245.5c0 -102 18.167 -180.667 54.5 -236s87.166 -83 152.499 -83c100 0 166.333 64.333 199 193l196 -20c-49.333 -241.333 -183.333 -365 -402 -371z" glyph-name="ccedilla" horiz-adv-x="954" unicode="ç"/><glyph d="M779 322l206 -28c-26.667 -91.333 -78.667 -166.666 -156 -225.999s-174.333 -89 -291 -89c-140 0 -252.667 47 -338 141s-128 221.333 -128 382c0 152.667 43 279 129 379s202.667 150 350 150c144 0 255.333 -49.333 334 -148s118 -225.334 118 -380.001l-1 -26h-693 c0 -68.667 6.5 -123.667 19.5 -165s38.833 -77.333 77.5 -108s87 -46 145 -46c112.667 0 188.667 54.667 228 164zM765 624c-0.666992 72.667 -22.5 132 -65.5 178s-96.167 69 -159.5 69c-62.667 0 -115 -21.5 -157 -64.5s-66.667 -103.833 -74 -182.5h456zM326 1487 l393 -219l-42 -107l-417 176z" glyph-name="egrave" horiz-adv-x="1074" unicode="è"/><glyph d="M779 322l206 -28c-26.667 -91.333 -78.667 -166.666 -156 -225.999s-174.333 -89 -291 -89c-140 0 -252.667 47 -338 141s-128 221.333 -128 382c0 152.667 43 279 129 379s202.667 150 350 150c144 0 255.333 -49.333 334 -148s118 -225.334 118 -380.001l-1 -26h-693 c0 -68.667 6.5 -123.667 19.5 -165s38.833 -77.333 77.5 -108s87 -46 145 -46c112.667 0 188.667 54.667 228 164zM765 624c-0.666992 72.667 -22.5 132 -65.5 178s-96.167 69 -159.5 69c-62.667 0 -115 -21.5 -157 -64.5s-66.667 -103.833 -74 -182.5h456zM785 1487 l66 -150l-417 -176l-42 107z" glyph-name="eacute" horiz-adv-x="1074" unicode="é"/><glyph d="M779 322l206 -28c-26.667 -91.333 -78.667 -166.666 -156 -225.999s-174.333 -89 -291 -89c-140 0 -252.667 47 -338 141s-128 221.333 -128 382c0 152.667 43 279 129 379s202.667 150 350 150c144 0 255.333 -49.333 334 -148s118 -225.334 118 -380.001l-1 -26h-693 c0 -68.667 6.5 -123.667 19.5 -165s38.833 -77.333 77.5 -108s87 -46 145 -46c112.667 0 188.667 54.667 228 164zM765 624c-0.666992 72.667 -22.5 132 -65.5 178s-96.167 69 -159.5 69c-62.667 0 -115 -21.5 -157 -64.5s-66.667 -103.833 -74 -182.5h456zM565 1476 l347 -288l-180 -21l-167 132l-167 -132l-181 21z" glyph-name="ecircumflex" horiz-adv-x="1074" unicode="ê"/><glyph d="M779 322l206 -28c-26.667 -91.333 -78.667 -166.666 -156 -225.999s-174.333 -89 -291 -89c-140 0 -252.667 47 -338 141s-128 221.333 -128 382c0 152.667 43 279 129 379s202.667 150 350 150c144 0 255.333 -49.333 334 -148s118 -225.334 118 -380.001l-1 -26h-693 c0 -68.667 6.5 -123.667 19.5 -165s38.833 -77.333 77.5 -108s87 -46 145 -46c112.667 0 188.667 54.667 228 164zM765 624c-0.666992 72.667 -22.5 132 -65.5 178s-96.167 69 -159.5 69c-62.667 0 -115 -21.5 -157 -64.5s-66.667 -103.833 -74 -182.5h456zM396 1188 c-32 0 -58.5029 10.5 -79.5029 31.5s-31.5 46.167 -31.5 75.5s10.333 55.166 31 77.499s47.334 33.5 80.001 33.5c30.667 0 57.334 -9.83301 80.001 -29.5s34 -46.5 34 -80.5c0 -33.333 -11.167 -59.666 -33.5 -78.999s-49.166 -29 -80.499 -29zM730.997 1188 c-32.667 0 -59.501 10.667 -80.501 32s-31.5 46.333 -31.5 75c0 29.333 10.5 55.166 31.5 77.499s47.833 33.5 80.5 33.5c30 0 56.5 -9.83301 79.5 -29.5s34.5 -46.5 34.5 -80.5c0 -33.333 -11.167 -59.666 -33.5 -78.999s-49.166 -29 -80.499 -29z" glyph-name="edieresis" horiz-adv-x="1074" unicode="ë"/><glyph d="M364 0h-228v1010h228v-1010zM32 1487l393 -219l-42 -107l-417 176z" glyph-name="igrave" horiz-adv-x="501" unicode="ì"/><glyph d="M364 0h-228v1010h228v-1010zM510 1487l66 -150l-417 -176l-42 107z" glyph-name="iacute" horiz-adv-x="501" unicode="í"/><glyph d="M364 0h-228v1010h228v-1010zM252 1476l347 -288l-180 -21l-167 132l-167 -132l-181 21z" glyph-name="icircumflex" horiz-adv-x="501" unicode="î"/><glyph d="M364 0h-228v1010h228v-1010zM80 1188c-32 0 -58.5029 10.5 -79.5029 31.5s-31.5 46.167 -31.5 75.5s10.333 55.166 31 77.499s47.334 33.5 80.001 33.5c30.667 0 57.334 -9.83301 80.001 -29.5s34 -46.5 34 -80.5c0 -33.333 -11.167 -59.666 -33.5 -78.999 s-49.166 -29 -80.499 -29zM414.997 1188c-32.667 0 -59.501 10.667 -80.501 32s-31.5 46.333 -31.5 75c0 29.333 10.5 55.166 31.5 77.499s47.833 33.5 80.5 33.5c30 0 56.5 -9.83301 79.5 -29.5s34.5 -46.5 34.5 -80.5c0 -33.333 -11.167 -59.666 -33.5 -78.999 s-49.166 -29 -80.499 -29z" glyph-name="idieresis" horiz-adv-x="501" unicode="ï"/><glyph d="M325 1170l170.002 88.998c-36 24.667 -97.667 56.334 -185 95.001l42 80c86.667 -19.333 177 -56 271 -110l195 96l72 -78l-177 -90c198.667 -203.333 298 -445.666 298 -726.999c0 -167.333 -44.833 -299.833 -134.5 -397.5s-202.834 -146.5 -339.501 -146.5 c-148.667 0 -263.334 52 -344.001 156s-121 227 -121 369c0 137.333 42.5 256 127.5 356s184.5 150 298.5 150c92.667 0 171 -39.333 235 -118c-28 106.667 -79.333 202.667 -154 288l-194 -96zM546.002 821.998c-88 0 -149.667 -35 -185 -105s-53 -140.333 -53 -211 c0 -91.333 17.833 -171 53.5 -239s94.167 -102 175.5 -102c73.333 0 129.833 29.167 169.5 87.5s59.5 138.5 59.5 240.5c0 106.667 -21 188.167 -63 244.5s-94.333 84.5 -157 84.5z" glyph-name="eth" horiz-adv-x="1083" unicode="ð"/><glyph d="M973 0l-228 -0.000976562v631c0 66.667 -15.333 116.834 -46 150.501s-67.667 50.5 -111 50.5c-59.333 0 -111.333 -26 -156 -78s-67 -130.333 -67 -235v-519h-228v1010h208v-234c72.667 170 174.667 255 306 255c88.667 0 164.5 -28 227.5 -84s94.5 -154.333 94.5 -295 v-652zM797 1421l70.001 -103.001c-16 -33.333 -45.333 -61.166 -88 -83.499s-80.667 -33.5 -114 -33.5c-40.667 0 -91.334 15.667 -152.001 47c-46 24 -80 36 -102 36c-31.333 0 -73.333 -26 -126 -78l-69 103c62 76.667 129 115 201 115c34.667 0 79.667 -13 135 -39 c60 -28 104.667 -42 134 -42c40.667 0 77.667 26 111 78z" glyph-name="ntilde" horiz-adv-x="1109" unicode="ñ"/><glyph d="M532 -21c-149.333 0 -263.333 53.6689 -342 161.002s-118 230.333 -118 369c0 149.333 43.5 273.666 130.5 372.999s201.833 149 344.5 149c135.333 0 246.5 -48.333 333.5 -145s130.5 -222.334 130.5 -377.001c0 -159.333 -45.167 -287.5 -135.5 -384.5 s-204.833 -145.5 -343.5 -145.5zM540 167.002c153.333 0 230 114.333 230 343c0 103.333 -18.333 184.833 -55 244.5s-93 89.5 -169 89.5c-78.667 0 -137 -30.833 -175 -92.5s-57 -143.5 -57 -245.5c0 -110 20.167 -194 60.5 -252s95.5 -87 165.5 -87zM310 1487l393 -219 l-42 -107l-417 176z" glyph-name="ograve" horiz-adv-x="1083" unicode="ò"/><glyph d="M532 -21c-149.333 0 -263.333 53.6689 -342 161.002s-118 230.333 -118 369c0 149.333 43.5 273.666 130.5 372.999s201.833 149 344.5 149c135.333 0 246.5 -48.333 333.5 -145s130.5 -222.334 130.5 -377.001c0 -159.333 -45.167 -287.5 -135.5 -384.5 s-204.833 -145.5 -343.5 -145.5zM540 167.002c153.333 0 230 114.333 230 343c0 103.333 -18.333 184.833 -55 244.5s-93 89.5 -169 89.5c-78.667 0 -137 -30.833 -175 -92.5s-57 -143.5 -57 -245.5c0 -110 20.167 -194 60.5 -252s95.5 -87 165.5 -87zM787 1487l66 -150 l-417 -176l-42 107z" glyph-name="oacute" horiz-adv-x="1083" unicode="ó"/><glyph d="M532 -21c-149.333 0 -263.333 53.6689 -342 161.002s-118 230.333 -118 369c0 149.333 43.5 273.666 130.5 372.999s201.833 149 344.5 149c135.333 0 246.5 -48.333 333.5 -145s130.5 -222.334 130.5 -377.001c0 -159.333 -45.167 -287.5 -135.5 -384.5 s-204.833 -145.5 -343.5 -145.5zM540 167.002c153.333 0 230 114.333 230 343c0 103.333 -18.333 184.833 -55 244.5s-93 89.5 -169 89.5c-78.667 0 -137 -30.833 -175 -92.5s-57 -143.5 -57 -245.5c0 -110 20.167 -194 60.5 -252s95.5 -87 165.5 -87zM549 1476l347 -288 l-180 -21l-167 132l-167 -132l-181 21z" glyph-name="ocircumflex" horiz-adv-x="1083" unicode="ô"/><glyph d="M532 -21c-149.333 0 -263.333 53.6689 -342 161.002s-118 230.333 -118 369c0 149.333 43.5 273.666 130.5 372.999s201.833 149 344.5 149c135.333 0 246.5 -48.333 333.5 -145s130.5 -222.334 130.5 -377.001c0 -159.333 -45.167 -287.5 -135.5 -384.5 s-204.833 -145.5 -343.5 -145.5zM540 167.002c153.333 0 230 114.333 230 343c0 103.333 -18.333 184.833 -55 244.5s-93 89.5 -169 89.5c-78.667 0 -137 -30.833 -175 -92.5s-57 -143.5 -57 -245.5c0 -110 20.167 -194 60.5 -252s95.5 -87 165.5 -87zM818 1421 l70.001 -103.001c-16 -33.333 -45.333 -61.166 -88 -83.499s-80.667 -33.5 -114 -33.5c-40.667 0 -91.334 15.667 -152.001 47c-46 24 -80 36 -102 36c-31.333 0 -73.333 -26 -126 -78l-69 103c62 76.667 129 115 201 115c34.667 0 79.667 -13 135 -39 c60 -28 104.667 -42 134 -42c40.667 0 77.667 26 111 78z" glyph-name="otilde" horiz-adv-x="1083" unicode="õ"/><glyph d="M532 -21c-149.333 0 -263.333 53.6689 -342 161.002s-118 230.333 -118 369c0 149.333 43.5 273.666 130.5 372.999s201.833 149 344.5 149c135.333 0 246.5 -48.333 333.5 -145s130.5 -222.334 130.5 -377.001c0 -159.333 -45.167 -287.5 -135.5 -384.5 s-204.833 -145.5 -343.5 -145.5zM540 167.002c153.333 0 230 114.333 230 343c0 103.333 -18.333 184.833 -55 244.5s-93 89.5 -169 89.5c-78.667 0 -137 -30.833 -175 -92.5s-57 -143.5 -57 -245.5c0 -110 20.167 -194 60.5 -252s95.5 -87 165.5 -87zM380 1188 c-32 0 -58.5029 10.5 -79.5029 31.5s-31.5 46.167 -31.5 75.5s10.333 55.166 31 77.499s47.334 33.5 80.001 33.5c30.667 0 57.334 -9.83301 80.001 -29.5s34 -46.5 34 -80.5c0 -33.333 -11.167 -59.666 -33.5 -78.999s-49.166 -29 -80.499 -29zM714.997 1188 c-32.667 0 -59.501 10.667 -80.501 32s-31.5 46.333 -31.5 75c0 29.333 10.5 55.166 31.5 77.499s47.833 33.5 80.5 33.5c30 0 56.5 -9.83301 79.5 -29.5s34.5 -46.5 34.5 -80.5c0 -33.333 -11.167 -59.666 -33.5 -78.999s-49.166 -29 -80.499 -29z" glyph-name="odieresis" horiz-adv-x="1083" unicode="ö"/><glyph d="M722 1036c0 -34 -12 -63.001 -36 -87.001s-52.667 -36 -86 -36c-34 0 -63 11.833 -87 35.5s-36 52.834 -36 87.501c0 33.333 12 62 36 86s53 36 87 36c33.333 0 62 -12 86 -36s36 -52.667 36 -86zM1107 784.999v-191h-1012v191h1012zM722 339.999 c0 -33.333 -12 -62 -36 -86s-52.667 -36 -86 -36c-34 0 -63 12 -87 36s-36 52.667 -36 86c0 34 12 63 36 87s53 36 87 36c33.333 0 62 -12 86 -36s36 -53 36 -87z" glyph-name="divide" horiz-adv-x="1201" unicode="÷"/><glyph d="M883 883c51.333 -66 85.499 -126.333 102.499 -181s25.5 -119 25.5 -193c0 -160.667 -45.167 -289.167 -135.5 -385.5s-206.166 -144.5 -347.499 -144.5c-88 0 -166 21.667 -234 65l-80 -110h-142l132 188c-87.333 108.667 -131 238 -131 388 c0 148.667 43.167 272.667 129.5 372s202.833 149 349.5 149c90 0 171.333 -23 244 -69l73 97h142zM340.999 310l334.999 489c-31.333 30 -77.666 45 -138.999 45c-69.333 0 -123.833 -29.833 -163.5 -89.5s-59.5 -139.5 -59.5 -239.5c0 -72.667 9 -141 27 -205z M739.998 694l-324 -486c38 -27.333 79.667 -41 125 -41c152.667 0 229 116.667 229 350c0 74 -10 133 -30 177z" glyph-name="oslash" horiz-adv-x="1083" unicode="ø"/><glyph d="M968 0l-212 0.000976562v218c-57.333 -159.333 -163.666 -239 -318.999 -239c-92 0 -165 28.5 -219 85.5s-81 136.5 -81 238.5v707h233v-658c0 -72.667 16 -120.334 48 -143.001s63.333 -34 94 -34c49.333 0 99.666 22.167 150.999 66.5s77 138.833 77 283.5v485h228 v-1010zM321 1487l393 -219l-42 -107l-417 176z" glyph-name="ugrave" horiz-adv-x="1105" unicode="ù"/><glyph d="M968 0l-212 0.000976562v218c-57.333 -159.333 -163.666 -239 -318.999 -239c-92 0 -165 28.5 -219 85.5s-81 136.5 -81 238.5v707h233v-658c0 -72.667 16 -120.334 48 -143.001s63.333 -34 94 -34c49.333 0 99.666 22.167 150.999 66.5s77 138.833 77 283.5v485h228 v-1010zM798 1487l66 -150l-417 -176l-42 107z" glyph-name="uacute" horiz-adv-x="1105" unicode="ú"/><glyph d="M968 0l-212 0.000976562v218c-57.333 -159.333 -163.666 -239 -318.999 -239c-92 0 -165 28.5 -219 85.5s-81 136.5 -81 238.5v707h233v-658c0 -72.667 16 -120.334 48 -143.001s63.333 -34 94 -34c49.333 0 99.666 22.167 150.999 66.5s77 138.833 77 283.5v485h228 v-1010zM553 1476l347 -288l-180 -21l-167 132l-167 -132l-181 21z" glyph-name="ucircumflex" horiz-adv-x="1105" unicode="û"/><glyph d="M968 0l-212 0.000976562v218c-57.333 -159.333 -163.666 -239 -318.999 -239c-92 0 -165 28.5 -219 85.5s-81 136.5 -81 238.5v707h233v-658c0 -72.667 16 -120.334 48 -143.001s63.333 -34 94 -34c49.333 0 99.666 22.167 150.999 66.5s77 138.833 77 283.5v485h228 v-1010zM384 1188c-32 0 -58.5029 10.5 -79.5029 31.5s-31.5 46.167 -31.5 75.5s10.333 55.166 31 77.499s47.334 33.5 80.001 33.5c30.667 0 57.334 -9.83301 80.001 -29.5s34 -46.5 34 -80.5c0 -33.333 -11.167 -59.666 -33.5 -78.999s-49.166 -29 -80.499 -29z M718.997 1188c-32.667 0 -59.501 10.667 -80.501 32s-31.5 46.333 -31.5 75c0 29.333 10.5 55.166 31.5 77.499s47.833 33.5 80.5 33.5c30 0 56.5 -9.83301 79.5 -29.5s34.5 -46.5 34.5 -80.5c0 -33.333 -11.167 -59.666 -33.5 -78.999s-49.166 -29 -80.499 -29z" glyph-name="udieresis" horiz-adv-x="1105" unicode="ü"/><glyph d="M891 1010l-393 -1150c-24 -70.667 -56.833 -125.5 -98.5 -164.5s-100.5 -58.5 -176.5 -58.5c-30 0 -73.667 2.33301 -131 7v181l109 -2c48 0 83.5 7.83301 106.5 23.5s41.167 43.5 54.5 83.5s20 63.333 20 70c0 4 -7 24.667 -21 62l-347 948h239l245 -666l211 666h182z M719 1487l66 -150l-417 -176l-42 107z" glyph-name="yacute" horiz-adv-x="905" unicode="ý"/><glyph d="M365 -341l-228 -0.000976562v1706h228v-510c64 117.333 162.333 176 295 176c120 0 211.167 -51.667 273.5 -155s93.5 -224.666 93.5 -363.999c0 -143.333 -31.667 -268 -95 -374s-158 -159 -284 -159c-130 0 -224.333 54 -283 162v-482zM365 413.999 c0 -74 21.499 -135 64.499 -183s91.833 -72 146.5 -72c72.667 0 125.834 31.833 159.501 95.5s50.5 144.5 50.5 242.5c0 107.333 -17.667 192 -53 254s-85.333 93 -150 93c-60.667 0 -112.167 -26.333 -154.5 -79s-63.5 -121.667 -63.5 -207v-144z" glyph-name="thorn" horiz-adv-x="1098" unicode="þ"/><glyph d="M891 1010l-393 -1150c-24 -70.667 -56.833 -125.5 -98.5 -164.5s-100.5 -58.5 -176.5 -58.5c-30 0 -73.667 2.33301 -131 7v181l109 -2c48 0 83.5 7.83301 106.5 23.5s41.167 43.5 54.5 83.5s20 63.333 20 70c0 4 -7 24.667 -21 62l-347 948h239l245 -666l211 666h182z M304 1188c-32 0 -58.5029 10.5 -79.5029 31.5s-31.5 46.167 -31.5 75.5s10.333 55.166 31 77.499s47.334 33.5 80.001 33.5c30.667 0 57.334 -9.83301 80.001 -29.5s34 -46.5 34 -80.5c0 -33.333 -11.167 -59.666 -33.5 -78.999s-49.166 -29 -80.499 -29zM638.997 1188 c-32.667 0 -59.501 10.667 -80.501 32s-31.5 46.333 -31.5 75c0 29.333 10.5 55.166 31.5 77.499s47.833 33.5 80.5 33.5c30 0 56.5 -9.83301 79.5 -29.5s34.5 -46.5 34.5 -80.5c0 -33.333 -11.167 -59.666 -33.5 -78.999s-49.166 -29 -80.499 -29z" glyph-name="ydieresis" horiz-adv-x="905" unicode="ÿ"/><glyph d="M1221 0h-263l-109 325h-525l-107 -325h-210l453 1365h303zM783 522l-199 609l-199 -609h398zM915 1680v-130h-602v130h602z" glyph-name="Amacron" horiz-adv-x="1235" unicode="Ā"/><glyph d="M1001 0h-216.999c-19.333 61.333 -31 129.333 -35 204c-60.667 -150 -174.667 -225 -342 -225c-100.667 0 -181.5 29.5 -242.5 88.5s-91.5 133.167 -91.5 222.5c0 232 203.667 348 611 348c16 0 37.667 -0.333008 65 -1v76c0 104.667 -71.333 157 -214 157 c-138.667 0 -217.334 -52.333 -236.001 -157l-194 29c10.667 84 54 153.167 130 207.5s186 81.5 330 81.5c78 0 141.667 -6.5 191 -19.5s91 -35 125 -66s57.5 -64.667 70.5 -101s19.5 -97.833 19.5 -184.5v-456c0 -66 10 -134 30 -204zM749.001 514 c-294.667 0 -442 -70.333 -442 -211c0 -42 14.833 -77.833 44.5 -107.5s74.5 -44.5 134.5 -44.5c86.667 0 152.167 27.5 196.5 82.5s66.5 117.5 66.5 187.5v93zM866.001 1352v-130h-602v130h602z" glyph-name="amacron" horiz-adv-x="1107" unicode="ā"/><glyph d="M1221 0h-263l-109 325h-525l-107 -325h-210l453 1365h303zM783 522l-199 609l-199 -609h398zM310 1766h130.999c12 -88 70.333 -132 175 -132c101.333 0 158 44 170 132h131c-3.33301 -76.667 -32.666 -141.5 -87.999 -194.5s-128 -79.5 -218 -79.5 c-86 0 -157 25 -213 75s-85.333 116.333 -88 199z" glyph-name="Abreve" horiz-adv-x="1235" unicode="Ă"/><glyph d="M1001 0h-216.999c-19.333 61.333 -31 129.333 -35 204c-60.667 -150 -174.667 -225 -342 -225c-100.667 0 -181.5 29.5 -242.5 88.5s-91.5 133.167 -91.5 222.5c0 232 203.667 348 611 348c16 0 37.667 -0.333008 65 -1v76c0 104.667 -71.333 157 -214 157 c-138.667 0 -217.334 -52.333 -236.001 -157l-194 29c10.667 84 54 153.167 130 207.5s186 81.5 330 81.5c78 0 141.667 -6.5 191 -19.5s91 -35 125 -66s57.5 -64.667 70.5 -101s19.5 -97.833 19.5 -184.5v-456c0 -66 10 -134 30 -204zM749.001 514 c-294.667 0 -442 -70.333 -442 -211c0 -42 14.833 -77.833 44.5 -107.5s74.5 -44.5 134.5 -44.5c86.667 0 152.167 27.5 196.5 82.5s66.5 117.5 66.5 187.5v93zM261.001 1455h130.999c12 -88 70.333 -132 175 -132c101.333 0 158 44 170 132h131 c-3.33301 -76.667 -32.666 -141.5 -87.999 -194.5s-128 -79.5 -218 -79.5c-86 0 -157 25 -213 75s-85.333 116.333 -88 199z" glyph-name="abreve" horiz-adv-x="1107" unicode="ă"/><glyph d="M849 325l-525.001 0.00195312l-107 -325h-210l453 1365h303l458 -1365c-99.333 -50.667 -149 -105.334 -149 -164.001c0 -64.667 41.333 -97 124 -97c30 0 60.667 6.33301 92 19l21 -81c-53.333 -24 -108.666 -36 -165.999 -36c-66 0 -118.167 14.167 -156.5 42.5 s-57.5 68.166 -57.5 119.499c0 87.333 58.333 153 175 197h-146zM782.999 522.002l-199 609l-199 -609h398z" glyph-name="Aogonek" horiz-adv-x="1235" unicode="Ą"/><glyph d="M784 0c-19.333 61.333 -31.001 129.332 -35.001 203.999c-60.667 -150 -174.667 -225 -342 -225c-100.667 0 -181.5 29.5 -242.5 88.5s-91.5 133.167 -91.5 222.5c0 232 203.667 348 611 348c16 0 37.667 -0.333008 65 -1v76c0 104.667 -71.333 157 -214 157 c-138.667 0 -217.334 -52.333 -236.001 -157l-194 29c10.667 84 54 153.167 130 207.5s186 81.5 330 81.5c78 0 141.667 -6.5 191 -19.5s91 -35 125 -66s57.5 -64.667 70.5 -101s19.5 -97.833 19.5 -184.5v-456c0 -66 10 -134 30 -204 c-95.333 -50.667 -143 -104.667 -143 -162c0 -27.333 9.5 -49.5 28.5 -66.5s45.5 -25.5 79.5 -25.5c26.667 0 56.334 6 89.001 18l20 -73c-51.333 -23.333 -104.666 -35 -159.999 -35c-60 0 -108 14.333 -144 43s-54 65.334 -54 110.001c0 79.333 58 143 174 191h-107z M748.999 513.999c-294.667 0 -442 -70.333 -442 -211c0 -42 14.833 -77.833 44.5 -107.5s74.5 -44.5 134.5 -44.5c86.667 0 152.167 27.5 196.5 82.5s66.5 117.5 66.5 187.5v93z" glyph-name="aogonek" horiz-adv-x="1107" unicode="ą"/><glyph d="M913 474l227.999 -25.001c-14.667 -136.667 -67.5 -249.167 -158.5 -337.5s-210.5 -132.5 -358.5 -132.5c-124.667 0 -225.834 31.333 -303.501 94s-137.5 147.667 -179.5 255s-63 225.666 -63 354.999c0 208 49.333 377.167 148 507.5s234.334 195.5 407.001 195.5 c135.333 0 248 -41.667 338 -125s146.667 -202.666 170 -357.999l-228 -24c-42 206 -134.667 309 -278 309c-92 0 -163.5 -42.833 -214.5 -128.5s-76.5 -209.834 -76.5 -372.501c0 -165.333 27.333 -290.166 82 -374.499s127 -126.5 217 -126.5c72 0 133.333 28.333 184 85 s79.334 124.334 86.001 203.001zM891.999 1800l66 -150l-417 -176l-42 107z" glyph-name="Cacute" horiz-adv-x="1186" unicode="Ć"/><glyph d="M720 371l196.002 -19.999c-25.333 -126.667 -74.333 -220.334 -147 -281.001s-160.334 -91 -263.001 -91c-139.333 0 -246.5 50.833 -321.5 152.5s-112.5 226.167 -112.5 373.5c0 152 41 277.667 123 377s191.333 149 328 149c220 0 351 -116 393 -348l-196 -27 c-17.333 125.333 -79 188 -185 188c-77.333 0 -133.5 -33.833 -168.5 -101.5s-52.5 -149.5 -52.5 -245.5c0 -102 18.167 -180.667 54.5 -236s87.166 -83 152.499 -83c100 0 166.333 64.333 199 193zM774.002 1487l66 -150l-417 -176l-42 107z" glyph-name="cacute" horiz-adv-x="954" unicode="ć"/><glyph d="M913 474l227.999 -25.001c-14.667 -136.667 -67.5 -249.167 -158.5 -337.5s-210.5 -132.5 -358.5 -132.5c-124.667 0 -225.834 31.333 -303.501 94s-137.5 147.667 -179.5 255s-63 225.666 -63 354.999c0 208 49.333 377.167 148 507.5s234.334 195.5 407.001 195.5 c135.333 0 248 -41.667 338 -125s146.667 -202.666 170 -357.999l-228 -24c-42 206 -134.667 309 -278 309c-92 0 -163.5 -42.833 -214.5 -128.5s-76.5 -209.834 -76.5 -372.501c0 -165.333 27.333 -290.166 82 -374.499s127 -126.5 217 -126.5c72 0 133.333 28.333 184 85 s79.334 124.334 86.001 203.001zM643.999 1790l347 -288l-180 -21l-167 132l-167 -132l-181 21z" glyph-name="Ccircumflex" horiz-adv-x="1186" unicode="Ĉ"/><glyph d="M720 371l196.002 -19.999c-25.333 -126.667 -74.333 -220.334 -147 -281.001s-160.334 -91 -263.001 -91c-139.333 0 -246.5 50.833 -321.5 152.5s-112.5 226.167 -112.5 373.5c0 152 41 277.667 123 377s191.333 149 328 149c220 0 351 -116 393 -348l-196 -27 c-17.333 125.333 -79 188 -185 188c-77.333 0 -133.5 -33.833 -168.5 -101.5s-52.5 -149.5 -52.5 -245.5c0 -102 18.167 -180.667 54.5 -236s87.166 -83 152.499 -83c100 0 166.333 64.333 199 193zM529.002 1476l347 -288l-180 -21l-167 132l-167 -132l-181 21z" glyph-name="ccircumflex" horiz-adv-x="954" unicode="ĉ"/><glyph d="M913 474l227.999 -25.001c-14.667 -136.667 -67.5 -249.167 -158.5 -337.5s-210.5 -132.5 -358.5 -132.5c-124.667 0 -225.834 31.333 -303.501 94s-137.5 147.667 -179.5 255s-63 225.666 -63 354.999c0 208 49.333 377.167 148 507.5s234.334 195.5 407.001 195.5 c135.333 0 248 -41.667 338 -125s146.667 -202.666 170 -357.999l-228 -24c-42 206 -134.667 309 -278 309c-92 0 -163.5 -42.833 -214.5 -128.5s-76.5 -209.834 -76.5 -372.501c0 -165.333 27.333 -290.166 82 -374.499s127 -126.5 217 -126.5c72 0 133.333 28.333 184 85 s79.334 124.334 86.001 203.001zM641.999 1512c-32 0 -58.5029 10.5 -79.5029 31.5s-31.5 46.167 -31.5 75.5s10.333 55.166 31 77.499s47.334 33.5 80.001 33.5c30.667 0 57.334 -9.83301 80.001 -29.5s34 -46.5 34 -80.5c0 -33.333 -11.167 -59.666 -33.5 -78.999 s-49.166 -29 -80.499 -29z" glyph-name="Cdot" horiz-adv-x="1186" unicode="Ċ"/><glyph d="M720 371l196.002 -19.999c-25.333 -126.667 -74.333 -220.334 -147 -281.001s-160.334 -91 -263.001 -91c-139.333 0 -246.5 50.833 -321.5 152.5s-112.5 226.167 -112.5 373.5c0 152 41 277.667 123 377s191.333 149 328 149c220 0 351 -116 393 -348l-196 -27 c-17.333 125.333 -79 188 -185 188c-77.333 0 -133.5 -33.833 -168.5 -101.5s-52.5 -149.5 -52.5 -245.5c0 -102 18.167 -180.667 54.5 -236s87.166 -83 152.499 -83c100 0 166.333 64.333 199 193zM534.002 1188c-32 0 -58.5029 10.5 -79.5029 31.5 s-31.5 46.167 -31.5 75.5s10.333 55.166 31 77.499s47.334 33.5 80.001 33.5c30.667 0 57.334 -9.83301 80.001 -29.5s34 -46.5 34 -80.5c0 -33.333 -11.167 -59.666 -33.5 -78.999s-49.166 -29 -80.499 -29z" glyph-name="cdot" horiz-adv-x="954" unicode="ċ"/><glyph d="M913 474l227.999 -25.001c-14.667 -136.667 -67.5 -249.167 -158.5 -337.5s-210.5 -132.5 -358.5 -132.5c-124.667 0 -225.834 31.333 -303.501 94s-137.5 147.667 -179.5 255s-63 225.666 -63 354.999c0 208 49.333 377.167 148 507.5s234.334 195.5 407.001 195.5 c135.333 0 248 -41.667 338 -125s146.667 -202.666 170 -357.999l-228 -24c-42 206 -134.667 309 -278 309c-92 0 -163.5 -42.833 -214.5 -128.5s-76.5 -209.834 -76.5 -372.501c0 -165.333 27.333 -290.166 82 -374.499s127 -126.5 217 -126.5c72 0 133.333 28.333 184 85 s79.334 124.334 86.001 203.001zM643.999 1468l-348 288l181 20l167 -131l167 131l180 -20z" glyph-name="Ccaron" horiz-adv-x="1186" unicode="Č"/><glyph d="M720 371l196.002 -19.999c-25.333 -126.667 -74.333 -220.334 -147 -281.001s-160.334 -91 -263.001 -91c-139.333 0 -246.5 50.833 -321.5 152.5s-112.5 226.167 -112.5 373.5c0 152 41 277.667 123 377s191.333 149 328 149c220 0 351 -116 393 -348l-196 -27 c-17.333 125.333 -79 188 -185 188c-77.333 0 -133.5 -33.833 -168.5 -101.5s-52.5 -149.5 -52.5 -245.5c0 -102 18.167 -180.667 54.5 -236s87.166 -83 152.499 -83c100 0 166.333 64.333 199 193zM535.002 1154l-348 288l181 20l167 -131l167 131l180 -20z" glyph-name="ccaron" horiz-adv-x="954" unicode="č"/><glyph d="M143 0v1365h503c186 0 335.333 -65.833 448 -197.5s169 -294.167 169 -487.5s-58 -355 -174 -485s-282 -195 -498 -195h-448zM396 201l205 0.000976562c110 0 203.333 41.333 280 124s115 205.667 115 369c0 133.333 -33.5 246.166 -100.5 338.499 s-155.5 138.5 -265.5 138.5h-234v-970zM605 1468l-348 288l181 20l167 -131l167 131l180 -20z" glyph-name="Dcaron" horiz-adv-x="1341" unicode="Ď"/><glyph d="M967 0l-213.001 0.000976562v204c-58.667 -150 -158 -225 -298 -225c-124 0 -219 51.667 -285 155s-99 231.666 -99 384.999c0 142.667 34.333 267 103 373s166.334 159 293.001 159c130 0 220.333 -59.333 271 -178v492h228v-1365zM738.999 596.001 c0 82 -19.5 145.835 -58.5 191.502s-89.5 68.5 -151.5 68.5c-67.333 0 -120 -29.333 -158 -88s-57 -146.334 -57 -263.001c0 -225.333 70.667 -338 212 -338c56 0 105.5 24.167 148.5 72.5s64.5 110.166 64.5 185.499v171zM1323 1365l-176 -397h-91l62 397h205z" glyph-name="dcaron" horiz-adv-x="1322" unicode="ď"/><glyph d="M7 601v191h137v573h503c186 0 335.167 -65.667 447.5 -197s168.5 -294 168.5 -488c0 -192.667 -57.833 -354.167 -173.5 -484.5s-281.5 -195.5 -497.5 -195.5h-448v601h-137zM396 601l-0.000976562 -400h206c110 0 203.333 41.5 280 124.5s115 206.167 115 369.5 c0 132.667 -33.667 245.167 -101 337.5s-155.666 138.5 -264.999 138.5h-235v-379h337v-191h-337z" glyph-name="Dslash" horiz-adv-x="1341" unicode="Đ"/><glyph d="M739 1365l227.999 0.000976562v-116h137v-123h-137v-1126h-213v204c-58.667 -150 -158 -225 -298 -225c-124 0 -219 51.667 -285 155s-99 231.666 -99 384.999c0 142.667 34.333 267 103 373s166.334 159 293.001 159c130 0 220.333 -59.333 271 -178v253h-273v123h273 v116zM738.999 596.001c0 90 -21.332 155.835 -63.999 197.502s-91.334 62.5 -146.001 62.5c-67.333 0 -120 -29.333 -158 -88s-57 -146.334 -57 -263.001c0 -225.333 70.333 -338 211 -338c56.667 0 106.5 24.167 149.5 72.5s64.5 110.166 64.5 185.499v171z" glyph-name="dmacron" horiz-adv-x="1103" unicode="đ"/><glyph d="M1037 0h-887v1365h878v-203h-632v-370h508v-198h-508v-382h641v-212zM901 1680v-130h-602v130h602z" glyph-name="Emacron" horiz-adv-x="1099" unicode="Ē"/><glyph d="M779 322l206 -28c-26.667 -91.333 -78.667 -166.666 -156 -225.999s-174.333 -89 -291 -89c-140 0 -252.667 47 -338 141s-128 221.333 -128 382c0 152.667 43 279 129 379s202.667 150 350 150c144 0 255.333 -49.333 334 -148s118 -225.334 118 -380.001l-1 -26h-693 c0 -68.667 6.5 -123.667 19.5 -165s38.833 -77.333 77.5 -108s87 -46 145 -46c112.667 0 188.667 54.667 228 164zM765 624c-0.666992 72.667 -22.5 132 -65.5 178s-96.167 69 -159.5 69c-62.667 0 -115 -21.5 -157 -64.5s-66.667 -103.833 -74 -182.5h456zM866 1352v-130 h-602v130h602z" glyph-name="emacron" horiz-adv-x="1074" unicode="ē"/><glyph d="M1037 0h-887v1365h878v-203h-632v-370h508v-198h-508v-382h641v-212zM297 1766h130.999c12 -88 70.333 -132 175 -132c101.333 0 158 44 170 132h131c-3.33301 -76.667 -32.666 -141.5 -87.999 -194.5s-128 -79.5 -218 -79.5c-86 0 -157 25 -213 75 s-85.333 116.333 -88 199z" glyph-name="Ebreve" horiz-adv-x="1099" unicode="Ĕ"/><glyph d="M779 322l206 -28c-26.667 -91.333 -78.667 -166.666 -156 -225.999s-174.333 -89 -291 -89c-140 0 -252.667 47 -338 141s-128 221.333 -128 382c0 152.667 43 279 129 379s202.667 150 350 150c144 0 255.333 -49.333 334 -148s118 -225.334 118 -380.001l-1 -26h-693 c0 -68.667 6.5 -123.667 19.5 -165s38.833 -77.333 77.5 -108s87 -46 145 -46c112.667 0 188.667 54.667 228 164zM765 624c-0.666992 72.667 -22.5 132 -65.5 178s-96.167 69 -159.5 69c-62.667 0 -115 -21.5 -157 -64.5s-66.667 -103.833 -74 -182.5h456zM261 1455 h130.999c12 -88 70.333 -132 175 -132c101.333 0 158 44 170 132h131c-3.33301 -76.667 -32.666 -141.5 -87.999 -194.5s-128 -79.5 -218 -79.5c-86 0 -157 25 -213 75s-85.333 116.333 -88 199z" glyph-name="ebreve" horiz-adv-x="1074" unicode="ĕ"/><glyph d="M1037 0h-887v1365h878v-203h-632v-370h508v-198h-508v-382h641v-212zM599 1512c-32 0 -58.5029 10.5 -79.5029 31.5s-31.5 46.167 -31.5 75.5s10.333 55.166 31 77.499s47.334 33.5 80.001 33.5c30.667 0 57.334 -9.83301 80.001 -29.5s34 -46.5 34 -80.5 c0 -33.333 -11.167 -59.666 -33.5 -78.999s-49.166 -29 -80.499 -29z" glyph-name="Edot" horiz-adv-x="1099" unicode="Ė"/><glyph d="M779 322l206 -28c-26.667 -91.333 -78.667 -166.666 -156 -225.999s-174.333 -89 -291 -89c-140 0 -252.667 47 -338 141s-128 221.333 -128 382c0 152.667 43 279 129 379s202.667 150 350 150c144 0 255.333 -49.333 334 -148s118 -225.334 118 -380.001l-1 -26h-693 c0 -68.667 6.5 -123.667 19.5 -165s38.833 -77.333 77.5 -108s87 -46 145 -46c112.667 0 188.667 54.667 228 164zM765 624c-0.666992 72.667 -22.5 132 -65.5 178s-96.167 69 -159.5 69c-62.667 0 -115 -21.5 -157 -64.5s-66.667 -103.833 -74 -182.5h456zM563 1188 c-32 0 -58.5029 10.5 -79.5029 31.5s-31.5 46.167 -31.5 75.5s10.333 55.166 31 77.499s47.334 33.5 80.001 33.5c30.667 0 57.334 -9.83301 80.001 -29.5s34 -46.5 34 -80.5c0 -33.333 -11.167 -59.666 -33.5 -78.999s-49.166 -29 -80.499 -29z" glyph-name="edot" horiz-adv-x="1074" unicode="ė"/><glyph d="M150 0v1365h878v-203h-632v-370h508v-198h-508v-382h641v-212c-98.667 -50.667 -148 -105.334 -148 -164.001c0 -64.667 41 -97 123 -97c30 0 61 6.33301 93 19l20 -81c-53.333 -24 -108.333 -36 -165 -36c-64 0 -115.833 14 -155.5 42s-59.5 68 -59.5 120 c0 87.333 58.667 153 176 197h-771z" glyph-name="Eogonek" horiz-adv-x="1099" unicode="Ę"/><glyph d="M853 -229l20.998 -72.9961c-50 -23.333 -103.333 -35 -160 -35c-59.333 0 -107.333 14.167 -144 42.5s-55 64.833 -55 109.5c0 69.333 46 127.666 138 174.999c-45.333 -6.66699 -84.666 -10 -117.999 -10c-144.667 0 -258 48.667 -340 146s-123 222.666 -123 375.999 c0 152.667 43 279 129 379s202.667 150 350 150c144 0 255.333 -49.333 334 -148s118 -225.334 118 -380.001l-1 -26h-693c0 -68.667 6.5 -123.667 19.5 -165s38.833 -77.333 77.5 -108s87 -46 145 -46c112.667 0 188.667 54.667 228 164l206 -28 c-23.333 -87.333 -89 -174.333 -197 -261c-88 -70.667 -132 -134.334 -132 -191.001c0 -24.667 9.5 -45.667 28.5 -63s45.5 -26 79.5 -26c26.667 0 56.334 6 89.001 18zM764.998 624.004c-0.666992 72.667 -22.5 132 -65.5 178s-96.167 69 -159.5 69 c-62.667 0 -115 -21.5 -157 -64.5s-66.667 -103.833 -74 -182.5h456z" glyph-name="eogonek" horiz-adv-x="1074" unicode="ę"/><glyph d="M1037 0h-887v1365h878v-203h-632v-370h508v-198h-508v-382h641v-212zM601 1468l-348 288l181 20l167 -131l167 131l180 -20z" glyph-name="Ecaron" horiz-adv-x="1099" unicode="Ě"/><glyph d="M779 322l206 -28c-26.667 -91.333 -78.667 -166.666 -156 -225.999s-174.333 -89 -291 -89c-140 0 -252.667 47 -338 141s-128 221.333 -128 382c0 152.667 43 279 129 379s202.667 150 350 150c144 0 255.333 -49.333 334 -148s118 -225.334 118 -380.001l-1 -26h-693 c0 -68.667 6.5 -123.667 19.5 -165s38.833 -77.333 77.5 -108s87 -46 145 -46c112.667 0 188.667 54.667 228 164zM765 624c-0.666992 72.667 -22.5 132 -65.5 178s-96.167 69 -159.5 69c-62.667 0 -115 -21.5 -157 -64.5s-66.667 -103.833 -74 -182.5h456zM565 1154 l-348 288l181 20l167 -131l167 131l180 -20z" glyph-name="ecaron" horiz-adv-x="1074" unicode="ě"/><glyph d="M1186 698v-697.999h-109l-75 184c-79.333 -136.667 -202.333 -205 -369 -205c-186 0 -324.833 70.667 -416.5 212s-137.5 305 -137.5 491c0 196.667 51.167 363.167 153.5 499.5s245.5 204.5 429.5 204.5c137.333 0 250.333 -39.833 339 -119.5 s144.667 -178.834 168 -297.501l-214 -38c-40 166.667 -135.667 250 -287 250c-96.667 0 -175.5 -39.333 -236.5 -118s-91.5 -199.667 -91.5 -363c0 -344.667 108 -517 324 -517c84 0 153.5 29 208.5 87s82.5 134.667 82.5 230h-282v198h513zM681 1790l347 -288l-180 -21 l-167 132l-167 -132l-181 21z" glyph-name="Gcircumflex" horiz-adv-x="1315" unicode="Ĝ"/><glyph d="M1058 1203l-0.00195312 -174.999h-70c-30.667 0 -57.5 -3.66699 -80.5 -11s-45.5 -31 -67.5 -71c80 -65.333 120 -138 120 -218c0 -89.333 -37.5 -163.333 -112.5 -222s-174.167 -88 -297.5 -88c-53.333 0 -115.666 8.66699 -186.999 26 c-46.667 -21.333 -70 -54.333 -70 -99c0 -24.667 11.333 -47.334 34 -68.001s57 -31 103 -31h300c102.667 0 183.167 -26.5 241.5 -79.5s87.5 -118.833 87.5 -197.5c0 -95.333 -44.167 -174.333 -132.5 -237s-219.166 -94 -392.499 -94c-326 0 -489 91 -489 273 c0 90 49 158.333 147 205c-62.667 53.333 -94 109 -94 167c0 88 53.667 158 161 210c-93.333 56.667 -140 134.667 -140 234c0 84 34.333 155.667 103 215s173 89 313 89c64 0 129 -7 195 -21c30.667 128.667 111.667 193 243 193h85zM539.998 553.001 c124 0 186 58.332 186 174.999c0 44.667 -15.5 82.334 -46.5 113.001s-76.167 46 -135.5 46c-60 0 -106.5 -16 -139.5 -48s-49.5 -72 -49.5 -120c0 -49.333 16.333 -89.333 49 -120s78 -46 136 -46zM289.998 55c-32.667 -30 -49 -59 -49 -87c0 -46 27.333 -86.5 82 -121.5 s141.667 -52.5 261 -52.5c175.333 0 263 45 263 135c0 33.333 -15.333 58.5 -46 75.5s-65.667 25.5 -105 25.5h-242c-46 0 -100.667 8.33301 -164 25zM571.998 1564l347 -288l-180 -21l-167 132l-167 -132l-181 21z" glyph-name="gcircumflex" horiz-adv-x="1061" unicode="ĝ"/><glyph d="M1186 698v-697.999h-109l-75 184c-79.333 -136.667 -202.333 -205 -369 -205c-186 0 -324.833 70.667 -416.5 212s-137.5 305 -137.5 491c0 196.667 51.167 363.167 153.5 499.5s245.5 204.5 429.5 204.5c137.333 0 250.333 -39.833 339 -119.5 s144.667 -178.834 168 -297.501l-214 -38c-40 166.667 -135.667 250 -287 250c-96.667 0 -175.5 -39.333 -236.5 -118s-91.5 -199.667 -91.5 -363c0 -344.667 108 -517 324 -517c84 0 153.5 29 208.5 87s82.5 134.667 82.5 230h-282v198h513zM370 1766h130.999 c12 -88 70.333 -132 175 -132c101.333 0 158 44 170 132h131c-3.33301 -76.667 -32.666 -141.5 -87.999 -194.5s-128 -79.5 -218 -79.5c-86 0 -157 25 -213 75s-85.333 116.333 -88 199z" glyph-name="Gbreve" horiz-adv-x="1315" unicode="Ğ"/><glyph d="M1058 1203l-0.00195312 -174.999h-70c-30.667 0 -57.5 -3.66699 -80.5 -11s-45.5 -31 -67.5 -71c80 -65.333 120 -138 120 -218c0 -89.333 -37.5 -163.333 -112.5 -222s-174.167 -88 -297.5 -88c-53.333 0 -115.666 8.66699 -186.999 26 c-46.667 -21.333 -70 -54.333 -70 -99c0 -24.667 11.333 -47.334 34 -68.001s57 -31 103 -31h300c102.667 0 183.167 -26.5 241.5 -79.5s87.5 -118.833 87.5 -197.5c0 -95.333 -44.167 -174.333 -132.5 -237s-219.166 -94 -392.499 -94c-326 0 -489 91 -489 273 c0 90 49 158.333 147 205c-62.667 53.333 -94 109 -94 167c0 88 53.667 158 161 210c-93.333 56.667 -140 134.667 -140 234c0 84 34.333 155.667 103 215s173 89 313 89c64 0 129 -7 195 -21c30.667 128.667 111.667 193 243 193h85zM539.998 553.001 c124 0 186 58.332 186 174.999c0 44.667 -15.5 82.334 -46.5 113.001s-76.167 46 -135.5 46c-60 0 -106.5 -16 -139.5 -48s-49.5 -72 -49.5 -120c0 -49.333 16.333 -89.333 49 -120s78 -46 136 -46zM289.998 55c-32.667 -30 -49 -59 -49 -87c0 -46 27.333 -86.5 82 -121.5 s141.667 -52.5 261 -52.5c175.333 0 263 45 263 135c0 33.333 -15.333 58.5 -46 75.5s-65.667 25.5 -105 25.5h-242c-46 0 -100.667 8.33301 -164 25zM227.998 1505h130.999c12 -88 70.333 -132 175 -132c101.333 0 158 44 170 132h131 c-3.33301 -76.667 -32.666 -141.5 -87.999 -194.5s-128 -79.5 -218 -79.5c-86 0 -157 25 -213 75s-85.333 116.333 -88 199z" glyph-name="gbreve" horiz-adv-x="1061" unicode="ğ"/><glyph d="M1186 698v-697.999h-109l-75 184c-79.333 -136.667 -202.333 -205 -369 -205c-186 0 -324.833 70.667 -416.5 212s-137.5 305 -137.5 491c0 196.667 51.167 363.167 153.5 499.5s245.5 204.5 429.5 204.5c137.333 0 250.333 -39.833 339 -119.5 s144.667 -178.834 168 -297.501l-214 -38c-40 166.667 -135.667 250 -287 250c-96.667 0 -175.5 -39.333 -236.5 -118s-91.5 -199.667 -91.5 -363c0 -344.667 108 -517 324 -517c84 0 153.5 29 208.5 87s82.5 134.667 82.5 230h-282v198h513zM675 1512 c-32 0 -58.5029 10.5 -79.5029 31.5s-31.5 46.167 -31.5 75.5s10.333 55.166 31 77.499s47.334 33.5 80.001 33.5c30.667 0 57.334 -9.83301 80.001 -29.5s34 -46.5 34 -80.5c0 -33.333 -11.167 -59.666 -33.5 -78.999s-49.166 -29 -80.499 -29z" glyph-name="Gdot" horiz-adv-x="1315" unicode="Ġ"/><glyph d="M1058 1203l-0.00195312 -174.999h-70c-30.667 0 -57.5 -3.66699 -80.5 -11s-45.5 -31 -67.5 -71c80 -65.333 120 -138 120 -218c0 -89.333 -37.5 -163.333 -112.5 -222s-174.167 -88 -297.5 -88c-53.333 0 -115.666 8.66699 -186.999 26 c-46.667 -21.333 -70 -54.333 -70 -99c0 -24.667 11.333 -47.334 34 -68.001s57 -31 103 -31h300c102.667 0 183.167 -26.5 241.5 -79.5s87.5 -118.833 87.5 -197.5c0 -95.333 -44.167 -174.333 -132.5 -237s-219.166 -94 -392.499 -94c-326 0 -489 91 -489 273 c0 90 49 158.333 147 205c-62.667 53.333 -94 109 -94 167c0 88 53.667 158 161 210c-93.333 56.667 -140 134.667 -140 234c0 84 34.333 155.667 103 215s173 89 313 89c64 0 129 -7 195 -21c30.667 128.667 111.667 193 243 193h85zM539.998 553.001 c124 0 186 58.332 186 174.999c0 44.667 -15.5 82.334 -46.5 113.001s-76.167 46 -135.5 46c-60 0 -106.5 -16 -139.5 -48s-49.5 -72 -49.5 -120c0 -49.333 16.333 -89.333 49 -120s78 -46 136 -46zM289.998 55c-32.667 -30 -49 -59 -49 -87c0 -46 27.333 -86.5 82 -121.5 s141.667 -52.5 261 -52.5c175.333 0 263 45 263 135c0 33.333 -15.333 58.5 -46 75.5s-65.667 25.5 -105 25.5h-242c-46 0 -100.667 8.33301 -164 25zM528.998 1188c-32 0 -58.5029 10.5 -79.5029 31.5s-31.5 46.167 -31.5 75.5s10.333 55.166 31 77.499 s47.334 33.5 80.001 33.5c30.667 0 57.334 -9.83301 80.001 -29.5s34 -46.5 34 -80.5c0 -33.333 -11.167 -59.666 -33.5 -78.999s-49.166 -29 -80.499 -29z" glyph-name="gdot" horiz-adv-x="1061" unicode="ġ"/><glyph d="M1186 698v-697.999h-109l-75 184c-79.333 -136.667 -202.333 -205 -369 -205c-186 0 -324.833 70.667 -416.5 212s-137.5 305 -137.5 491c0 196.667 51.167 363.167 153.5 499.5s245.5 204.5 429.5 204.5c137.333 0 250.333 -39.833 339 -119.5 s144.667 -178.834 168 -297.501l-214 -38c-40 166.667 -135.667 250 -287 250c-96.667 0 -175.5 -39.333 -236.5 -118s-91.5 -199.667 -91.5 -363c0 -344.667 108 -517 324 -517c84 0 153.5 29 208.5 87s82.5 134.667 82.5 230h-282v198h513zM776 -108.999l-176 -370h-91 l61 370h206z" glyph-name="Gcedilla" horiz-adv-x="1315" unicode="Ģ"/><glyph d="M1058 1203l-0.00195312 -174.999h-70c-30.667 0 -57.5 -3.66699 -80.5 -11s-45.5 -31 -67.5 -71c80 -65.333 120 -138 120 -218c0 -89.333 -37.5 -163.333 -112.5 -222s-174.167 -88 -297.5 -88c-53.333 0 -115.666 8.66699 -186.999 26 c-46.667 -21.333 -70 -54.333 -70 -99c0 -24.667 11.333 -47.334 34 -68.001s57 -31 103 -31h300c102.667 0 183.167 -26.5 241.5 -79.5s87.5 -118.833 87.5 -197.5c0 -95.333 -44.167 -174.333 -132.5 -237s-219.166 -94 -392.499 -94c-326 0 -489 91 -489 273 c0 90 49 158.333 147 205c-62.667 53.333 -94 109 -94 167c0 88 53.667 158 161 210c-93.333 56.667 -140 134.667 -140 234c0 84 34.333 155.667 103 215s173 89 313 89c64 0 129 -7 195 -21c30.667 128.667 111.667 193 243 193h85zM539.998 553.001 c124 0 186 58.332 186 174.999c0 44.667 -15.5 82.334 -46.5 113.001s-76.167 46 -135.5 46c-60 0 -106.5 -16 -139.5 -48s-49.5 -72 -49.5 -120c0 -49.333 16.333 -89.333 49 -120s78 -46 136 -46zM289.998 55c-32.667 -30 -49 -59 -49 -87c0 -46 27.333 -86.5 82 -121.5 s141.667 -52.5 261 -52.5c175.333 0 263 45 263 135c0 33.333 -15.333 58.5 -46 75.5s-65.667 25.5 -105 25.5h-242c-46 0 -100.667 8.33301 -164 25zM406.998 1187l176 397h91l-62 -397h-205z" glyph-name="gcedilla" horiz-adv-x="1061" unicode="ģ"/><glyph d="M1163 0h-246v593h-521v-593h-246v1365h246v-561h521v561h246v-1365zM657 1790l347 -288l-180 -21l-167 132l-167 -132l-181 21z" glyph-name="Hcircumflex" horiz-adv-x="1313" unicode="Ĥ"/><glyph d="M973 0h-228v661c0 71.333 -15.167 121.5 -45.5 150.5s-65.833 43.5 -106.5 43.5c-64.667 0 -119 -25.667 -163 -77s-66 -136 -66 -254v-524h-228v1365h228v-532c56.667 145.333 156 218 298 218c207.333 0 311 -119 311 -357v-694zM261 1790l347 -288l-180 -21l-167 132 l-167 -132l-181 21z" glyph-name="hcircumflex" horiz-adv-x="1110" unicode="ĥ"/><glyph d="M14 987v192h137v186h245v-186h522v186h246v-186h136v-192h-136v-987h-246v593h-522v-593h-245v987h-137zM396 987v-183h522v183h-522z" glyph-name="Hbar" horiz-adv-x="1313" unicode="Ħ"/><glyph d="M0 1126l0.000976562 123h137v116h228v-116h286v-123h-286v-293c56 145.333 155 218 297 218c207.333 0 311 -119 311 -357v-694h-228v661c0 71.333 -15.167 121.5 -45.5 150.5s-65.833 43.5 -106.5 43.5c-64.667 0 -118.834 -25.667 -162.501 -77s-65.5 -136 -65.5 -254 v-524h-228v1126h-137z" glyph-name="hbar" horiz-adv-x="1110" unicode="ħ"/><glyph d="M396 0h-246v1365h246v-1365zM515 1735l70.001 -103.001c-16 -33.333 -45.333 -61.166 -88 -83.499s-80.667 -33.5 -114 -33.5c-40.667 0 -91.334 15.667 -152.001 47c-46 24 -80 36 -102 36c-31.333 0 -73.333 -26 -126 -78l-69 103c62 76.667 129 115 201 115 c34.667 0 79.667 -13 135 -39c60 -28 104.667 -42 134 -42c40.667 0 77.667 26 111 78z" glyph-name="Itilde" horiz-adv-x="546" unicode="Ĩ"/><glyph d="M364 0h-228v1010h228v-1010zM506 1421l70.001 -103.001c-16 -33.333 -45.333 -61.166 -88 -83.499s-80.667 -33.5 -114 -33.5c-40.667 0 -91.334 15.667 -152.001 47c-46 24 -80 36 -102 36c-31.333 0 -73.333 -26 -126 -78l-69 103c62 76.667 129 115 201 115 c34.667 0 79.667 -13 135 -39c60 -28 104.667 -42 134 -42c40.667 0 77.667 26 111 78z" glyph-name="itilde" horiz-adv-x="501" unicode="ĩ"/><glyph d="M396 0h-246v1365h246v-1365zM629 1680v-130h-602v130h602z" glyph-name="Imacron" horiz-adv-x="546" unicode="Ī"/><glyph d="M364 0h-228v1010h228v-1010zM613 1352v-130h-602v130h602z" glyph-name="imacron" horiz-adv-x="501" unicode="ī"/><glyph d="M396 0h-246v1365h246v-1365zM-13 1783h130.999c12 -88 70.333 -132 175 -132c101.333 0 158 44 170 132h131c-3.33301 -76.667 -32.666 -141.5 -87.999 -194.5s-128 -79.5 -218 -79.5c-86 0 -157 25 -213 75s-85.333 116.333 -88 199z" glyph-name="Ibreve" horiz-adv-x="546" unicode="Ĭ"/><glyph d="M364 0h-228v1010h228v-1010zM-19 1455h130.999c12 -88 70.333 -132 175 -132c101.333 0 158 44 170 132h131c-3.33301 -76.667 -32.666 -141.5 -87.999 -194.5s-128 -79.5 -218 -79.5c-86 0 -157 25 -213 75s-85.333 116.333 -88 199z" glyph-name="ibreve" horiz-adv-x="501" unicode="ĭ"/><glyph d="M397 0c-86 -54.667 -129 -109.332 -129 -163.999c0 -28.667 10 -51.834 30 -69.501s45.333 -26.5 76 -26.5c18.667 0 44 6 76 18l21 -81c-52.667 -24 -99.667 -36 -141 -36c-60 0 -109.167 14.5 -147.5 43.5s-57.5 68.167 -57.5 117.5c0 80 51.667 146 155 198h-129v1365 h246v-1365z" glyph-name="Iogonek" horiz-adv-x="546" unicode="Į"/><glyph d="M364 1128h-228v237h228v-237zM364 0c-77.333 -58 -116.001 -112.002 -116.001 -162.002c0 -21.333 7 -41.5 21 -60.5s35 -28.5 63 -28.5c20 0 44 5 72 15l21 -73c-51.333 -23.333 -97.333 -35 -138 -35c-47.333 0 -89.166 14.333 -125.499 43s-54.5 65.334 -54.5 110.001 c0 70.667 51.333 134.334 154 191.001h-125v1010h228v-1010z" glyph-name="iogonek" horiz-adv-x="501" unicode="į"/><glyph d="M396 0h-246v1365h246v-1365zM271 1512c-32 0 -58.5029 10.5 -79.5029 31.5s-31.5 46.167 -31.5 75.5s10.333 55.166 31 77.499s47.334 33.5 80.001 33.5c30.667 0 57.334 -9.83301 80.001 -29.5s34 -46.5 34 -80.5c0 -33.333 -11.167 -59.666 -33.5 -78.999 s-49.166 -29 -80.499 -29z" glyph-name="Idotaccent" horiz-adv-x="546" unicode="İ"/><glyph d="M364 0h-228v1010h228v-1010z" glyph-name="dotlessi" horiz-adv-x="501" unicode="ı"/><glyph d="M396 0h-246v1365h246v-1365zM1156 1365l0.000976562 -941.999c0 -160.667 -34.833 -274.834 -104.5 -342.501s-174.5 -101.5 -314.5 -101.5c-90 0 -158.333 7 -205 21v198c79.333 -6 131.666 -9 156.999 -9c87.333 0 145 16.5 173 49.5s42 94.5 42 184.5v942h252z" glyph-name="IJ" horiz-adv-x="1293" unicode="Ĳ"/><glyph d="M364 1128h-228v237h228v-237zM858 1128h-228v237h228v-237zM364 0h-228v1010h228v-1010zM858 1010l0.000976562 -994c0 -252 -115.667 -378 -347 -378c-34.667 0 -73.667 4 -117 12v193c29.333 -3.33301 53.666 -5 72.999 -5c55.333 0 96.333 9.16699 123 27.5 s40 68.5 40 150.5v994h228z" glyph-name="ij" horiz-adv-x="995" unicode="ĳ"/><glyph d="M624 1365l-0.00195312 -941.999c0 -156.667 -33.833 -269.834 -101.5 -339.501s-175.5 -104.5 -323.5 -104.5c-85.333 0 -151.666 7 -198.999 21v198c74.667 -5.33301 127.334 -8 158.001 -8c82 0 138 15.333 168 46s45 93 45 187v942h253zM496.998 1790l347 -288 l-180 -21l-167 132l-167 -132l-181 21z" glyph-name="Jcircumflex" horiz-adv-x="761" unicode="Ĵ"/><glyph d="M255 1476l348 -288l-181 -21l-167 132l-167 -132l-181 21zM364 1010v-994c0 -252 -115.667 -378 -347 -378c-35.333 0 -74.333 4 -117 12v193c28.667 -3.33301 53 -5 73 -5c63.333 0 106.333 12 129 36s34 71.333 34 142v994h228z" glyph-name="jcircumflex" horiz-adv-x="501" unicode="ĵ"/><glyph d="M1223 0l-275 -0.000976562l-288 695l-264 -350v-345h-246v1365h246v-717c31.333 48.667 54 82.334 68 101.001l453 616h249l-324 -449zM765 -109.001l-176 -370h-91l61 370h206z" glyph-name="Kcedilla" horiz-adv-x="1257" unicode="Ķ"/><glyph d="M1077 0h-239.999l-258 518l-224 -251v-267h-218v1365h218v-847c19.333 25.333 34.666 44.333 45.999 57l400 435h245l-304 -334zM700.001 -109l-176 -370h-91l61 370h206z" glyph-name="kcedilla" horiz-adv-x="1090" unicode="ķ"/><glyph d="M1077 0h-239.999l-258 518l-224 -251v-267h-218v1010h218v-492c19.333 25.333 34.666 44.333 45.999 57l400 435h245l-304 -334z" glyph-name="kgreenlandic" horiz-adv-x="1090" unicode="ĸ"/><glyph d="M990 0h-840v1365h259v-1142h581v-223zM537 1800l66 -150l-417 -176l-42 107z" glyph-name="Lacute" horiz-adv-x="1021" unicode="Ĺ"/><glyph d="M364 0h-228v1365h228v-1365zM495 1800l66 -150l-417 -176l-42 107z" glyph-name="lacute" horiz-adv-x="501" unicode="ĺ"/><glyph d="M990 0h-840v1365h259v-1142h581v-223zM697 -109l-176 -370h-91l61 370h206z" glyph-name="Lcedilla" horiz-adv-x="1021" unicode="Ļ"/><glyph d="M364 0h-228v1365h228v-1365zM363 -109l-176 -370h-91l61 370h206z" glyph-name="lcedilla" horiz-adv-x="501" unicode="ļ"/><glyph d="M990 0h-840v1365h259v-1142h581v-223zM827 1413v-225l-153 -268h-74l110 268h-110v225h227z" glyph-name="Lcaron" horiz-adv-x="1021" unicode="Ľ"/><glyph d="M364 0h-228v1365h228v-1365zM720 1365l-176 -397h-91l62 397h205z" glyph-name="lcaron" horiz-adv-x="720" unicode="ľ"/><glyph d="M990 0h-840v1365h259v-1142h581v-223zM913 831v-262h-247v262h247z" glyph-name="Ldot" horiz-adv-x="1021" unicode="Ŀ"/><glyph d="M364 0h-228v1365h228v-1365zM743 831v-262h-247v262h247z" glyph-name="ldot" horiz-adv-x="736" unicode="ŀ"/><glyph d="M990 223v-223h-839v454l-137 -138v234l137 139v676h259v-500l279 281v-235l-279 -280v-408h580z" glyph-name="Lslash" horiz-adv-x="1021" unicode="Ł"/><glyph d="M372 0h-228v577l-130 -138v168l130 137v621h228v-459l129 136v-168l-129 -136v-738z" glyph-name="lslash" horiz-adv-x="515" unicode="ł"/><glyph d="M1181 0h-239l-518 872l-39 65l-37 63v-1000h-198v1365h272l478 -804l87 -147v951h194v-1365zM927 1800l66 -150l-417 -176l-42 107z" glyph-name="Nacute" horiz-adv-x="1331" unicode="Ń"/><glyph d="M973 0l-228 -0.000976562v631c0 66.667 -15.333 116.834 -46 150.501s-67.667 50.5 -111 50.5c-59.333 0 -111.333 -26 -156 -78s-67 -130.333 -67 -235v-519h-228v1010h208v-234c72.667 170 174.667 255 306 255c88.667 0 164.5 -28 227.5 -84s94.5 -154.333 94.5 -295 v-652zM788 1487l66 -150l-417 -176l-42 107z" glyph-name="nacute" horiz-adv-x="1109" unicode="ń"/><glyph d="M1181 0h-239l-518 872l-39 65l-37 63v-1000h-198v1365h272l478 -804l87 -147v951h194v-1365zM772 -109l-176 -370h-91l61 370h206z" glyph-name="Ncedilla" horiz-adv-x="1331" unicode="Ņ"/><glyph d="M973 0l-228 -0.000976562v631c0 66.667 -15.333 116.834 -46 150.501s-67.667 50.5 -111 50.5c-59.333 0 -111.333 -26 -156 -78s-67 -130.333 -67 -235v-519h-228v1010h208v-234c72.667 170 174.667 255 306 255c88.667 0 164.5 -28 227.5 -84s94.5 -154.333 94.5 -295 v-652zM675 -109.001l-176 -370h-91l61 370h206z" glyph-name="ncedilla" horiz-adv-x="1109" unicode="ņ"/><glyph d="M1181 0h-239l-518 872l-39 65l-37 63v-1000h-198v1365h272l478 -804l87 -147v951h194v-1365zM666 1468l-348 288l181 20l167 -131l167 131l180 -20z" glyph-name="Ncaron" horiz-adv-x="1331" unicode="Ň"/><glyph d="M973 0l-228 -0.000976562v631c0 66.667 -15.333 116.834 -46 150.501s-67.667 50.5 -111 50.5c-59.333 0 -111.333 -26 -156 -78s-67 -130.333 -67 -235v-519h-228v1010h208v-234c72.667 170 174.667 255 306 255c88.667 0 164.5 -28 227.5 -84s94.5 -154.333 94.5 -295 v-652zM561 1154l-348 288l181 20l167 -131l167 131l180 -20z" glyph-name="ncaron" horiz-adv-x="1109" unicode="ň"/><glyph d="M1281 0l-228 -0.000976562v631c0 66.667 -15.333 116.834 -46 150.501s-67.667 50.5 -111 50.5c-59.333 0 -111.333 -26 -156 -78s-67 -130.333 -67 -235v-519h-228v1010h208v-234c72.667 170 174.667 255 306 255c88.667 0 164.5 -28 227.5 -84s94.5 -154.333 94.5 -295 v-652zM357 1365v-225l-153 -268h-74l110 268h-110v225h227z" glyph-name="napostrophe" horiz-adv-x="1417" unicode="ŉ"/><glyph d="M150 0v1365h218v-234c92 170 219.333 255 382 255c105.333 0 200.5 -34.5 285.5 -103.5s127.5 -202.833 127.5 -401.5v-778c0 -116 -13 -207 -39 -273s-73 -120.667 -141 -164s-153.667 -65 -257 -65c-49.333 0 -95 6 -137 18v186c40 -8.66699 75.333 -13 106 -13 c84 0 142 17 174 51s48 102.333 48 205v869c0 90 -21 157.667 -63 203s-92.667 68 -152 68c-82 0 -153.5 -35 -214.5 -105s-91.5 -175.667 -91.5 -317v-766h-246z" glyph-name="Eng" horiz-adv-x="1313" unicode="Ŋ"/><glyph d="M137 0l0.000976562 1010h208v-234c72.667 170 174.667 255 306 255c88.667 0 164.5 -28 227.5 -84s94.5 -154.333 94.5 -295v-679c0 -252 -116 -378 -348 -378c-34.667 0 -73.667 4 -117 12v193c29.333 -3.33301 53.666 -5 72.999 -5c63.333 0 106.5 12 129.5 36 s34.5 71.333 34.5 142v658c0 66.667 -15.333 116.834 -46 150.501s-67.667 50.5 -111 50.5c-59.333 0 -111.333 -26 -156 -78s-67 -130.333 -67 -235v-519h-228z" glyph-name="eng" horiz-adv-x="1109" unicode="ŋ"/><glyph d="M653 -21c-181.333 0 -322.5 68.001 -423.5 204.001s-151.5 304 -151.5 504c0 198.667 53.667 364.834 161 498.501s249 200.5 425 200.5c177.333 0 317.5 -66.833 420.5 -200.5s154.5 -300.834 154.5 -501.501c0 -210.667 -53.5 -380.834 -160.5 -510.501 s-248.833 -194.5 -425.5 -194.5zM655 177.001c88.667 0 163.668 36.667 225.001 110s92 206.333 92 399c0 156.667 -25.333 279.5 -76 368.5s-129.334 133.5 -236.001 133.5c-210.667 0 -316 -169.667 -316 -509c0 -164.667 26.833 -289.5 80.5 -374.5 s130.5 -127.5 230.5 -127.5zM959.001 1680v-130h-602v130h602z" glyph-name="Omacron" horiz-adv-x="1318" unicode="Ō"/><glyph d="M532 -21c-149.333 0 -263.333 53.6689 -342 161.002s-118 230.333 -118 369c0 149.333 43.5 273.666 130.5 372.999s201.833 149 344.5 149c135.333 0 246.5 -48.333 333.5 -145s130.5 -222.334 130.5 -377.001c0 -159.333 -45.167 -287.5 -135.5 -384.5 s-204.833 -145.5 -343.5 -145.5zM540 167.002c153.333 0 230 114.333 230 343c0 103.333 -18.333 184.833 -55 244.5s-93 89.5 -169 89.5c-78.667 0 -137 -30.833 -175 -92.5s-57 -143.5 -57 -245.5c0 -110 20.167 -194 60.5 -252s95.5 -87 165.5 -87zM849 1352v-130h-602 v130h602z" glyph-name="omacron" horiz-adv-x="1083" unicode="ō"/><glyph d="M653 -21c-181.333 0 -322.5 68.001 -423.5 204.001s-151.5 304 -151.5 504c0 198.667 53.667 364.834 161 498.501s249 200.5 425 200.5c177.333 0 317.5 -66.833 420.5 -200.5s154.5 -300.834 154.5 -501.501c0 -210.667 -53.5 -380.834 -160.5 -510.501 s-248.833 -194.5 -425.5 -194.5zM655 177.001c88.667 0 163.668 36.667 225.001 110s92 206.333 92 399c0 156.667 -25.333 279.5 -76 368.5s-129.334 133.5 -236.001 133.5c-210.667 0 -316 -169.667 -316 -509c0 -164.667 26.833 -289.5 80.5 -374.5 s130.5 -127.5 230.5 -127.5zM354.001 1766h130.999c12 -88 70.333 -132 175 -132c101.333 0 158 44 170 132h131c-3.33301 -76.667 -32.666 -141.5 -87.999 -194.5s-128 -79.5 -218 -79.5c-86 0 -157 25 -213 75s-85.333 116.333 -88 199z" glyph-name="Obreve" horiz-adv-x="1318" unicode="Ŏ"/><glyph d="M532 -21c-149.333 0 -263.333 53.6689 -342 161.002s-118 230.333 -118 369c0 149.333 43.5 273.666 130.5 372.999s201.833 149 344.5 149c135.333 0 246.5 -48.333 333.5 -145s130.5 -222.334 130.5 -377.001c0 -159.333 -45.167 -287.5 -135.5 -384.5 s-204.833 -145.5 -343.5 -145.5zM540 167.002c153.333 0 230 114.333 230 343c0 103.333 -18.333 184.833 -55 244.5s-93 89.5 -169 89.5c-78.667 0 -137 -30.833 -175 -92.5s-57 -143.5 -57 -245.5c0 -110 20.167 -194 60.5 -252s95.5 -87 165.5 -87zM238 1455h130.999 c12 -88 70.333 -132 175 -132c101.333 0 158 44 170 132h131c-3.33301 -76.667 -32.666 -141.5 -87.999 -194.5s-128 -79.5 -218 -79.5c-86 0 -157 25 -213 75s-85.333 116.333 -88 199z" glyph-name="obreve" horiz-adv-x="1083" unicode="ŏ"/><glyph d="M653 -21c-181.333 0 -322.5 68.001 -423.5 204.001s-151.5 304 -151.5 504c0 198.667 53.667 364.834 161 498.501s249 200.5 425 200.5c177.333 0 317.5 -66.833 420.5 -200.5s154.5 -300.834 154.5 -501.501c0 -210.667 -53.5 -380.834 -160.5 -510.501 s-248.833 -194.5 -425.5 -194.5zM655 177.001c88.667 0 163.668 36.667 225.001 110s92 206.333 92 399c0 156.667 -25.333 279.5 -76 368.5s-129.334 133.5 -236.001 133.5c-210.667 0 -316 -169.667 -316 -509c0 -164.667 26.833 -289.5 80.5 -374.5 s130.5 -127.5 230.5 -127.5zM683.001 1800l93 -116l-328 -210l-71 87zM1024 1800l94 -116l-328 -210l-60 87z" glyph-name="Odblacute" horiz-adv-x="1318" unicode="Ő"/><glyph d="M532 -21c-149.333 0 -263.333 53.6689 -342 161.002s-118 230.333 -118 369c0 149.333 43.5 273.666 130.5 372.999s201.833 149 344.5 149c135.333 0 246.5 -48.333 333.5 -145s130.5 -222.334 130.5 -377.001c0 -159.333 -45.167 -287.5 -135.5 -384.5 s-204.833 -145.5 -343.5 -145.5zM540 167.002c153.333 0 230 114.333 230 343c0 103.333 -18.333 184.833 -55 244.5s-93 89.5 -169 89.5c-78.667 0 -137 -30.833 -175 -92.5s-57 -143.5 -57 -245.5c0 -110 20.167 -194 60.5 -252s95.5 -87 165.5 -87zM600 1487l93 -116 l-328 -210l-71 87zM941 1487l94 -116l-328 -210l-60 87z" glyph-name="odblacute" horiz-adv-x="1083" unicode="ő"/><glyph d="M953 1365h911.002v-198h-665v-374h528v-195h-528v-386h665v-212h-911v69c-84.667 -60 -185 -90 -301 -90c-172 0 -310.5 67 -415.5 201s-157.5 304 -157.5 510c0 205.333 51.167 372.833 153.5 502.5s238.166 194.5 407.499 194.5c119.333 0 223.666 -27.333 312.999 -82 v60zM953.002 919c0 82 -29 147.332 -87 195.999s-123.333 73 -196 73c-83.333 0 -158.333 -34.167 -225 -102.5s-100 -196.166 -100 -383.499c0 -184 29 -315.833 87 -395.5s134 -119.5 228 -119.5c67.333 0 133 20.167 197 60.5s96 103.833 96 190.5v481z" glyph-name="OE" horiz-adv-x="1924" unicode="Œ"/><glyph d="M1656 479h-688.998c0 -104 22 -182 66 -234s103.333 -78 178 -78c112.667 0 187 51.333 223 154l208 -31c-16.667 -66.667 -62.334 -135.167 -137.001 -205.5s-176 -105.5 -304 -105.5c-158 0 -270.333 50.667 -337 152c-79.333 -101.333 -188.333 -152 -327 -152 c-154.667 0 -270.834 52.5 -348.501 157.5s-116.5 227.833 -116.5 368.5c0 149.333 42.167 274.333 126.5 375s198.5 151 342.5 151c145.333 0 253 -50.667 323 -152c73.333 101.333 187 152 341 152c139.333 0 249.833 -46.5 331.5 -139.5s121.5 -230.5 119.5 -412.5z M1424 620c-0.666992 70.667 -21.832 128.667 -63.499 174s-95.834 68 -162.501 68c-61.333 0 -113.5 -20 -156.5 -60s-67.167 -100.667 -72.5 -182h455zM531.004 167c70 0 125.667 29 167 87s62 146.333 62 265c0 126.667 -22.833 212.5 -68.5 257.5 s-98.167 67.5 -157.5 67.5c-75.333 0 -131.833 -31.667 -169.5 -95s-56.5 -147 -56.5 -251c0 -102 18.833 -182.667 56.5 -242s93.167 -89 166.5 -89z" glyph-name="oe" horiz-adv-x="1728" unicode="œ"/><glyph d="M1214 0h-260l-212 561h-346v-561h-246v1365h592c164.667 0 285.667 -37.167 363 -111.5s116 -170.5 116 -288.5c0 -175.333 -82 -296 -246 -362zM396 758l306.001 0.000976562c88.667 0 154.667 18.667 198 56s65 88.666 65 153.999c0 60 -21.333 108.5 -64 145.5 s-102.334 55.5 -179.001 55.5h-326v-411zM867.001 1801l66 -150l-417 -176l-42 107z" glyph-name="Racute" horiz-adv-x="1316" unicode="Ŕ"/><glyph d="M365 0h-227.999v1010h206v-241c29.333 94 69.666 162.667 120.999 206s104 65 158 65c7.33301 0 17.333 -0.333008 30 -1v-245c-116 0 -192.833 -37 -230.5 -111s-56.5 -145.667 -56.5 -215v-468zM653.001 1487l66 -150l-417 -176l-42 107z" glyph-name="racute" horiz-adv-x="679" unicode="ŕ"/><glyph d="M1214 0h-260l-212 561h-346v-561h-246v1365h592c164.667 0 285.667 -37.167 363 -111.5s116 -170.5 116 -288.5c0 -175.333 -82 -296 -246 -362zM396 758l306.001 0.000976562c88.667 0 154.667 18.667 198 56s65 88.666 65 153.999c0 60 -21.333 108.5 -64 145.5 s-102.334 55.5 -179.001 55.5h-326v-411zM771.001 -108.999l-176 -370h-91l61 370h206z" glyph-name="Rcedilla" horiz-adv-x="1316" unicode="Ŗ"/><glyph d="M365 0h-227.999v1010h206v-241c29.333 94 69.666 162.667 120.999 206s104 65 158 65c7.33301 0 17.333 -0.333008 30 -1v-245c-116 0 -192.833 -37 -230.5 -111s-56.5 -145.667 -56.5 -215v-468zM364.001 -109l-176 -370h-91l61 370h206z" glyph-name="rcedilla" horiz-adv-x="679" unicode="ŗ"/><glyph d="M1214 0h-260l-212 561h-346v-561h-246v1365h592c164.667 0 285.667 -37.167 363 -111.5s116 -170.5 116 -288.5c0 -175.333 -82 -296 -246 -362zM396 758l306.001 0.000976562c88.667 0 154.667 18.667 198 56s65 88.666 65 153.999c0 60 -21.333 108.5 -64 145.5 s-102.334 55.5 -179.001 55.5h-326v-411zM640.001 1468l-348 288l181 20l167 -131l167 131l180 -20z" glyph-name="Rcaron" horiz-adv-x="1316" unicode="Ř"/><glyph d="M365 0h-227.999v1010h206v-241c29.333 94 69.666 162.667 120.999 206s104 65 158 65c7.33301 0 17.333 -0.333008 30 -1v-245c-116 0 -192.833 -37 -230.5 -111s-56.5 -145.667 -56.5 -215v-468zM394.001 1154l-348 288l181 20l167 -131l167 131l180 -20z" glyph-name="rcaron" horiz-adv-x="679" unicode="ř"/><glyph d="M7 329l239.003 51c28.667 -135.333 138.667 -203 330 -203c87.333 0 154.5 17.333 201.5 52s70.5 77.667 70.5 129c0 37.333 -10.667 71.833 -32 103.5s-67 56.5 -137 74.5l-261 68c-89.333 23.333 -155.333 49.833 -198 79.5s-76.834 71.5 -102.501 125.5 s-38.5 111.667 -38.5 173c0 122 45.333 219.833 136 293.5s206.667 110.5 348 110.5c117.333 0 222.166 -25.667 314.499 -77s151.166 -124 176.499 -218l-234 -58c-36 103.333 -120 155 -252 155c-76.667 0 -135.167 -16 -175.5 -48s-60.5 -72.667 -60.5 -122 c0 -78 63.333 -132.667 190 -164l232 -58c140.667 -35.333 235 -87.5 283 -156.5s72 -145.167 72 -228.5c0 -134 -50.5 -239.5 -151.5 -316.5s-231.833 -115.5 -392.5 -115.5c-135.333 0 -253.833 28.333 -355.5 85s-169.167 145 -202.5 265zM823.003 1800l66 -150 l-417 -176l-42 107z" glyph-name="Sacute" horiz-adv-x="1170" unicode="Ś"/><glyph d="M14 232l214 41.002c32.667 -82 104.667 -123 216 -123c141.333 0 212 41.667 212 125c0 26.667 -11 48.667 -33 66s-48 29 -78 35l-184 35c-204 39.333 -306 139 -306 299c0 89.333 32.333 165.166 97 227.499s161 93.5 289 93.5c213.333 0 343.666 -78.333 390.999 -235 l-203 -41c-21.333 76 -82 114 -182 114c-121.333 0 -182 -38 -182 -114c0 -52.667 49 -89 147 -109l217 -45c168.667 -34.667 253 -131.334 253 -290.001c0 -111.333 -43.333 -194.5 -130 -249.5s-189.667 -82.5 -309 -82.5c-103.333 0 -194.666 20.833 -273.999 62.5 s-131 105.167 -155 190.5zM707 1487l66 -150l-417 -176l-42 107z" glyph-name="sacute" horiz-adv-x="930" unicode="ś"/><glyph d="M7 329l239.003 51c28.667 -135.333 138.667 -203 330 -203c87.333 0 154.5 17.333 201.5 52s70.5 77.667 70.5 129c0 37.333 -10.667 71.833 -32 103.5s-67 56.5 -137 74.5l-261 68c-89.333 23.333 -155.333 49.833 -198 79.5s-76.834 71.5 -102.501 125.5 s-38.5 111.667 -38.5 173c0 122 45.333 219.833 136 293.5s206.667 110.5 348 110.5c117.333 0 222.166 -25.667 314.499 -77s151.166 -124 176.499 -218l-234 -58c-36 103.333 -120 155 -252 155c-76.667 0 -135.167 -16 -175.5 -48s-60.5 -72.667 -60.5 -122 c0 -78 63.333 -132.667 190 -164l232 -58c140.667 -35.333 235 -87.5 283 -156.5s72 -145.167 72 -228.5c0 -134 -50.5 -239.5 -151.5 -316.5s-231.833 -115.5 -392.5 -115.5c-135.333 0 -253.833 28.333 -355.5 85s-169.167 145 -202.5 265zM579.003 1790l347 -288 l-180 -21l-167 132l-167 -132l-181 21z" glyph-name="Scircumflex" horiz-adv-x="1170" unicode="Ŝ"/><glyph d="M14 232l214 41.002c32.667 -82 104.667 -123 216 -123c141.333 0 212 41.667 212 125c0 26.667 -11 48.667 -33 66s-48 29 -78 35l-184 35c-204 39.333 -306 139 -306 299c0 89.333 32.333 165.166 97 227.499s161 93.5 289 93.5c213.333 0 343.666 -78.333 390.999 -235 l-203 -41c-21.333 76 -82 114 -182 114c-121.333 0 -182 -38 -182 -114c0 -52.667 49 -89 147 -109l217 -45c168.667 -34.667 253 -131.334 253 -290.001c0 -111.333 -43.333 -194.5 -130 -249.5s-189.667 -82.5 -309 -82.5c-103.333 0 -194.666 20.833 -273.999 62.5 s-131 105.167 -155 190.5zM462 1476l347 -288l-180 -21l-167 132l-167 -132l-181 21z" glyph-name="scircumflex" horiz-adv-x="930" unicode="ŝ"/><glyph d="M548 -21l-24.9941 -79c153.333 0 230 -53.667 230 -161c0 -47.333 -18.5 -87.666 -55.5 -120.999s-87.167 -50 -150.5 -50c-62.667 0 -137.667 20.333 -225 61l33 82c77.333 -34 132.666 -51 165.999 -51c61.333 0 92 24.333 92 73c0 58.667 -50.333 88 -151 88 c-10.667 0 -29.334 -0.666992 -56.001 -2l53 166c-248 34 -398.667 148.667 -452 344l239 51c28.667 -135.333 138.667 -203 330 -203c87.333 0 154.5 17.333 201.5 52s70.5 77.667 70.5 129c0 37.333 -10.667 71.833 -32 103.5s-67 56.5 -137 74.5l-261 68 c-89.333 23.333 -155.333 49.833 -198 79.5s-76.834 71.5 -102.501 125.5s-38.5 111.667 -38.5 173c0 122 45.333 219.833 136 293.5s206.667 110.5 348 110.5c117.333 0 222.166 -25.667 314.499 -77s151.166 -124 176.499 -218l-234 -58c-36 103.333 -120 155 -252 155 c-76.667 0 -135.167 -16 -175.5 -48s-60.5 -72.667 -60.5 -122c0 -78 63.333 -132.667 190 -164l232 -58c140.667 -35.333 235 -87.5 283 -156.5s72 -145.167 72 -228.5c0 -130.667 -49.333 -235.334 -148 -314.001s-236.334 -118 -413.001 -118z" glyph-name="Scedilla" horiz-adv-x="1170" unicode="Ş"/><glyph d="M440 -21l-20.999 -71.998c68 0 120.667 -15.333 158 -46s56 -68.334 56 -113.001c0 -43.333 -18 -81.5 -54 -114.5s-82.333 -49.5 -139 -49.5c-50 0 -117.667 19.667 -203 59l32 78c58 -31.333 109.333 -47 154 -47c23.333 0 42.666 6.66699 57.999 20s23 29.333 23 48 c0 57.333 -50.333 86 -151 86c-11.333 0 -26.666 -0.666992 -45.999 -2l52 158c-191.333 24.667 -306.333 107.334 -345 248.001l214 41c32.667 -82 104.667 -123 216 -123c141.333 0 212 41.667 212 125c0 26.667 -11 48.667 -33 66s-48 29 -78 35l-184 35 c-204 39.333 -306 139 -306 299c0 89.333 32.333 165.166 97 227.499s161 93.5 289 93.5c213.333 0 343.666 -78.333 390.999 -235l-203 -41c-21.333 76 -82 114 -182 114c-121.333 0 -182 -38 -182 -114c0 -52.667 49 -89 147 -109l217 -45 c168.667 -34.667 253 -131.334 253 -290.001c0 -110 -42.5 -192.833 -127.5 -248.5s-189.833 -83.5 -314.5 -83.5z" glyph-name="scedilla" horiz-adv-x="930" unicode="ş"/><glyph d="M7 329l239.003 51c28.667 -135.333 138.667 -203 330 -203c87.333 0 154.5 17.333 201.5 52s70.5 77.667 70.5 129c0 37.333 -10.667 71.833 -32 103.5s-67 56.5 -137 74.5l-261 68c-89.333 23.333 -155.333 49.833 -198 79.5s-76.834 71.5 -102.501 125.5 s-38.5 111.667 -38.5 173c0 122 45.333 219.833 136 293.5s206.667 110.5 348 110.5c117.333 0 222.166 -25.667 314.499 -77s151.166 -124 176.499 -218l-234 -58c-36 103.333 -120 155 -252 155c-76.667 0 -135.167 -16 -175.5 -48s-60.5 -72.667 -60.5 -122 c0 -78 63.333 -132.667 190 -164l232 -58c140.667 -35.333 235 -87.5 283 -156.5s72 -145.167 72 -228.5c0 -134 -50.5 -239.5 -151.5 -316.5s-231.833 -115.5 -392.5 -115.5c-135.333 0 -253.833 28.333 -355.5 85s-169.167 145 -202.5 265zM579.003 1468l-348 288l181 20 l167 -131l167 131l180 -20z" glyph-name="Scaron" horiz-adv-x="1170" unicode="Š"/><glyph d="M14 232l214 41.002c32.667 -82 104.667 -123 216 -123c141.333 0 212 41.667 212 125c0 26.667 -11 48.667 -33 66s-48 29 -78 35l-184 35c-204 39.333 -306 139 -306 299c0 89.333 32.333 165.166 97 227.499s161 93.5 289 93.5c213.333 0 343.666 -78.333 390.999 -235 l-203 -41c-21.333 76 -82 114 -182 114c-121.333 0 -182 -38 -182 -114c0 -52.667 49 -89 147 -109l217 -45c168.667 -34.667 253 -131.334 253 -290.001c0 -111.333 -43.333 -194.5 -130 -249.5s-189.667 -82.5 -309 -82.5c-103.333 0 -194.666 20.833 -273.999 62.5 s-131 105.167 -155 190.5zM462 1154l-348 288l181 20l167 -131l167 131l180 -20z" glyph-name="scaron" horiz-adv-x="930" unicode="š"/><glyph d="M627 0h-264v1154h-363v211h990v-211h-363v-1154zM491 0l-25.999 -92.999c68 0 120.667 -15.333 158 -46s56 -68.334 56 -113.001c0 -43.333 -18 -81.5 -54 -114.5s-82.667 -49.5 -140 -49.5c-50 0 -117.667 19.667 -203 59l32 78c58 -31.333 109.667 -47 155 -47 c23.333 0 42.666 6.66699 57.999 20s23 29.333 23 48c0 57.333 -50.667 86 -152 86c-10.667 0 -26 -0.666992 -46 -2l58 174h81z" glyph-name="Tcedilla" horiz-adv-x="990" unicode="Ţ"/><glyph d="M605 178v-177.999c-68 -14.667 -120.667 -22 -158 -22c-61.333 0 -114 12.167 -158 36.5s-76.167 57.666 -96.5 99.999s-30.5 107.5 -30.5 195.5v523h-126v177h139l21 263l187 17v-280h203v-177h-203v-493c0 -63.333 11.5 -106.5 34.5 -129.5s66.5 -34.5 130.5 -34.5 c18 0 37 0.666992 57 2zM387 0.000976562l-25.999 -92.999c68 0 120.667 -15.333 158 -46s56 -68.334 56 -113.001c0 -43.333 -18 -81.5 -54 -114.5s-82.667 -49.5 -140 -49.5c-50 0 -117.667 19.667 -203 59l32 78c58 -31.333 109.667 -47 155 -47 c23.333 0 42.666 6.66699 57.999 20s23 29.333 23 48c0 57.333 -50.667 86 -152 86c-10.667 0 -26 -0.666992 -46 -2l58 174h81z" glyph-name="tcedilla" horiz-adv-x="660" unicode="ţ"/><glyph d="M627 0h-264v1154h-363v211h990v-211h-363v-1154zM496 1468l-348 288l181 20l167 -131l167 131l180 -20z" glyph-name="Tcaron" horiz-adv-x="990" unicode="Ť"/><glyph d="M759 1517l-176 -397h-91l61 397h206zM605 178v-177.999c-68 -14.667 -120.667 -22 -158 -22c-61.333 0 -114 12.167 -158 36.5s-76.167 57.666 -96.5 99.999s-30.5 107.5 -30.5 195.5v523h-126v177h139l21 263l187 17v-280h203v-177h-203v-493 c0 -63.333 11.5 -106.5 34.5 -129.5s66.5 -34.5 130.5 -34.5c18 0 37 0.666992 57 2z" glyph-name="tcaron" horiz-adv-x="718" unicode="ť"/><glyph d="M90 699v191h273v264h-363v211h990v-211h-363v-264h273v-191h-273v-699h-264v699h-273z" glyph-name="Tbar" horiz-adv-x="990" unicode="Ŧ"/><glyph d="M43 567v122.001h119v144h-126v177h139l21 263l187 17v-280h203v-177h-203v-144h190v-122h-190v-227c0 -63.333 11.5 -106.5 34.5 -129.5s66.5 -34.5 130.5 -34.5c18 0 37 0.666992 57 2v-178c-68 -14.667 -120.667 -22 -158 -22c-61.333 0 -114 12.167 -158 36.5 s-76.167 57.666 -96.5 99.999s-30.5 107.5 -30.5 195.5v257h-119z" glyph-name="tbar" horiz-adv-x="660" unicode="ŧ"/><glyph d="M1087 1365v-877c0 -118.667 -13.333 -210 -40 -274s-78.167 -119.167 -154.5 -165.5s-169.5 -69.5 -279.5 -69.5c-111.333 0 -202.833 20 -274.5 60s-123.167 94.833 -154.5 164.5s-47 158.5 -47 266.5v895h251v-877c0 -120 25.167 -198.833 75.5 -236.5 s108.833 -56.5 175.5 -56.5c76.667 0 138 20.167 184 60.5s69 117.833 69 232.5v877h195zM908 1735l70.001 -103.001c-16 -33.333 -45.333 -61.166 -88 -83.499s-80.667 -33.5 -114 -33.5c-40.667 0 -91.334 15.667 -152.001 47c-46 24 -80 36 -102 36 c-31.333 0 -73.333 -26 -126 -78l-69 103c62 76.667 129 115 201 115c34.667 0 79.667 -13 135 -39c60 -28 104.667 -42 134 -42c40.667 0 77.667 26 111 78z" glyph-name="Utilde" horiz-adv-x="1218" unicode="Ũ"/><glyph d="M968 0l-212 0.000976562v218c-57.333 -159.333 -163.666 -239 -318.999 -239c-92 0 -165 28.5 -219 85.5s-81 136.5 -81 238.5v707h233v-658c0 -72.667 16 -120.334 48 -143.001s63.333 -34 94 -34c49.333 0 99.666 22.167 150.999 66.5s77 138.833 77 283.5v485h228 v-1010zM815 1421l70.001 -103.001c-16 -33.333 -45.333 -61.166 -88 -83.499s-80.667 -33.5 -114 -33.5c-40.667 0 -91.334 15.667 -152.001 47c-46 24 -80 36 -102 36c-31.333 0 -73.333 -26 -126 -78l-69 103c62 76.667 129 115 201 115c34.667 0 79.667 -13 135 -39 c60 -28 104.667 -42 134 -42c40.667 0 77.667 26 111 78z" glyph-name="utilde" horiz-adv-x="1105" unicode="ũ"/><glyph d="M1087 1365v-877c0 -118.667 -13.333 -210 -40 -274s-78.167 -119.167 -154.5 -165.5s-169.5 -69.5 -279.5 -69.5c-111.333 0 -202.833 20 -274.5 60s-123.167 94.833 -154.5 164.5s-47 158.5 -47 266.5v895h251v-877c0 -120 25.167 -198.833 75.5 -236.5 s108.833 -56.5 175.5 -56.5c76.667 0 138 20.167 184 60.5s69 117.833 69 232.5v877h195zM919 1680v-130h-602v130h602z" glyph-name="Umacron" horiz-adv-x="1218" unicode="Ū"/><glyph d="M968 0l-212 0.000976562v218c-57.333 -159.333 -163.666 -239 -318.999 -239c-92 0 -165 28.5 -219 85.5s-81 136.5 -81 238.5v707h233v-658c0 -72.667 16 -120.334 48 -143.001s63.333 -34 94 -34c49.333 0 99.666 22.167 150.999 66.5s77 138.833 77 283.5v485h228 v-1010zM854 1352v-130h-602v130h602z" glyph-name="umacron" horiz-adv-x="1105" unicode="ū"/><glyph d="M1087 1365v-877c0 -118.667 -13.333 -210 -40 -274s-78.167 -119.167 -154.5 -165.5s-169.5 -69.5 -279.5 -69.5c-111.333 0 -202.833 20 -274.5 60s-123.167 94.833 -154.5 164.5s-47 158.5 -47 266.5v895h251v-877c0 -120 25.167 -198.833 75.5 -236.5 s108.833 -56.5 175.5 -56.5c76.667 0 138 20.167 184 60.5s69 117.833 69 232.5v877h195zM335 1766h130.999c12 -88 70.333 -132 175 -132c101.333 0 158 44 170 132h131c-3.33301 -76.667 -32.666 -141.5 -87.999 -194.5s-128 -79.5 -218 -79.5c-86 0 -157 25 -213 75 s-85.333 116.333 -88 199z" glyph-name="Ubreve" horiz-adv-x="1218" unicode="Ŭ"/><glyph d="M968 0l-212 0.000976562v218c-57.333 -159.333 -163.666 -239 -318.999 -239c-92 0 -165 28.5 -219 85.5s-81 136.5 -81 238.5v707h233v-658c0 -72.667 16 -120.334 48 -143.001s63.333 -34 94 -34c49.333 0 99.666 22.167 150.999 66.5s77 138.833 77 283.5v485h228 v-1010zM249 1455h130.999c12 -88 70.333 -132 175 -132c101.333 0 158 44 170 132h131c-3.33301 -76.667 -32.666 -141.5 -87.999 -194.5s-128 -79.5 -218 -79.5c-86 0 -157 25 -213 75s-85.333 116.333 -88 199z" glyph-name="ubreve" horiz-adv-x="1105" unicode="ŭ"/><glyph d="M1087 1365v-877c0 -118.667 -13.333 -210 -40 -274s-78.167 -119.167 -154.5 -165.5s-169.5 -69.5 -279.5 -69.5c-111.333 0 -202.833 20 -274.5 60s-123.167 94.833 -154.5 164.5s-47 158.5 -47 266.5v895h251v-877c0 -120 25.167 -198.833 75.5 -236.5 s108.833 -56.5 175.5 -56.5c76.667 0 138 20.167 184 60.5s69 117.833 69 232.5v877h195zM618 1454c-51.333 0 -94.999 18 -130.999 54s-54 79.667 -54 131s18.167 95.333 54.5 132s79.833 55 130.5 55c46 0 88.5 -16.333 127.5 -49s58.5 -79.667 58.5 -141 c0 -48 -17.833 -90.333 -53.5 -127s-79.834 -55 -132.501 -55zM619.001 1558c28 0 48.666 8.5 61.999 25.5s20 34.5 20 52.5c0 25.333 -7.16699 46 -21.5 62s-33.166 24 -56.499 24c-22.667 0 -42.667 -7 -60 -21s-26 -34.333 -26 -61c0 -22 7 -41.167 21 -57.5 s34.333 -24.5 61 -24.5z" glyph-name="Uring" horiz-adv-x="1218" unicode="Ů"/><glyph d="M968 0l-212 0.000976562v218c-57.333 -159.333 -163.666 -239 -318.999 -239c-92 0 -165 28.5 -219 85.5s-81 136.5 -81 238.5v707h233v-658c0 -72.667 16 -120.334 48 -143.001s63.333 -34 94 -34c49.333 0 99.666 22.167 150.999 66.5s77 138.833 77 283.5v485h228 v-1010zM552 1133c-51.333 0 -94.999 18 -130.999 54s-54 79.667 -54 131s18.167 95.333 54.5 132s79.833 55 130.5 55c46 0 88.5 -16.333 127.5 -49s58.5 -79.667 58.5 -141c0 -48 -17.833 -90.333 -53.5 -127s-79.834 -55 -132.501 -55zM553.001 1237 c28 0 48.666 8.5 61.999 25.5s20 34.5 20 52.5c0 25.333 -7.16699 46 -21.5 62s-33.166 24 -56.499 24c-22.667 0 -42.667 -7 -60 -21s-26 -34.333 -26 -61c0 -22 7 -41.167 21 -57.5s34.333 -24.5 61 -24.5z" glyph-name="uring" horiz-adv-x="1105" unicode="ů"/><glyph d="M1087 1365v-877c0 -118.667 -13.333 -210 -40 -274s-78.167 -119.167 -154.5 -165.5s-169.5 -69.5 -279.5 -69.5c-111.333 0 -202.833 20 -274.5 60s-123.167 94.833 -154.5 164.5s-47 158.5 -47 266.5v895h251v-877c0 -120 25.167 -198.833 75.5 -236.5 s108.833 -56.5 175.5 -56.5c76.667 0 138 20.167 184 60.5s69 117.833 69 232.5v877h195zM640 1800l93 -116l-328 -210l-71 87zM981 1800l94 -116l-328 -210l-60 87z" glyph-name="Udblacute" horiz-adv-x="1218" unicode="Ű"/><glyph d="M968 0l-212 0.000976562v218c-57.333 -159.333 -163.666 -239 -318.999 -239c-92 0 -165 28.5 -219 85.5s-81 136.5 -81 238.5v707h233v-658c0 -72.667 16 -120.334 48 -143.001s63.333 -34 94 -34c49.333 0 99.666 22.167 150.999 66.5s77 138.833 77 283.5v485h228 v-1010zM599 1487l93 -116l-328 -210l-71 87zM940 1487l94 -116l-328 -210l-60 87z" glyph-name="udblacute" horiz-adv-x="1105" unicode="ű"/><glyph d="M965 -236l21.001 -80c-54 -24 -109.667 -36 -167 -36c-62.667 0 -113.834 14 -153.501 42s-59.5 68 -59.5 120c0 74 47.667 135.333 143 184c-54 -10 -101 -15 -141 -15c-136 0 -248.5 35.833 -337.5 107.5s-133.5 199.5 -133.5 383.5v895h251v-877 c0 -120 25.167 -198.833 75.5 -236.5s108.833 -56.5 175.5 -56.5c76.667 0 138 20.167 184 60.5s69 117.833 69 232.5v877h195v-877c0 -127.333 -12.167 -216.833 -36.5 -268.5s-77.5 -111.5 -159.5 -179.5c-52.667 -44 -89.334 -80 -110.001 -108s-31 -57.667 -31 -89 c0 -64.667 41 -97 123 -97c30.667 0 61.334 6 92.001 18z" glyph-name="Uogonek" horiz-adv-x="1218" unicode="Ų"/><glyph d="M756 0v218.001c-57.333 -159.333 -163.666 -239 -318.999 -239c-92 0 -165 28.5 -219 85.5s-81 136.5 -81 238.5v707h233v-658c0 -72.667 16 -120.334 48 -143.001s63.333 -34 94 -34c49.333 0 99.666 22.167 150.999 66.5s77 138.833 77 283.5v485h228v-1010 c-95.333 -50.667 -143 -104.667 -143 -162c0 -27.333 9.66699 -49.5 29 -66.5s45.666 -25.5 78.999 -25.5c27.333 0 57 6 89 18l21 -73c-51.333 -23.333 -104.666 -35 -159.999 -35c-60.667 0 -109 14.5 -145 43.5s-54 65.5 -54 109.5c0 79.333 58.333 143 175 191h-103z" glyph-name="uogonek" horiz-adv-x="1105" unicode="ų"/><glyph d="M1789 1365l-365 -1365h-258l-272 1004l-247 -1004h-253l-373 1365h261l264 -995l246 995h249l272 -995l259 995h217zM912 1790l347 -288l-180 -21l-167 132l-167 -132l-181 21z" glyph-name="Wcircumflex" horiz-adv-x="1809" unicode="Ŵ"/><glyph d="M1406 1010l-296 -1010h-205l-182 708l-181 -708h-211l-311 1010h242l199 -679l174 679h207l177 -679l195 679h192zM740 1476l347 -288l-180 -21l-167 132l-167 -132l-181 21z" glyph-name="wcircumflex" horiz-adv-x="1427" unicode="ŵ"/><glyph d="M699 0h-261v576l-465 789h298l324 -563l310 563h236l-442 -789v-576zM578 1790l347 -288l-180 -21l-167 132l-167 -132l-181 21z" glyph-name="Ycircumflex" horiz-adv-x="1113" unicode="Ŷ"/><glyph d="M891 1010l-393 -1150c-24 -70.667 -56.833 -125.5 -98.5 -164.5s-100.5 -58.5 -176.5 -58.5c-30 0 -73.667 2.33301 -131 7v181l109 -2c48 0 83.5 7.83301 106.5 23.5s41.167 43.5 54.5 83.5s20 63.333 20 70c0 4 -7 24.667 -21 62l-347 948h239l245 -666l211 666h182z M473 1476l347 -288l-180 -21l-167 132l-167 -132l-181 21z" glyph-name="ycircumflex" horiz-adv-x="905" unicode="ŷ"/><glyph d="M699 0h-261v576l-465 789h298l324 -563l310 563h236l-442 -789v-576zM402 1512c-32 0 -58.5029 10.5 -79.5029 31.5s-31.5 46.167 -31.5 75.5s10.333 55.166 31 77.499s47.334 33.5 80.001 33.5c30.667 0 57.334 -9.83301 80.001 -29.5s34 -46.5 34 -80.5 c0 -33.333 -11.167 -59.666 -33.5 -78.999s-49.166 -29 -80.499 -29zM736.997 1512c-32.667 0 -59.501 10.667 -80.501 32s-31.5 46.333 -31.5 75c0 29.333 10.5 55.166 31.5 77.499s47.833 33.5 80.5 33.5c30 0 56.5 -9.83301 79.5 -29.5s34.5 -46.5 34.5 -80.5 c0 -33.333 -11.167 -59.666 -33.5 -78.999s-49.166 -29 -80.499 -29z" glyph-name="Ydieresis" horiz-adv-x="1113" unicode="Ÿ"/><glyph d="M1050 212v-212h-1009v194l699 976h-650v195h940v-195l-691 -958h711zM825 1800l66 -150l-417 -176l-42 107z" glyph-name="Zacute" horiz-adv-x="1091" unicode="Ź"/><glyph d="M810 177v-177h-762v177l487 656h-441v177h716v-161l-499 -672h499zM708 1487l66 -150l-417 -176l-42 107z" glyph-name="zacute" horiz-adv-x="857" unicode="ź"/><glyph d="M1050 212v-212h-1009v194l699 976h-650v195h940v-195l-691 -958h711zM564 1512c-32 0 -58.5029 10.5 -79.5029 31.5s-31.5 46.167 -31.5 75.5s10.333 55.166 31 77.499s47.334 33.5 80.001 33.5c30.667 0 57.334 -9.83301 80.001 -29.5s34 -46.5 34 -80.5 c0 -33.333 -11.167 -59.666 -33.5 -78.999s-49.166 -29 -80.499 -29z" glyph-name="Zdot" horiz-adv-x="1091" unicode="Ż"/><glyph d="M810 177v-177h-762v177l487 656h-441v177h716v-161l-499 -672h499zM455 1188c-32 0 -58.5029 10.5 -79.5029 31.5s-31.5 46.167 -31.5 75.5s10.333 55.166 31 77.499s47.334 33.5 80.001 33.5c30.667 0 57.334 -9.83301 80.001 -29.5s34 -46.5 34 -80.5 c0 -33.333 -11.167 -59.666 -33.5 -78.999s-49.166 -29 -80.499 -29z" glyph-name="zdot" horiz-adv-x="857" unicode="ż"/><glyph d="M1050 212v-212h-1009v194l699 976h-650v195h940v-195l-691 -958h711zM567 1468l-348 288l181 20l167 -131l167 131l180 -20z" glyph-name="Zcaron" horiz-adv-x="1091" unicode="Ž"/><glyph d="M810 177v-177h-762v177l487 656h-441v177h716v-161l-499 -672h499zM456 1154l-348 288l181 20l167 -131l167 131l180 -20z" glyph-name="zcaron" horiz-adv-x="857" unicode="ž"/><glyph d="M669 0l-220 0.000976562v1010c0 92.667 8.33301 163.167 25 211.5s49.5 88.166 98.5 119.499s128.833 47 239.5 47c21.333 0 48.333 -0.666992 81 -2v-179c-28.667 2 -48.667 3 -60 3c-55.333 0 -94.333 -7.5 -117 -22.5s-36.167 -32.667 -40.5 -53 s-6.5 -61.833 -6.5 -124.5v-1010z" glyph-name="longs" horiz-adv-x="1201" unicode="ſ"/><glyph d="M967 953l-211.999 0.00195312l-134 -748c-19.333 -105.333 -35.833 -180.333 -49.5 -225s-38.5 -88.334 -74.5 -131.001s-76.5 -73.667 -121.5 -93s-109.833 -29 -194.5 -29c-40.667 0 -73.334 3 -98.001 9l35 183l55 -1c58 0 99 6.83301 123 20.5s41.5 32.667 52.5 57 s23.167 72.833 36.5 145.5l147 812h-147l28 182h152c21.333 163.333 68.833 269.666 142.5 318.999s161.167 74 262.5 74c27.333 0 67 -3.33301 119 -10l-34 -192c-30 2 -48.667 3 -56 3c-86.667 0 -141.667 -15.833 -165 -47.5s-39 -80.5 -47 -146.5h215z" glyph-name="florin" horiz-adv-x="1201" unicode="ƒ"/><glyph d="M768 1949l61 -151l-431 -146l-39 108zM464 1365c-24 32.667 -36 69 -36 109c0 52 18.167 96.333 54.5 133s79.833 55 130.5 55c46.667 0 89.5 -16.5 128.5 -49.5s58.5 -77.5 58.5 -133.5c0 -42 -12.333 -80.333 -37 -115l458 -1364h-263l-109 325h-525l-107 -325h-210 l453 1365h4zM615 1394c27.333 0 47.667 8.66797 61 26.001s20 34.666 20 51.999c0 57.333 -26 86 -78 86c-22.667 0 -42.667 -6.83301 -60 -20.5s-26 -34.167 -26 -61.5c0 -22.667 7.33301 -42 22 -58s35 -24 61 -24zM783.001 522.001l-199 609l-199 -609h398z" glyph-name="Aringacute" horiz-adv-x="1235" unicode="Ǻ"/><glyph d="M1001 0h-216.999c-19.333 61.333 -31 129.333 -35 204c-60.667 -150 -174.667 -225 -342 -225c-100.667 0 -181.5 29.5 -242.5 88.5s-91.5 133.167 -91.5 222.5c0 232 203.667 348 611 348c16 0 37.667 -0.333008 65 -1v76c0 104.667 -71.333 157 -214 157 c-138.667 0 -217.334 -52.333 -236.001 -157l-194 29c10.667 84 54 153.167 130 207.5s186 81.5 330 81.5c78 0 141.667 -6.5 191 -19.5s91 -35 125 -66s57.5 -64.667 70.5 -101s19.5 -97.833 19.5 -184.5v-456c0 -66 10 -134 30 -204zM749.001 514 c-294.667 0 -442 -70.333 -442 -211c0 -42 14.833 -77.833 44.5 -107.5s74.5 -44.5 134.5 -44.5c86.667 0 152.167 27.5 196.5 82.5s66.5 117.5 66.5 187.5v93zM554.001 1106c-51.333 0 -94.999 18 -130.999 54s-54 79.667 -54 131s18.167 95.333 54.5 132 s79.833 55 130.5 55c46 0 88.5 -16.333 127.5 -49s58.5 -79.667 58.5 -141c0 -48 -17.833 -90.333 -53.5 -127s-79.834 -55 -132.501 -55zM555.002 1210c28 0 48.666 8.5 61.999 25.5s20 34.5 20 52.5c0 25.333 -7.16699 46 -21.5 62s-33.166 24 -56.499 24 c-22.667 0 -42.667 -7 -60 -21s-26 -34.333 -26 -61c0 -22 7 -41.167 21 -57.5s34.333 -24.5 61 -24.5zM739.001 1808l66 -150l-417 -176l-42 107z" glyph-name="aringacute" horiz-adv-x="1107" unicode="ǻ"/><glyph d="M1671 212v-212h-869v386h-408l-194 -386h-234l727 1365h961v-198h-606v-376h481v-196h-481v-383h623zM802 576v621l-310 -621h310zM1371 1800l66 -150l-417 -176l-42 107z" glyph-name="AEacute" horiz-adv-x="1732" unicode="Ǽ"/><glyph d="M1685 472h-712.002c1.33301 -96 22.5 -172.333 63.5 -229s103.5 -85 187.5 -85c112.667 0 189.667 53.667 231 161l211 -35c-23.333 -86.667 -77.666 -159.167 -162.999 -217.5s-183.666 -87.5 -294.999 -87.5c-87.333 0 -166.833 19 -238.5 57s-124.167 89 -157.5 153 c-91.333 -140 -215.666 -210 -372.999 -210c-118 0 -208.5 29.333 -271.5 88s-94.5 133 -94.5 223c0 113.333 52.333 198.333 157 255s249.667 85 435 85c24.667 0 54.667 -1.66699 90 -5c-1.33301 70 -5.5 117.5 -12.5 142.5s-26.5 47.167 -58.5 66.5s-79.333 29 -142 29 c-122 0 -195.667 -46.667 -221 -140l-203 25c48 188.667 200 283 456 283c70 0 127 -7.83301 171 -23.5s96 -46.167 156 -91.5c90 76.667 195.333 115 316 115c151.333 0 267.166 -47 347.499 -141s120.5 -213.333 120.5 -358v-60zM1449 625 c-4 82.667 -28.332 144.167 -72.999 184.5s-98.334 60.5 -161.001 60.5c-136 0 -214.333 -81.667 -235 -245h469zM752.999 503c-162.667 -4.66699 -275.167 -23.168 -337.5 -55.501s-93.5 -82.166 -93.5 -149.499c0 -48 16 -85 48 -111s72.333 -39 121 -39 c57.333 0 109 16.667 155 50s75.333 72.5 88 117.5s19 107.5 19 187.5zM1149 1487l66 -150l-417 -176l-42 107z" glyph-name="aeacute" horiz-adv-x="1757" unicode="ǽ"/><glyph d="M1094 1175c96.667 -133.333 145.001 -296.999 145.001 -490.999c0 -210.667 -53.333 -380.834 -160 -510.501s-248.334 -194.5 -425.001 -194.5c-126 0 -231 32 -315 96l-92 -131h-190l168 242c-97.333 144.667 -146 311 -146 499c0 202 54 369.333 162 502 s247.333 199 418 199c116.667 0 224 -31.333 322 -94l87 129h192zM383.001 409.001l465.999 705.999c-45.333 48.667 -106.666 73 -183.999 73c-112.667 0 -194.167 -45.167 -244.5 -135.5s-75.5 -212.166 -75.5 -365.499c0 -111.333 12.667 -204 38 -278zM940 961 l-469 -708c50.667 -50.667 113 -76 187 -76c88 0 162.5 36.667 223.5 110s91.5 206.333 91.5 399c0 91.333 -11 183 -33 275zM842 1800l66 -150l-417 -176l-42 107z" glyph-name="Oslashacute" horiz-adv-x="1318" unicode="Ǿ"/><glyph d="M883 883c51.333 -66 85.499 -126.333 102.499 -181s25.5 -119 25.5 -193c0 -160.667 -45.167 -289.167 -135.5 -385.5s-206.166 -144.5 -347.499 -144.5c-88 0 -166 21.667 -234 65l-80 -110h-142l132 188c-87.333 108.667 -131 238 -131 388 c0 148.667 43.167 272.667 129.5 372s202.833 149 349.5 149c90 0 171.333 -23 244 -69l73 97h142zM340.999 310l334.999 489c-31.333 30 -77.666 45 -138.999 45c-69.333 0 -123.833 -29.833 -163.5 -89.5s-59.5 -139.5 -59.5 -239.5c0 -72.667 9 -141 27 -205z M739.998 694l-324 -486c38 -27.333 79.667 -41 125 -41c152.667 0 229 116.667 229 350c0 74 -10 133 -30 177zM713.998 1487l66 -150l-417 -176l-42 107z" glyph-name="oslashacute" horiz-adv-x="1083" unicode="ǿ"/><glyph d="M7 329l239.003 51c28.667 -135.333 138.667 -203 330 -203c87.333 0 154.5 17.333 201.5 52s70.5 77.667 70.5 129c0 37.333 -10.667 71.833 -32 103.5s-67 56.5 -137 74.5l-261 68c-89.333 23.333 -155.333 49.833 -198 79.5s-76.834 71.5 -102.501 125.5 s-38.5 111.667 -38.5 173c0 122 45.333 219.833 136 293.5s206.667 110.5 348 110.5c117.333 0 222.166 -25.667 314.499 -77s151.166 -124 176.499 -218l-234 -58c-36 103.333 -120 155 -252 155c-76.667 0 -135.167 -16 -175.5 -48s-60.5 -72.667 -60.5 -122 c0 -78 63.333 -132.667 190 -164l232 -58c140.667 -35.333 235 -87.5 283 -156.5s72 -145.167 72 -228.5c0 -134 -50.5 -239.5 -151.5 -316.5s-231.833 -115.5 -392.5 -115.5c-135.333 0 -253.833 28.333 -355.5 85s-169.167 145 -202.5 265zM691.003 -109l-176 -370h-91 l61 370h206z" glyph-name="Scommaaccent" horiz-adv-x="1170" unicode="Ș"/><glyph d="M14 232l214 41.002c32.667 -82 104.667 -123 216 -123c141.333 0 212 41.667 212 125c0 26.667 -11 48.667 -33 66s-48 29 -78 35l-184 35c-204 39.333 -306 139 -306 299c0 89.333 32.333 165.166 97 227.499s161 93.5 289 93.5c213.333 0 343.666 -78.333 390.999 -235 l-203 -41c-21.333 76 -82 114 -182 114c-121.333 0 -182 -38 -182 -114c0 -52.667 49 -89 147 -109l217 -45c168.667 -34.667 253 -131.334 253 -290.001c0 -111.333 -43.333 -194.5 -130 -249.5s-189.667 -82.5 -309 -82.5c-103.333 0 -194.666 20.833 -273.999 62.5 s-131 105.167 -155 190.5zM560 -108.998l-176 -370h-91l61 370h206z" glyph-name="scommaaccent" horiz-adv-x="930" unicode="ș"/><glyph d="M627 0h-264v1154h-363v211h990v-211h-363v-1154zM609 -109l-176 -370h-91l61 370h206z" glyph-name="Tcommaaccent" horiz-adv-x="990" unicode="Ț"/><glyph d="M605 178v-177.999c-68 -14.667 -120.667 -22 -158 -22c-61.333 0 -114 12.167 -158 36.5s-76.167 57.666 -96.5 99.999s-30.5 107.5 -30.5 195.5v523h-126v177h139l21 263l187 17v-280h203v-177h-203v-493c0 -63.333 11.5 -106.5 34.5 -129.5s66.5 -34.5 130.5 -34.5 c18 0 37 0.666992 57 2zM488 -108.999l-176 -370h-91l61 370h206z" glyph-name="tcommaaccent" horiz-adv-x="660" unicode="ț"/><glyph d="M512 1476l347 -288l-180 -21l-167 132l-167 -132l-181 21z" glyph-name="circumflex" horiz-adv-x="1024" unicode="ˆ"/><glyph d="M512 1154l-348 288l181 20l167 -131l167 131l180 -20z" glyph-name="caron" horiz-adv-x="1024" unicode="ˇ"/><glyph d="M813 1352v-130h-602v130h602z" glyph-name="macron" horiz-adv-x="1024" unicode="ˉ"/><glyph d="M208 1455h130.999c12 -88 70.333 -132 175 -132c101.333 0 158 44 170 132h131c-3.33301 -76.667 -32.666 -141.5 -87.999 -194.5s-128 -79.5 -218 -79.5c-86 0 -157 25 -213 75s-85.333 116.333 -88 199z" glyph-name="breve" horiz-adv-x="1024" unicode="˘"/><glyph d="M510 1188c-32 0 -58.5029 10.5 -79.5029 31.5s-31.5 46.167 -31.5 75.5s10.333 55.166 31 77.499s47.334 33.5 80.001 33.5c30.667 0 57.334 -9.83301 80.001 -29.5s34 -46.5 34 -80.5c0 -33.333 -11.167 -59.666 -33.5 -78.999s-49.166 -29 -80.499 -29z" glyph-name="dotaccent" horiz-adv-x="1024" unicode="˙"/><glyph d="M511 1133c-51.333 0 -94.999 18 -130.999 54s-54 79.667 -54 131s18.167 95.333 54.5 132s79.833 55 130.5 55c46 0 88.5 -16.333 127.5 -49s58.5 -79.667 58.5 -141c0 -48 -17.833 -90.333 -53.5 -127s-79.834 -55 -132.501 -55zM512.001 1237 c28 0 48.666 8.5 61.999 25.5s20 34.5 20 52.5c0 25.333 -7.16699 46 -21.5 62s-33.166 24 -56.499 24c-22.667 0 -42.667 -7 -60 -21s-26 -34.333 -26 -61c0 -22 7 -41.167 21 -57.5s34.333 -24.5 61 -24.5z" glyph-name="ring" horiz-adv-x="1024" unicode="˚"/><glyph d="M893 0c-95.333 -50.667 -143 -104.668 -143 -162.001c0 -27.333 9.66699 -49.5 29 -66.5s45.666 -25.5 78.999 -25.5c27.333 0 57 6 89 18l21 -73c-51.333 -23.333 -104.666 -35 -159.999 -35c-59.333 0 -107.333 14.333 -144 43s-55 65.334 -55 110.001 c0 79.333 58 143 174 191h110z" glyph-name="ogonek" horiz-adv-x="1024" unicode="˛"/><glyph d="M768 1421l70.001 -103.001c-16 -33.333 -45.333 -61.166 -88 -83.499s-80.667 -33.5 -114 -33.5c-40.667 0 -91.334 15.667 -152.001 47c-46 24 -80 36 -102 36c-31.333 0 -73.333 -26 -126 -78l-69 103c62 76.667 129 115 201 115c34.667 0 79.667 -13 135 -39 c60 -28 104.667 -42 134 -42c40.667 0 77.667 26 111 78z" glyph-name="tilde" horiz-adv-x="1024" unicode="˜"/><glyph d="M612 1487l93 -116l-328 -210l-71 87zM953 1487l94 -116l-328 -210l-60 87z" glyph-name="hungarumlaut" horiz-adv-x="1024" unicode="˝"/><glyph d="M107 1474l154 -109l-299 -331l-92 67z" glyph-name="tonos" horiz-adv-x="1024" unicode="΄"/><glyph d="M670 1761l101 -131l-296 -193l-61 91zM343 1188c-32 0 -58.5029 10.5 -79.5029 31.5s-31.5 46.167 -31.5 75.5s10.333 55.166 31 77.499s47.334 33.5 80.001 33.5c30.667 0 57.334 -9.83301 80.001 -29.5s34 -46.5 34 -80.5c0 -33.333 -11.167 -59.666 -33.5 -78.999 s-49.166 -29 -80.499 -29zM677.997 1188c-32.667 0 -59.501 10.667 -80.501 32s-31.5 46.333 -31.5 75c0 29.333 10.5 55.166 31.5 77.499s47.833 33.5 80.5 33.5c30 0 56.5 -9.83301 79.5 -29.5s34.5 -46.5 34.5 -80.5c0 -33.333 -11.167 -59.666 -33.5 -78.999 s-49.166 -29 -80.499 -29z" glyph-name="dieresistonos" horiz-adv-x="1024" unicode="΅"/><glyph d="M1221 0h-263l-109 325h-525l-107 -325h-210l453 1365h303zM783 522l-199 609l-199 -609h398zM209 1474l154 -109l-299 -331l-92 67z" glyph-name="Alphatonos" horiz-adv-x="1235" unicode="Ά"/><glyph d="M247 651v-262h-247v262h247z" glyph-name="anoteleia" horiz-adv-x="247" unicode="·"/><glyph d="M1037 0h-887v1365h878v-203h-632v-370h508v-198h-508v-382h641v-212zM-78 1474l154 -109l-299 -331l-92 67z" glyph-name="Epsilontonos" horiz-adv-x="1099" unicode="Έ"/><glyph d="M1163 0h-246v593h-521v-593h-246v1365h246v-561h521v561h246v-1365zM-76 1474l154 -109l-299 -331l-92 67z" glyph-name="Etatonos" horiz-adv-x="1314" unicode="Ή"/><glyph d="M396 0h-246v1365h246v-1365zM-76 1474l154 -109l-299 -331l-92 67z" glyph-name="Iotatonos" horiz-adv-x="546" unicode="Ί"/><glyph d="M653 -21c-181.333 0 -322.5 68.001 -423.5 204.001s-151.5 304 -151.5 504c0 198.667 53.667 364.834 161 498.501s249 200.5 425 200.5c177.333 0 317.5 -66.833 420.5 -200.5s154.5 -300.834 154.5 -501.501c0 -210.667 -53.5 -380.834 -160.5 -510.501 s-248.833 -194.5 -425.5 -194.5zM655 177.001c88.667 0 163.668 36.667 225.001 110s92 206.333 92 399c0 156.667 -25.333 279.5 -76 368.5s-129.334 133.5 -236.001 133.5c-210.667 0 -316 -169.667 -316 -509c0 -164.667 26.833 -289.5 80.5 -374.5 s130.5 -127.5 230.5 -127.5zM90.001 1474l154 -109l-299 -331l-92 67z" glyph-name="Omicrontonos" horiz-adv-x="1318" unicode="Ό"/><glyph d="M698 0h-261v576l-465 789h298l324 -563l310 563h236l-442 -789v-576zM-204 1474l154 -109l-299 -331l-92 67z" glyph-name="Upsilontonos" horiz-adv-x="1113" unicode="Ύ"/><glyph d="M57 0v212.001h330c-204.667 100 -307 283.667 -307 551c0 194.667 57.333 347.167 172 457.5s257 165.5 427 165.5c170.667 0 313.167 -55.333 427.5 -166s171.5 -262 171.5 -454c0 -268.667 -102.333 -453.334 -307 -554.001h329v-212h-536v212 c165.333 100.667 248 275 248 523c0 142.667 -29.833 253.834 -89.5 333.501s-140.834 119.5 -243.501 119.5c-99.333 0 -179.666 -38.333 -240.999 -115s-92 -189.334 -92 -338.001c0 -248 82.667 -422.333 248 -523v-212h-537zM83 1474l154 -109l-299 -331l-92 67z" glyph-name="Omegatonos" horiz-adv-x="1358" unicode="Ώ"/><glyph d="M364 0h-228v1010h228v-1010zM409 1761l101 -131l-296 -193l-61 91zM82 1188c-32 0 -58.5029 10.5 -79.5029 31.5s-31.5 46.167 -31.5 75.5s10.333 55.166 31 77.499s47.334 33.5 80.001 33.5c30.667 0 57.334 -9.83301 80.001 -29.5s34 -46.5 34 -80.5 c0 -33.333 -11.167 -59.666 -33.5 -78.999s-49.166 -29 -80.499 -29zM416.997 1188c-32.667 0 -59.501 10.667 -80.501 32s-31.5 46.333 -31.5 75c0 29.333 10.5 55.166 31.5 77.499s47.833 33.5 80.5 33.5c30 0 56.5 -9.83301 79.5 -29.5s34.5 -46.5 34.5 -80.5 c0 -33.333 -11.167 -59.666 -33.5 -78.999s-49.166 -29 -80.499 -29z" glyph-name="iotadieresistonos" horiz-adv-x="501" unicode="ΐ"/><glyph d="M1221 0h-263l-109 325h-525l-107 -325h-210l453 1365h303zM783 522l-199 609l-199 -609h398z" glyph-name="Alpha" horiz-adv-x="1235" unicode="Α"/><glyph d="M150 0l0.000976562 1365h532c90 0 164.667 -9.33301 224 -28s110.666 -57.667 153.999 -117s65 -129 65 -209c0 -75.333 -22 -140.833 -66 -196.5s-104.667 -91.167 -182 -106.5c96 -16.667 168.667 -55.667 218 -117s74 -134 74 -218 c0 -105.333 -34.5 -193.833 -103.5 -265.5s-175.167 -107.5 -318.5 -107.5h-597zM383.001 792l300.001 -0.00195312c61.333 0 109.833 18.333 145.5 55s53.5 83.334 53.5 140.001c0 62.667 -20.333 108.834 -61 138.501s-88.334 44.5 -143.001 44.5h-295v-378z M383.002 204.998h318c67.333 0 120.5 17.667 159.5 53s58.5 83 58.5 143c0 57.333 -19.833 104.333 -59.5 141s-92.167 55 -157.5 55h-319v-392z" glyph-name="Beta" horiz-adv-x="1244" unicode="Β"/><glyph d="M150 0v1365h782v-211h-536v-1154h-246z" glyph-name="Gamma" horiz-adv-x="932" unicode="Γ"/><glyph d="M-34 0l455 1365h316l470 -1365h-1241zM250 212h610l-292 948h-29z" glyph-name="Delta" horiz-adv-x="1185" unicode="Δ"/><glyph d="M1037 0h-887v1365h878v-203h-632v-370h508v-198h-508v-382h641v-212z" glyph-name="Epsilon" horiz-adv-x="1099" unicode="Ε"/><glyph d="M1050 212v-212h-1009v194l699 976h-650v195h940v-195l-691 -958h711z" glyph-name="Zeta" horiz-adv-x="1091" unicode="Ζ"/><glyph d="M1163 0h-246v593h-521v-593h-246v1365h246v-561h521v561h246v-1365z" glyph-name="Eta" horiz-adv-x="1313" unicode="Η"/><glyph d="M683 1386c186.667 0 333.5 -66.667 440.5 -200s160.5 -300.333 160.5 -501c0 -204.667 -54.833 -373.5 -164.5 -506.5s-256.5 -199.5 -440.5 -199.5c-178 0 -322.667 63.667 -434 191s-167 300.333 -167 519c0 180 52.5 341.167 157.5 483.5s254.167 213.5 447.5 213.5z M681 1188c-105.333 0 -189.332 -47 -251.999 -141s-94 -214.333 -94 -361c0 -170.667 32.833 -298.167 98.5 -382.5s148.5 -126.5 248.5 -126.5c103.333 0 186.666 45.833 249.999 137.5s95 215.167 95 370.5c0 151.333 -31.667 273 -95 365s-147 138 -251 138zM867.001 793 v-191h-370v191h370z" glyph-name="Theta" horiz-adv-x="1363" unicode="Θ"/><glyph d="M396 0h-246v1365h246v-1365z" glyph-name="Iota" horiz-adv-x="546" unicode="Ι"/><glyph d="M1223 0l-275 -0.000976562l-288 695l-264 -350v-345h-246v1365h246v-717c31.333 48.667 54 82.334 68 101.001l453 616h249l-324 -449z" glyph-name="Kappa" horiz-adv-x="1257" unicode="Κ"/><glyph d="M183 0h-214l433 1365h312l431 -1365h-264l-345 1136h-14z" glyph-name="Lambda" horiz-adv-x="1117" unicode="Λ"/><glyph d="M1489 0h-251v1195l-378 -1195h-129l-380 1195v-1195h-201v1365h385l286 -879l281 879h387v-1365z" glyph-name="Mu" horiz-adv-x="1640" unicode="Μ"/><glyph d="M1181 0h-239l-518 872l-39 65l-37 63v-1000h-198v1365h272l478 -804l87 -147v951h194v-1365z" glyph-name="Nu" horiz-adv-x="1331" unicode="Ν"/><glyph d="M76 1154v211h940v-211h-940zM227 600v199h638v-199h-638zM76 0v212h940v-212h-940z" glyph-name="Xi" horiz-adv-x="1093" unicode="Ξ"/><glyph d="M653 -21c-181.333 0 -322.5 68.001 -423.5 204.001s-151.5 304 -151.5 504c0 198.667 53.667 364.834 161 498.501s249 200.5 425 200.5c177.333 0 317.5 -66.833 420.5 -200.5s154.5 -300.834 154.5 -501.501c0 -210.667 -53.5 -380.834 -160.5 -510.501 s-248.833 -194.5 -425.5 -194.5zM655 177.001c88.667 0 163.668 36.667 225.001 110s92 206.333 92 399c0 156.667 -25.333 279.5 -76 368.5s-129.334 133.5 -236.001 133.5c-210.667 0 -316 -169.667 -316 -509c0 -164.667 26.833 -289.5 80.5 -374.5 s130.5 -127.5 230.5 -127.5z" glyph-name="Omicron" horiz-adv-x="1318" unicode="Ο"/><glyph d="M150 0v1365h966v-1365h-245v1154h-475v-1154h-246z" glyph-name="Pi" horiz-adv-x="1267" unicode="Π"/><glyph d="M396 0l-246 -0.000976562v1365h559c159.333 0 277.5 -40.167 354.5 -120.5s115.5 -175.166 115.5 -284.499c0 -124.667 -41.667 -225.667 -125 -303s-189 -116 -317 -116h-341v-541zM396 751.999h291c76 0 134 18.667 174 56s60 87 60 149c0 56 -18.5 104 -55.5 144 s-103.833 60 -200.5 60h-269v-409z" glyph-name="Rho" horiz-adv-x="1227" unicode="Ρ"/><glyph d="M71 0v194l408 531l-383 442v198h869v-198h-572l359 -401l-423 -554h682v-212h-940z" glyph-name="Sigma" horiz-adv-x="1043" unicode="Σ"/><glyph d="M627 0h-264v1154h-363v211h990v-211h-363v-1154z" glyph-name="Tau" horiz-adv-x="990" unicode="Τ"/><glyph d="M699 0h-261v576l-465 789h298l324 -563l310 563h236l-442 -789v-576z" glyph-name="Upsilon" horiz-adv-x="1113" unicode="Υ"/><glyph d="M653 127c-194.667 18 -337.333 77.333 -428 178s-136 226.667 -136 378c0 154.667 47 281.834 141 381.501s235 157.834 423 174.501v167h214v-167c192 -17.333 334 -76 426 -176s138 -226.667 138 -380c0 -150.667 -45 -276.334 -135 -377.001 s-233 -160.334 -429 -179.001v-168h-214v168zM653.001 1062c-104.667 -17.333 -184 -56.166 -238 -116.499s-81 -151.5 -81 -273.5c0 -210.667 106.333 -333.334 319 -368.001v758zM867.001 304c104.667 17.333 184.167 56.332 238.5 116.999s81.5 151.667 81.5 273 c0 210.667 -106.667 333.334 -320 368.001v-758z" glyph-name="Phi" horiz-adv-x="1520" unicode="Φ"/><glyph d="M1149 0h-287l-302 538l-320 -538h-229l432 711l-371 654h286l252 -454l267 454h230l-380 -623z" glyph-name="Chi" horiz-adv-x="1160" unicode="Χ"/><glyph d="M703 0l0.00195312 251.996c-116.667 5.33301 -212.5 23 -287.5 53s-133 71.167 -174 123.5s-69 116.333 -84 192s-22.5 188.834 -22.5 339.501v405h246v-405c0 -143.333 5.66699 -243.666 17 -300.999s40.666 -104.166 87.999 -140.499s119.666 -58.166 216.999 -65.499 v912h246v-912c99.333 6.66699 172 27.834 218 63.501s75.333 81.667 88 138s19 158.166 19 305.499v405h246v-405c0 -152.667 -6.83301 -265 -20.5 -337s-42.667 -136.167 -87 -192.5s-103.833 -98.833 -178.5 -127.5s-169.667 -45.667 -285 -51v-252h-246z" glyph-name="Psi" horiz-adv-x="1655" unicode="Ψ"/><glyph d="M57 0v212.001h330c-204.667 100 -307 283.667 -307 551c0 194.667 57.333 347.167 172 457.5s257 165.5 427 165.5c170.667 0 313.167 -55.333 427.5 -166s171.5 -262 171.5 -454c0 -268.667 -102.333 -453.334 -307 -554.001h329v-212h-536v212 c165.333 100.667 248 275 248 523c0 142.667 -29.833 253.834 -89.5 333.501s-140.834 119.5 -243.501 119.5c-99.333 0 -179.666 -38.333 -240.999 -115s-92 -189.334 -92 -338.001c0 -248 82.667 -422.333 248 -523v-212h-537z" glyph-name="Omega" horiz-adv-x="1358" unicode="Ω"/><glyph d="M396 0h-246v1365h246v-1365zM118 1512c-32 0 -58.5029 10.5 -79.5029 31.5s-31.5 46.167 -31.5 75.5s10.333 55.166 31 77.499s47.334 33.5 80.001 33.5c30.667 0 57.334 -9.83301 80.001 -29.5s34 -46.5 34 -80.5c0 -33.333 -11.167 -59.666 -33.5 -78.999 s-49.166 -29 -80.499 -29zM452.997 1512c-32.667 0 -59.501 10.667 -80.501 32s-31.5 46.333 -31.5 75c0 29.333 10.5 55.166 31.5 77.499s47.833 33.5 80.5 33.5c30 0 56.5 -9.83301 79.5 -29.5s34.5 -46.5 34.5 -80.5c0 -33.333 -11.167 -59.666 -33.5 -78.999 s-49.166 -29 -80.499 -29z" glyph-name="Iotadieresis" horiz-adv-x="546" unicode="Ϊ"/><glyph d="M699 0h-261v576l-465 789h298l324 -563l310 563h236l-442 -789v-576zM402 1512c-32 0 -58.5029 10.5 -79.5029 31.5s-31.5 46.167 -31.5 75.5s10.333 55.166 31 77.499s47.334 33.5 80.001 33.5c30.667 0 57.334 -9.83301 80.001 -29.5s34 -46.5 34 -80.5 c0 -33.333 -11.167 -59.666 -33.5 -78.999s-49.166 -29 -80.499 -29zM736.997 1512c-32.667 0 -59.501 10.667 -80.501 32s-31.5 46.333 -31.5 75c0 29.333 10.5 55.166 31.5 77.499s47.833 33.5 80.5 33.5c30 0 56.5 -9.83301 79.5 -29.5s34.5 -46.5 34.5 -80.5 c0 -33.333 -11.167 -59.666 -33.5 -78.999s-49.166 -29 -80.499 -29z" glyph-name="Upsilondieresis" horiz-adv-x="1113" unicode="Ϋ"/><glyph d="M1198 0l-251 0.000976562l-102 274c-83.333 -196.667 -203.333 -295 -360 -295c-121.333 0 -220.5 50.833 -297.5 152.5s-115.5 225.5 -115.5 371.5c0 161.333 41 289.666 123 384.999s188 143 318 143c145.333 0 256 -82 332 -246l81 225h237l-183 -479zM784 519.001 c-58 149.333 -104.667 240.833 -140 274.5s-74 50.5 -116 50.5c-58 0 -108.167 -30 -150.5 -90s-63.5 -144.667 -63.5 -254c0 -95.333 21.333 -174.833 64 -238.5s92.667 -95.5 150 -95.5c63.333 0 114.333 34.667 153 104s73 152.333 103 249zM628 1552l154 -109l-299 -331 l-92 67z" glyph-name="alphatonos" horiz-adv-x="1225" unicode="ά"/><glyph d="M598 599l-0.00195312 -157.003c-76.667 -0.666992 -131 -3.16699 -163 -7.5s-59.167 -18.166 -81.5 -41.499s-33.5 -53.666 -33.5 -90.999c0 -49.333 16.833 -87.166 50.5 -113.499s77.167 -39.5 130.5 -39.5c114.667 0 188.334 58.667 221.001 176l210 -37 c-20 -86 -66.667 -159 -140 -219s-169.666 -90 -288.999 -90c-156.667 0 -266.667 31.5 -330 94.5s-95 136.833 -95 221.5c0 123.333 72.333 204 217 242c-80.667 34 -132 68.5 -154 103.5s-33 73.5 -33 115.5c0 80 32.833 145.833 98.5 197.5s157.167 77.5 274.5 77.5 c244 0 386 -93.667 426 -281l-206 -37c-22.667 97.333 -87.667 146 -195 146c-104 0 -156 -42.333 -156 -127c0 -43.333 17 -76.5 51 -99.5s99.667 -34.167 197 -33.5zM591.998 1552l154 -109l-299 -331l-92 67z" glyph-name="epsilontonos" horiz-adv-x="957" unicode="έ"/><glyph d="M990 -341l-227.998 0.000976562v976c0 139.333 -54 209 -162 209c-69.333 0 -125.833 -24.5 -169.5 -73.5s-65.5 -113.833 -65.5 -194.5v-576h-228v1010h211v-167c71.333 125.333 177 188 317 188c77.333 0 142.166 -17.333 194.499 -52s87.166 -77.334 104.499 -128.001 s26 -130.667 26 -240v-952zM650.002 1552l154 -109l-299 -331l-92 67z" glyph-name="etatonos" horiz-adv-x="1119" unicode="ή"/><glyph d="M364 0h-228v1010h228v-1010zM303 1552l154 -109l-299 -331l-92 67z" glyph-name="iotatonos" horiz-adv-x="501" unicode="ί"/><glyph d="M355 1010l-0.000976562 -587.002c0 -78 3.83301 -131.667 11.5 -161s25.834 -52.5 54.501 -69.5s69.334 -25.5 122.001 -25.5c49.333 0 88.666 7.83301 117.999 23.5s48.333 37.834 57 66.501s13 84 13 166v587h228v-587c0 -116 -13.833 -204.5 -41.5 -265.5 s-72.667 -106 -135 -135s-139.5 -43.5 -231.5 -43.5c-137.333 0 -242.333 28.833 -315 86.5s-109 176.834 -109 357.501v587h228zM700.999 1761l101 -131l-296 -193l-61 91zM373.999 1188c-32 0 -58.5029 10.5 -79.5029 31.5s-31.5 46.167 -31.5 75.5 s10.333 55.166 31 77.499s47.334 33.5 80.001 33.5c30.667 0 57.334 -9.83301 80.001 -29.5s34 -46.5 34 -80.5c0 -33.333 -11.167 -59.666 -33.5 -78.999s-49.166 -29 -80.499 -29zM708.996 1188c-32.667 0 -59.501 10.667 -80.501 32s-31.5 46.333 -31.5 75 c0 29.333 10.5 55.166 31.5 77.499s47.833 33.5 80.5 33.5c30 0 56.5 -9.83301 79.5 -29.5s34.5 -46.5 34.5 -80.5c0 -33.333 -11.167 -59.666 -33.5 -78.999s-49.166 -29 -80.499 -29z" glyph-name="upsilondieresistonos" horiz-adv-x="1086" unicode="ΰ"/><glyph d="M1198 0l-251 0.000976562l-102 274c-83.333 -196.667 -203.333 -295 -360 -295c-121.333 0 -220.5 50.833 -297.5 152.5s-115.5 225.5 -115.5 371.5c0 161.333 41 289.666 123 384.999s188 143 318 143c145.333 0 256 -82 332 -246l81 225h237l-183 -479zM784 519.001 c-58 149.333 -104.667 240.833 -140 274.5s-74 50.5 -116 50.5c-58 0 -108.167 -30 -150.5 -90s-63.5 -144.667 -63.5 -254c0 -95.333 21.333 -174.833 64 -238.5s92.667 -95.5 150 -95.5c63.333 0 114.333 34.667 153 104s73 152.333 103 249z" glyph-name="alpha" horiz-adv-x="1225" unicode="α"/><glyph d="M143 -341l-0.000976562 1244c0 120.667 12.333 212.834 37 276.501s67.334 114 128.001 151s145 55.5 253 55.5c124 0 225.833 -28.333 305.5 -85s119.5 -137.667 119.5 -243c0 -139.333 -78.333 -234.666 -235 -285.999c210.667 -50.667 316 -174.667 316 -372 c0 -120.667 -39.667 -221 -119 -301s-182 -120 -308 -120c-118 0 -207.667 43 -269 129v-449h-228zM370.999 245.998c50 -52.667 116.001 -79.001 198.001 -79.001c75.333 0 136.833 24 184.5 72s71.5 113.333 71.5 196c0 67.333 -18.833 125 -56.5 173 s-110.167 72 -217.5 72v153c81.333 1.33301 135.666 19.833 162.999 55.5s41 81.834 41 138.501c0 132 -65.667 198 -197 198c-58.667 0 -104.5 -16.667 -137.5 -50s-49.5 -115 -49.5 -245v-684z" glyph-name="beta" horiz-adv-x="1142" unicode="β"/><glyph d="M333 -341v359l-345 992h248l234 -699l245 699h197l-351 -992v-359h-228z" glyph-name="gamma" horiz-adv-x="895" unicode="γ"/><glyph d="M901 1365v-177h-415l153 -105c88 -60 158.167 -116 210.5 -168s94 -113.167 125 -183.5s46.5 -150.5 46.5 -240.5c0 -156 -41.833 -280.333 -125.5 -373s-197.834 -139 -342.501 -139c-146 0 -261.5 44.833 -346.5 134.5s-127.5 211.5 -127.5 365.5 c0 140 39.333 252.167 118 336.5s188.334 126.5 329.001 126.5l-334 258v165h709zM554 814c-155.333 0 -233 -107.667 -233 -323c0 -216 76.667 -324 230 -324c152.667 0 229 108.667 229 326c0 214 -75.333 321 -226 321z" glyph-name="delta" horiz-adv-x="1099" unicode="δ"/><glyph d="M598 599l-0.00195312 -157.003c-76.667 -0.666992 -131 -3.16699 -163 -7.5s-59.167 -18.166 -81.5 -41.499s-33.5 -53.666 -33.5 -90.999c0 -49.333 16.833 -87.166 50.5 -113.499s77.167 -39.5 130.5 -39.5c114.667 0 188.334 58.667 221.001 176l210 -37 c-20 -86 -66.667 -159 -140 -219s-169.666 -90 -288.999 -90c-156.667 0 -266.667 31.5 -330 94.5s-95 136.833 -95 221.5c0 123.333 72.333 204 217 242c-80.667 34 -132 68.5 -154 103.5s-33 73.5 -33 115.5c0 80 32.833 145.833 98.5 197.5s157.167 77.5 274.5 77.5 c244 0 386 -93.667 426 -281l-206 -37c-22.667 97.333 -87.667 146 -195 146c-104 0 -156 -42.333 -156 -127c0 -43.333 17 -76.5 51 -99.5s99.667 -34.167 197 -33.5z" glyph-name="epsilon" horiz-adv-x="957" unicode="ε"/><glyph d="M128 1188l0.000976562 176.998h622v-150c-115.333 -82 -215.5 -193 -300.5 -333s-127.5 -285.333 -127.5 -436c0 -89.333 16.833 -150.333 50.5 -183s93.5 -51.667 179.5 -57c60.667 -3.33301 104.167 -12.5 130.5 -27.5s47.333 -38.5 63 -70.5s23.5 -74.667 23.5 -128 c0 -85.333 -28 -192.333 -84 -321l-199 25c47.333 94 71 170 71 228c0 32.667 -9.83301 55.334 -29.5 68.001s-55.834 20.334 -108.501 23.001c-226 9.33301 -339 141.333 -339 396c0 280 149.667 543 449 789h-401z" glyph-name="zeta" horiz-adv-x="792" unicode="ζ"/><glyph d="M990 -341l-227.998 0.000976562v976c0 139.333 -54 209 -162 209c-69.333 0 -125.833 -24.5 -169.5 -73.5s-65.5 -113.833 -65.5 -194.5v-576h-228v1010h211v-167c71.333 125.333 177 188 317 188c77.333 0 142.166 -17.333 194.499 -52s87.166 -77.334 104.499 -128.001 s26 -130.667 26 -240v-952z" glyph-name="eta" horiz-adv-x="1119" unicode="η"/><glyph d="M555 1386c148.667 0 264.333 -61.5 347 -184.5s124 -296.167 124 -519.5c0 -224 -41.5 -397.167 -124.5 -519.5s-198.5 -183.5 -346.5 -183.5c-140.667 0 -254.167 58 -340.5 174s-129.5 292.333 -129.5 529c0 232.667 42.5 408.167 127.5 526.5 s199.167 177.5 342.5 177.5zM318.999 786h471.996c-5.33301 153.333 -30.666 263.833 -75.999 331.5s-98.666 101.5 -159.999 101.5s-114.666 -34 -159.999 -102s-70.666 -178.333 -75.999 -331zM318.995 631c4.66699 -323.333 83.332 -485 235.999 -485 s231.334 161.667 236.001 485h-472z" glyph-name="theta" horiz-adv-x="1111" unicode="θ"/><glyph d="M364 0h-228v1010h228v-1010z" glyph-name="iota" horiz-adv-x="501" unicode="ι"/><glyph d="M673 674l359 -674h-250l-263 490l-154 -155v-335h-228v1010h228v-271l1 -85c0 -16 -1.66699 -44.667 -5 -86c24 30.667 54.667 66 92 106l312 336h226z" glyph-name="kappa" horiz-adv-x="1041" unicode="κ"/><glyph d="M-10 0l339 932l-154 433h237l484 -1365h-238l-242 693l-241 -693h-185z" glyph-name="lambda" horiz-adv-x="887" unicode="λ"/><glyph d="M137 -341v1351h228v-540c0 -74 5.5 -129.667 16.5 -167s32.833 -69.333 65.5 -96s70.667 -40 114 -40c62 0 111.333 21.667 148 65s55 122.666 55 237.999v540h228v-1010h-193v155c-50.667 -117.333 -127.667 -176 -231 -176c-48 0 -91.167 14.167 -129.5 42.5 s-62.833 61.833 -73.5 100.5v-463h-228z" glyph-name="mu" horiz-adv-x="1128" unicode="μ"/><glyph d="M883 1010l-343 -1010h-189l-351 1010h238l236 -685l230 685h179z" glyph-name="nu" horiz-adv-x="897" unicode="ν"/><glyph d="M610 -319c36 92.667 53.998 165.001 53.998 217.001c0 35.333 -11.5 59.5 -34.5 72.5s-67.5 22.167 -133.5 27.5c-145.333 10.667 -252.5 45.334 -321.5 104.001s-103.5 146.667 -103.5 264c0 97.333 25.5 174.666 76.5 231.999s128.5 101.333 232.5 132 c-158 44.667 -237 118.334 -237 221.001c0 108 79 187 237 237h-257v177h724v-177h-128c-222.667 0 -334 -65.667 -334 -197c0 -55.333 21.333 -101.333 64 -138s114 -55 214 -55h85v-180h-85c-88 0 -154.833 -5.33301 -200.5 -16s-82.167 -33.334 -109.5 -68.001 s-41 -78.667 -41 -132c0 -47.333 10.667 -85.333 32 -114s47.833 -48 79.5 -58s87.834 -19 168.501 -27c72.667 -6.66699 127.334 -16 164.001 -28s66.167 -34.167 88.5 -66.5s33.5 -79.833 33.5 -142.5c0 -76.667 -22.333 -183.334 -67 -320.001z" glyph-name="xi" horiz-adv-x="886" unicode="ξ"/><glyph d="M532 -21c-149.333 0 -263.333 53.6689 -342 161.002s-118 230.333 -118 369c0 149.333 43.5 273.666 130.5 372.999s201.833 149 344.5 149c135.333 0 246.5 -48.333 333.5 -145s130.5 -222.334 130.5 -377.001c0 -159.333 -45.167 -287.5 -135.5 -384.5 s-204.833 -145.5 -343.5 -145.5zM540 167.002c153.333 0 230 114.333 230 343c0 103.333 -18.333 184.833 -55 244.5s-93 89.5 -169 89.5c-78.667 0 -137 -30.833 -175 -92.5s-57 -143.5 -57 -245.5c0 -110 20.167 -194 60.5 -252s95.5 -87 165.5 -87z" glyph-name="omicron" horiz-adv-x="1083" unicode="ο"/><glyph d="M167 0v833h-122v177h1048v-177h-123v-833h-228v833h-347v-833h-228z" glyph-name="pi" horiz-adv-x="1138" unicode="π"/><glyph d="M116 -341l0.000976562 733.001c0 160.667 11.667 280.667 35 360s72.666 145.666 147.999 198.999s167.333 80 276 80c145.333 0 261.333 -48.167 348 -144.5s130 -227.5 130 -393.5c0 -156.667 -39.667 -281.5 -119 -374.5s-180 -139.5 -302 -139.5 c-126.667 0 -222.667 53.333 -288 160v-480h-228zM577.001 844.001c-74 0 -130.167 -25 -168.5 -75s-57.5 -138 -57.5 -264c0 -225.333 77.333 -338 232 -338c152 0 228 113 228 339c0 225.333 -78 338 -234 338z" glyph-name="rho" horiz-adv-x="1125" unicode="ρ"/><glyph d="M661 -313c33.333 66 50.0029 134.331 50.0029 204.998c0 42 -9 69.5 -27 82.5s-51 22.167 -99 27.5c-115.333 14.667 -208.333 39.834 -279 75.501s-127.334 91.667 -170.001 168s-64 167.833 -64 274.5c0 148 40 270.167 120 366.5s193.333 144.5 340 144.5 c118 0 211.667 -33.167 281 -99.5s111.333 -150.833 126 -253.5l-212 -38c-15.333 136 -81 204 -197 204c-65.333 0 -117.833 -24.5 -157.5 -73.5s-59.5 -123.833 -59.5 -224.5c0 -88 13.667 -155.333 41 -202s64.666 -80 111.999 -100s118.666 -37 213.999 -51 c91.333 -14 156 -37.667 194 -71s57 -93.666 57 -180.999c0 -74.667 -21.333 -173 -64 -295z" glyph-name="sigma1" horiz-adv-x="980" unicode="ς"/><glyph d="M1088 1010l-0.000976562 -177h-234c70.667 -60.667 116.167 -117.167 136.5 -169.5s30.5 -113.833 30.5 -184.5c0 -148.667 -43 -269.167 -129 -361.5s-199 -138.5 -339 -138.5c-135.333 0 -248.166 42.833 -338.499 128.5s-135.5 219.167 -135.5 400.5 c0 159.333 41.667 286.333 125 381s200.333 142 351 142c51.333 0 99 -7 143 -21h390zM549.999 844c-152.667 0 -229 -112.333 -229 -337c0 -226.667 76.667 -340 230 -340c152 0 228 113.333 228 340c0 224.667 -76.333 337 -229 337z" glyph-name="sigma" horiz-adv-x="1115" unicode="σ"/><glyph d="M282 0v833h-290v177h806v-177h-288v-833h-228z" glyph-name="tau" horiz-adv-x="790" unicode="τ"/><glyph d="M355 1010l-0.000976562 -587.002c0 -78 3.83301 -131.667 11.5 -161s25.834 -52.5 54.501 -69.5s69.334 -25.5 122.001 -25.5c49.333 0 88.666 7.83301 117.999 23.5s48.333 37.834 57 66.501s13 84 13 166v587h228v-587c0 -116 -13.833 -204.5 -41.5 -265.5 s-72.667 -106 -135 -135s-139.5 -43.5 -231.5 -43.5c-137.333 0 -242.333 28.833 -315 86.5s-109 176.834 -109 357.501v587h228z" glyph-name="upsilon" horiz-adv-x="1086" unicode="υ"/><glyph d="M581 -341l-0.000976562 315c-161.333 12.667 -285.166 67.167 -371.499 163.5s-129.5 217.5 -129.5 363.5c0 117.333 28 219 84 305s127.333 143.667 214 173l68 -182c-92.667 -64.667 -139 -161.667 -139 -291c0 -202 91.333 -321 274 -357v876c44.667 4 83.667 6 117 6 c209.333 0 361.333 -52.667 456 -158s142 -230.333 142 -375c0 -136.667 -43.167 -255.167 -129.5 -355.5s-211.833 -156.5 -376.5 -168.5v-315h-209zM789.999 148c184 28 276 148.334 276 361.001c0 209.333 -92 328.666 -276 357.999v-719z" glyph-name="phi" horiz-adv-x="1376" unicode="φ"/><glyph d="M351 391l-324 619h246l241 -464l230 464h207l-339 -654l364 -697h-246l-272 553l-277 -553h-214z" glyph-name="chi" horiz-adv-x="968" unicode="χ"/><glyph d="M627 -341l-0.00195312 316c-122 4 -219.167 23 -291.5 57s-124.5 83.167 -156.5 147.5s-48 161.833 -48 292.5v538h228v-538c0 -126 17.5 -209.333 52.5 -250s106.833 -62 215.5 -64v852h218v-852c106 2 177.167 22.5 213.5 61.5s54.5 123.167 54.5 252.5v538h228v-538 c0 -122.667 -14.667 -217 -44 -283s-80.666 -117.167 -153.999 -153.5s-172.666 -56.5 -297.999 -60.5v-316h-218z" glyph-name="psi" horiz-adv-x="1472" unicode="ψ"/><glyph d="M833 785l-0.00195312 -337.002c0 -119.333 10.5 -196.166 31.5 -230.499s50.833 -51.5 89.5 -51.5c52 0 95.167 23.5 129.5 70.5s51.5 124.833 51.5 233.5c0 171.333 -54.667 330 -164 476l163 95c161.333 -162.667 242 -350 242 -562 c0 -172 -38.167 -298.333 -114.5 -379s-168.833 -121 -277.5 -121c-53.333 0 -100.666 11.333 -141.999 34s-80 70.334 -116 143.001c-55.333 -118 -141.333 -177 -258 -177c-110 0 -203 40.833 -279 122.5s-114 203.5 -114 365.5c0 220 80.667 411.333 242 574l164 -95 c-109.333 -146.667 -164 -305.667 -164 -477c0 -107.333 17 -184.666 51 -231.999s77.333 -71 130 -71c36.667 0 65.834 16.167 87.501 48.5s32.5 110.166 32.5 233.499v337h215z" glyph-name="omega" unicode="ω"/><glyph d="M364 0h-228v1010h228v-1010zM82 1188c-32 0 -58.5029 10.5 -79.5029 31.5s-31.5 46.167 -31.5 75.5s10.333 55.166 31 77.499s47.334 33.5 80.001 33.5c30.667 0 57.334 -9.83301 80.001 -29.5s34 -46.5 34 -80.5c0 -33.333 -11.167 -59.666 -33.5 -78.999 s-49.166 -29 -80.499 -29zM416.997 1188c-32.667 0 -59.501 10.667 -80.501 32s-31.5 46.333 -31.5 75c0 29.333 10.5 55.166 31.5 77.499s47.833 33.5 80.5 33.5c30 0 56.5 -9.83301 79.5 -29.5s34.5 -46.5 34.5 -80.5c0 -33.333 -11.167 -59.666 -33.5 -78.999 s-49.166 -29 -80.499 -29z" glyph-name="iotadieresis" horiz-adv-x="501" unicode="ϊ"/><glyph d="M355 1010l-0.000976562 -587.002c0 -78 3.83301 -131.667 11.5 -161s25.834 -52.5 54.501 -69.5s69.334 -25.5 122.001 -25.5c49.333 0 88.666 7.83301 117.999 23.5s48.333 37.834 57 66.501s13 84 13 166v587h228v-587c0 -116 -13.833 -204.5 -41.5 -265.5 s-72.667 -106 -135 -135s-139.5 -43.5 -231.5 -43.5c-137.333 0 -242.333 28.833 -315 86.5s-109 176.834 -109 357.501v587h228zM373.999 1188c-32 0 -58.5029 10.5 -79.5029 31.5s-31.5 46.167 -31.5 75.5s10.333 55.166 31 77.499s47.334 33.5 80.001 33.5 c30.667 0 57.334 -9.83301 80.001 -29.5s34 -46.5 34 -80.5c0 -33.333 -11.167 -59.666 -33.5 -78.999s-49.166 -29 -80.499 -29zM708.996 1188c-32.667 0 -59.501 10.667 -80.501 32s-31.5 46.333 -31.5 75c0 29.333 10.5 55.166 31.5 77.499s47.833 33.5 80.5 33.5 c30 0 56.5 -9.83301 79.5 -29.5s34.5 -46.5 34.5 -80.5c0 -33.333 -11.167 -59.666 -33.5 -78.999s-49.166 -29 -80.499 -29z" glyph-name="upsilondieresis" horiz-adv-x="1086" unicode="ϋ"/><glyph d="M532 -21c-149.333 0 -263.333 53.6689 -342 161.002s-118 230.333 -118 369c0 149.333 43.5 273.666 130.5 372.999s201.833 149 344.5 149c135.333 0 246.5 -48.333 333.5 -145s130.5 -222.334 130.5 -377.001c0 -159.333 -45.167 -287.5 -135.5 -384.5 s-204.833 -145.5 -343.5 -145.5zM540 167.002c153.333 0 230 114.333 230 343c0 103.333 -18.333 184.833 -55 244.5s-93 89.5 -169 89.5c-78.667 0 -137 -30.833 -175 -92.5s-57 -143.5 -57 -245.5c0 -110 20.167 -194 60.5 -252s95.5 -87 165.5 -87zM601 1552l154 -109 l-299 -331l-92 67z" glyph-name="omicrontonos" horiz-adv-x="1083" unicode="ό"/><glyph d="M355 1010l-0.000976562 -587.002c0 -78 3.83301 -131.667 11.5 -161s25.834 -52.5 54.501 -69.5s69.334 -25.5 122.001 -25.5c49.333 0 88.666 7.83301 117.999 23.5s48.333 37.834 57 66.501s13 84 13 166v587h228v-587c0 -116 -13.833 -204.5 -41.5 -265.5 s-72.667 -106 -135 -135s-139.5 -43.5 -231.5 -43.5c-137.333 0 -242.333 28.833 -315 86.5s-109 176.834 -109 357.501v587h228zM602.999 1572l154 -109l-299 -331l-92 67z" glyph-name="upsilontonos" horiz-adv-x="1086" unicode="ύ"/><glyph d="M833 785l-0.00195312 -337.002c0 -119.333 10.5 -196.166 31.5 -230.499s50.833 -51.5 89.5 -51.5c52 0 95.167 23.5 129.5 70.5s51.5 124.833 51.5 233.5c0 171.333 -54.667 330 -164 476l163 95c161.333 -162.667 242 -350 242 -562 c0 -172 -38.167 -298.333 -114.5 -379s-168.833 -121 -277.5 -121c-53.333 0 -100.666 11.333 -141.999 34s-80 70.334 -116 143.001c-55.333 -118 -141.333 -177 -258 -177c-110 0 -203 40.833 -279 122.5s-114 203.5 -114 365.5c0 220 80.667 411.333 242 574l164 -95 c-109.333 -146.667 -164 -305.667 -164 -477c0 -107.333 17 -184.666 51 -231.999s77.333 -71 130 -71c36.667 0 65.834 16.167 87.501 48.5s32.5 110.166 32.5 233.499v337h215zM818.998 1552l154 -109l-299 -331l-92 67z" glyph-name="omegatonos" unicode="ώ"/><glyph d="M1037 0h-887v1365h878v-203h-632v-370h508v-198h-508v-382h641v-212zM431 1522c-32 0 -58.5029 10.5 -79.5029 31.5s-31.5 46.167 -31.5 75.5s10.333 55.166 31 77.499s47.334 33.5 80.001 33.5c30.667 0 57.334 -9.83301 80.001 -29.5s34 -46.5 34 -80.5 c0 -33.333 -11.167 -59.666 -33.5 -78.999s-49.166 -29 -80.499 -29zM765.997 1522c-32.667 0 -59.501 10.667 -80.501 32s-31.5 46.333 -31.5 75c0 29.333 10.5 55.166 31.5 77.499s47.833 33.5 80.5 33.5c30 0 56.5 -9.83301 79.5 -29.5s34.5 -46.5 34.5 -80.5 c0 -33.333 -11.167 -59.666 -33.5 -78.999s-49.166 -29 -80.499 -29z" glyph-name="afii10023" horiz-adv-x="1099" unicode="Ё"/><glyph d="M212 0v1165h-224v200h972v-200h-502v-426c77.333 117.333 196 176 356 176c84 0 154.667 -17.167 212 -51.5s98 -88.333 122 -162s36 -205.167 36 -394.5c0 -218.667 -17 -368 -51 -448s-83.167 -135 -147.5 -165s-149.833 -47 -256.5 -51l-13 185 c90 0 149.667 28.5 179 85.5s44 180.167 44 369.5c0 206.667 -16.5 332.667 -49.5 378s-84.833 68 -155.5 68c-184 0 -276 -94.667 -276 -284v-445h-246z" glyph-name="afii10051" horiz-adv-x="1278" unicode="Ђ"/><glyph d="M150 0v1365h741v-211h-495v-1154h-246zM750 1819l66 -150l-417 -176l-42 107z" glyph-name="afii10052" horiz-adv-x="891" unicode="Ѓ"/><glyph d="M840 799l-0.000976562 -187h-500c0 -126 30 -230 90 -312s143.667 -123 251 -123c153.333 0 257.333 83.333 312 250l232 -45c-37.333 -121.333 -102 -218.833 -194 -292.5s-209.667 -110.5 -353 -110.5c-177.333 0 -321.5 63.667 -432.5 191s-166.5 301 -166.5 521 c0 203.333 51.167 370 153.5 500s247.833 195 436.5 195c260.667 0 436.334 -121.667 527.001 -365l-229 -58c-54 150 -153 225 -297 225c-103.333 0 -182.5 -37 -237.5 -111s-85.833 -166.667 -92.5 -278h500z" glyph-name="afii10053" horiz-adv-x="1260" unicode="Є"/><glyph d="M7 329l239.003 51c28.667 -135.333 138.667 -203 330 -203c87.333 0 154.5 17.333 201.5 52s70.5 77.667 70.5 129c0 37.333 -10.667 71.833 -32 103.5s-67 56.5 -137 74.5l-261 68c-89.333 23.333 -155.333 49.833 -198 79.5s-76.834 71.5 -102.501 125.5 s-38.5 111.667 -38.5 173c0 122 45.333 219.833 136 293.5s206.667 110.5 348 110.5c117.333 0 222.166 -25.667 314.499 -77s151.166 -124 176.499 -218l-234 -58c-36 103.333 -120 155 -252 155c-76.667 0 -135.167 -16 -175.5 -48s-60.5 -72.667 -60.5 -122 c0 -78 63.333 -132.667 190 -164l232 -58c140.667 -35.333 235 -87.5 283 -156.5s72 -145.167 72 -228.5c0 -134 -50.5 -239.5 -151.5 -316.5s-231.833 -115.5 -392.5 -115.5c-135.333 0 -253.833 28.333 -355.5 85s-169.167 145 -202.5 265z" glyph-name="afii10054" horiz-adv-x="1170" unicode="Ѕ"/><glyph d="M396 0h-246v1365h246v-1365z" glyph-name="afii10055" horiz-adv-x="546" unicode="І"/><glyph d="M396 0h-246v1365h246v-1365zM103 1522c-32 0 -58.5029 10.5 -79.5029 31.5s-31.5 46.167 -31.5 75.5s10.333 55.166 31 77.499s47.334 33.5 80.001 33.5c30.667 0 57.334 -9.83301 80.001 -29.5s34 -46.5 34 -80.5c0 -33.333 -11.167 -59.666 -33.5 -78.999 s-49.166 -29 -80.499 -29zM437.997 1522c-32.667 0 -59.501 10.667 -80.501 32s-31.5 46.333 -31.5 75c0 29.333 10.5 55.166 31.5 77.499s47.833 33.5 80.5 33.5c30 0 56.5 -9.83301 79.5 -29.5s34.5 -46.5 34.5 -80.5c0 -33.333 -11.167 -59.666 -33.5 -78.999 s-49.166 -29 -80.499 -29z" glyph-name="afii10056" horiz-adv-x="546" unicode="Ї"/><glyph d="M624 1365l-0.00195312 -941.999c0 -156.667 -33.833 -269.834 -101.5 -339.501s-175.5 -104.5 -323.5 -104.5c-85.333 0 -151.666 7 -198.999 21v198c74.667 -5.33301 127.334 -8 158.001 -8c82 0 138 15.333 168 46s45 93 45 187v942h253z" glyph-name="afii10057" horiz-adv-x="761" unicode="Ј"/><glyph d="M853 843h307.001c129.333 0 227.666 -12.5 294.999 -37.5s121.666 -72 162.999 -141s62 -148.167 62 -237.5c0 -123.333 -38.167 -225.333 -114.5 -306s-194.166 -121 -353.499 -121h-399l-277 1136h-14l-339 -1136h-214l433 1365h312zM1021 212h172 c156.667 0 235 71.667 235 215c0 144 -78.333 216 -235 216h-287z" glyph-name="afii10058" horiz-adv-x="1715" unicode="Љ"/><glyph d="M1124 822h251c130 0 228.5 -13.833 295.5 -41.5s119 -74.167 156 -139.5s55.5 -140 55.5 -224c0 -124 -38.833 -224.5 -116.5 -301.5s-190.167 -115.5 -337.5 -115.5h-550v623h-482v-623h-246v1365h246v-543h482v543h246v-543zM1124 212h270c158 0 237 69.667 237 209 c0 134.667 -79 202 -237 202h-270v-411z" glyph-name="afii10059" horiz-adv-x="1919" unicode="Њ"/><glyph d="M458 1165l0.000976562 -417c81.333 112 194 168 338 168c110 0 201.333 -33 274 -99s109 -180.667 109 -344v-473h-245v484c0 94 -18.333 158 -55 192s-87.334 51 -152.001 51c-139.333 0 -229 -57.667 -269 -173v-554h-246v1165h-224v200h977v-200h-507z" glyph-name="afii10060" horiz-adv-x="1297" unicode="Ћ"/><glyph d="M1223 0l-275 -0.000976562l-288 695l-264 -350v-345h-246v1365h246v-717c31.333 48.667 54 82.334 68 101.001l453 616h249l-324 -449zM857 1819l66 -150l-417 -176l-42 107z" glyph-name="afii10061" horiz-adv-x="1257" unicode="Ќ"/><glyph d="M460 398l-485 966.999h266l336 -691l276 691h231l-426 -1027c-54.667 -132 -110.667 -221.333 -168 -268s-140.333 -70 -249 -70h-92v212h92c60.667 0 104 10.833 130 32.5s49 56.834 69 105.501zM253 1767h130.999c12 -88 70.333 -132 175 -132 c101.333 0 158 44 170 132h131c-3.33301 -76.667 -32.666 -141.5 -87.999 -194.5s-128 -79.5 -218 -79.5c-86 0 -157 25 -213 75s-85.333 116.333 -88 199z" glyph-name="afii10062" horiz-adv-x="1051" unicode="Ў"/><glyph d="M396 212h485v1153h246v-1365h-387l-14 -287h-182l-14 287h-380v1365h246v-1153z" glyph-name="afii10145" horiz-adv-x="1277" unicode="Џ"/><glyph d="M1221 0h-263l-109 325h-525l-107 -325h-210l453 1365h303zM783 522l-199 609l-199 -609h398z" glyph-name="afii10017" horiz-adv-x="1235" unicode="А"/><glyph d="M150 0l0.00195312 1365h855v-198h-609v-356h236c119.333 0 213.666 -10.333 282.999 -31s126.166 -64.667 170.499 -132s66.5 -147 66.5 -239c0 -122 -38.333 -220.667 -115 -296s-188.667 -113 -336 -113h-551zM396.002 212l275 -0.000976562c154 0 231 68.667 231 206 c0 56.667 -17 103.834 -51 141.501s-102.333 56.5 -205 56.5h-250v-404z" glyph-name="afii10018" horiz-adv-x="1227" unicode="Б"/><glyph d="M150 0l0.000976562 1365h532c90 0 164.667 -9.33301 224 -28s110.666 -57.667 153.999 -117s65 -129 65 -209c0 -75.333 -22 -140.833 -66 -196.5s-104.667 -91.167 -182 -106.5c96 -16.667 168.667 -55.667 218 -117s74 -134 74 -218 c0 -105.333 -34.5 -193.833 -103.5 -265.5s-175.167 -107.5 -318.5 -107.5h-597zM383.001 792l300.001 -0.00195312c61.333 0 109.833 18.333 145.5 55s53.5 83.334 53.5 140.001c0 62.667 -20.333 108.834 -61 138.501s-88.334 44.5 -143.001 44.5h-295v-378z M383.002 204.998h318c67.333 0 120.5 17.667 159.5 53s58.5 83 58.5 143c0 57.333 -19.833 104.333 -59.5 141s-92.167 55 -157.5 55h-319v-392z" glyph-name="afii10019" horiz-adv-x="1244" unicode="В"/><glyph d="M150 0v1365h741v-211h-495v-1154h-246z" glyph-name="afii10020" horiz-adv-x="891" unicode="Г"/><glyph d="M92 212l360 1153h367l324 -1153h100v-499h-171l-30 287h-849l-30 -287h-171v499h100zM302 212h581l-237 924h-74z" glyph-name="afii10021" horiz-adv-x="1234" unicode="Д"/><glyph d="M1037 0h-887v1365h878v-203h-632v-370h508v-198h-508v-382h641v-212z" glyph-name="afii10022" horiz-adv-x="1099" unicode="Е"/><glyph d="M1213 779l504 -779h-275l-416 641l-79 -24v-617h-234v617l-80 24l-415 -641h-242l472 711l-436 654h270l380 -572l51 -14v586h234v-586l51 14l380 572h242z" glyph-name="afii10024" horiz-adv-x="1652" unicode="Ж"/><glyph d="M21 398l225.999 37.999c33.333 -172.667 137 -259 311 -259c94 0 162.167 21.5 204.5 64.5s63.5 96.5 63.5 160.5c0 142.667 -78.667 214 -236 214h-119v180h108c67.333 0 120.833 17.833 160.5 53.5s59.5 83.834 59.5 144.501c0 60 -22.333 107.333 -67 142 s-103 52 -175 52c-162.667 0 -257 -74.667 -283 -224l-218 33c46.667 259.333 217.334 389 512.001 389c148.667 0 266.5 -34.5 353.5 -103.5s130.5 -155.167 130.5 -258.5c0 -149.333 -82.333 -249 -247 -299c191.333 -40 287 -147 287 -321 c0 -118 -45.333 -218.333 -136 -301s-221 -124 -391 -124c-164 0 -292.5 38.167 -385.5 114.5s-145.833 177.833 -158.5 304.5z" glyph-name="afii10025" horiz-adv-x="1161" unicode="З"/><glyph d="M396 124v-124.001h-246v1365h246v-766c0 -62 -2.33301 -130.667 -7 -206c44 92.667 97.667 183.334 161 272.001l402 562v138h245v-1365h-245v707c0 122.667 2 206 6 250c-48 -96 -102 -186.333 -162 -271z" glyph-name="afii10026" horiz-adv-x="1348" unicode="И"/><glyph d="M396 124v-124.001h-246v1365h246v-766c0 -62 -2.33301 -130.667 -7 -206c44 92.667 97.667 183.334 161 272.001l402 562v138h245v-1365h-245v707c0 122.667 2 206 6 250c-48 -96 -102 -186.333 -162 -271zM380 1767h130.999c12 -88 70.333 -132 175 -132 c101.333 0 158 44 170 132h131c-3.33301 -76.667 -32.666 -141.5 -87.999 -194.5s-128 -79.5 -218 -79.5c-86 0 -157 25 -213 75s-85.333 116.333 -88 199z" glyph-name="afii10027" horiz-adv-x="1348" unicode="Й"/><glyph d="M1223 0l-275 -0.000976562l-288 695l-264 -350v-345h-246v1365h246v-717c31.333 48.667 54 82.334 68 101.001l453 616h249l-324 -449z" glyph-name="afii10028" horiz-adv-x="1257" unicode="К"/><glyph d="M183 0h-214l433 1365h312l431 -1365h-264l-345 1136h-14z" glyph-name="afii10029" horiz-adv-x="1117" unicode="Л"/><glyph d="M1489 0h-251v1195l-378 -1195h-129l-380 1195v-1195h-201v1365h385l286 -879l281 879h387v-1365z" glyph-name="afii10030" horiz-adv-x="1640" unicode="М"/><glyph d="M1163 0h-246v593h-521v-593h-246v1365h246v-561h521v561h246v-1365z" glyph-name="afii10031" horiz-adv-x="1313" unicode="Н"/><glyph d="M653 -21c-181.333 0 -322.5 68.001 -423.5 204.001s-151.5 304 -151.5 504c0 198.667 53.667 364.834 161 498.501s249 200.5 425 200.5c177.333 0 317.5 -66.833 420.5 -200.5s154.5 -300.834 154.5 -501.501c0 -210.667 -53.5 -380.834 -160.5 -510.501 s-248.833 -194.5 -425.5 -194.5zM655 177.001c88.667 0 163.668 36.667 225.001 110s92 206.333 92 399c0 156.667 -25.333 279.5 -76 368.5s-129.334 133.5 -236.001 133.5c-210.667 0 -316 -169.667 -316 -509c0 -164.667 26.833 -289.5 80.5 -374.5 s130.5 -127.5 230.5 -127.5z" glyph-name="afii10032" horiz-adv-x="1318" unicode="О"/><glyph d="M150 0v1365h977v-1365h-246v1165h-485v-1165h-246z" glyph-name="afii10033" horiz-adv-x="1277" unicode="П"/><glyph d="M396 0l-246 -0.000976562v1365h559c159.333 0 277.5 -40.167 354.5 -120.5s115.5 -175.166 115.5 -284.499c0 -124.667 -41.667 -225.667 -125 -303s-189 -116 -317 -116h-341v-541zM396 751.999h291c76 0 134 18.667 174 56s60 87 60 149c0 56 -18.5 104 -55.5 144 s-103.833 60 -200.5 60h-269v-409z" glyph-name="afii10034" horiz-adv-x="1227" unicode="Р"/><glyph d="M913 474l227.999 -25.001c-14.667 -136.667 -67.5 -249.167 -158.5 -337.5s-210.5 -132.5 -358.5 -132.5c-124.667 0 -225.834 31.333 -303.501 94s-137.5 147.667 -179.5 255s-63 225.666 -63 354.999c0 208 49.333 377.167 148 507.5s234.334 195.5 407.001 195.5 c135.333 0 248 -41.667 338 -125s146.667 -202.666 170 -357.999l-228 -24c-42 206 -134.667 309 -278 309c-92 0 -163.5 -42.833 -214.5 -128.5s-76.5 -209.834 -76.5 -372.501c0 -165.333 27.333 -290.166 82 -374.499s127 -126.5 217 -126.5c72 0 133.333 28.333 184 85 s79.334 124.334 86.001 203.001z" glyph-name="afii10035" horiz-adv-x="1186" unicode="С"/><glyph d="M627 0h-264v1154h-363v211h990v-211h-363v-1154z" glyph-name="afii10036" horiz-adv-x="990" unicode="Т"/><glyph d="M460 398l-485 966.999h266l336 -691l276 691h231l-426 -1027c-54.667 -132 -110.667 -221.333 -168 -268s-140.333 -70 -249 -70h-92v212h92c60.667 0 104 10.833 130 32.5s49 56.834 69 105.501z" glyph-name="afii10037" horiz-adv-x="1051" unicode="У"/><glyph d="M653 127c-194.667 18 -337.333 77.333 -428 178s-136 226.667 -136 378c0 154.667 47 281.834 141 381.501s235 157.834 423 174.501v167h214v-167c192 -17.333 334 -76 426 -176s138 -226.667 138 -380c0 -150.667 -45 -276.334 -135 -377.001 s-233 -160.334 -429 -179.001v-168h-214v168zM653.001 1062c-104.667 -17.333 -184 -56.166 -238 -116.499s-81 -151.5 -81 -273.5c0 -210.667 106.333 -333.334 319 -368.001v758zM867.001 304c104.667 17.333 184.167 56.332 238.5 116.999s81.5 151.667 81.5 273 c0 210.667 -106.667 333.334 -320 368.001v-758z" glyph-name="afii10038" horiz-adv-x="1520" unicode="Ф"/><glyph d="M1149 0h-287l-302 538l-320 -538h-229l432 711l-371 654h286l252 -454l267 454h230l-380 -623z" glyph-name="afii10039" horiz-adv-x="1160" unicode="Х"/><glyph d="M164 0v1365h246v-1153h486v1153h245v-1153h172v-499h-170l-30 287h-949z" glyph-name="afii10040" horiz-adv-x="1313" unicode="Ц"/><glyph d="M845 0l-0.00195312 588.002c-93.333 -100 -209.666 -150 -348.999 -150c-80.667 0 -151.334 18.167 -212.001 54.5s-104.667 84.166 -132 143.499s-41 142.666 -41 249.999v479h246v-491c0 -83.333 14.833 -143.833 44.5 -181.5s80.834 -56.5 153.501 -56.5 c112.667 0 209.334 41 290.001 123v606h246v-1365h-246z" glyph-name="afii10041" horiz-adv-x="1241" unicode="Ч"/><glyph d="M164 0v1365h246v-1153h423v1153h246v-1153h423v1153h246v-1365h-1584z" glyph-name="afii10042" horiz-adv-x="1911" unicode="Ш"/><glyph d="M1748 212h177v-499h-170l-30 287h-1561v1365h246v-1153h423v1153h246v-1153h423v1153h246v-1153z" glyph-name="afii10043" horiz-adv-x="1925" unicode="Щ"/><glyph d="M293 1154h-339.999v211h586v-522h229c129.333 0 227.666 -12.5 294.999 -37.5s121.666 -72 162.999 -141s62 -148.167 62 -237.5c0 -123.333 -38.167 -225.333 -114.5 -306s-194.166 -121 -353.499 -121h-527v1154zM539.001 212h262c156.667 0 235 71.667 235 215 c0 144 -78.333 216 -235 216h-262v-431z" glyph-name="afii10044" horiz-adv-x="1323" unicode="Ъ"/><glyph d="M1327 0v1365h246v-1365h-246zM164 0l-0.00195312 1365h246v-522h229c128 0 225.833 -12.167 293.5 -36.5s122.334 -71.166 164.001 -140.499s62.5 -149 62.5 -239c0 -123.333 -38.167 -225.333 -114.5 -306s-194.166 -121 -353.499 -121h-527zM409.998 211.999h262 c156.667 0 235 71.667 235 215c0 144 -78.333 216 -235 216h-262v-431z" glyph-name="afii10045" horiz-adv-x="1736" unicode="Ы"/><glyph d="M150 0l-0.00195312 1365h246v-522h229c128 0 225.833 -12.167 293.5 -36.5s122.334 -71.166 164.001 -140.499s62.5 -149 62.5 -239c0 -123.333 -38.167 -225.333 -114.5 -306s-194.166 -121 -353.499 -121h-527zM395.998 211.999h262c156.667 0 235 71.667 235 215 c0 144 -78.333 216 -235 216h-262v-431z" glyph-name="afii10046" horiz-adv-x="1181" unicode="Ь"/><glyph d="M418 612l0.000976562 186.999h501c-6.66699 110.667 -37.334 203.167 -92.001 277.5s-134 111.5 -238 111.5c-144 0 -243.333 -75 -298 -225l-229 58c91.333 243.333 267.333 365 528 365c189.333 0 335 -65.5 437 -196.5s153 -297.167 153 -498.5 c0 -202.667 -51.833 -372 -155.5 -508s-251.5 -204 -443.5 -204c-144 0 -261.833 36.833 -353.5 110.5s-156.167 171.167 -193.5 292.5l232 45c54.667 -166.667 158.667 -250 312 -250c108 0 191.833 41.333 251.5 124s89.5 186.334 89.5 311.001h-501z" glyph-name="afii10047" horiz-adv-x="1259" unicode="Э"/><glyph d="M636 615l-239.998 -0.000976562v-615h-246v1365h246v-550h240c24.667 171.333 88.667 309.333 192 414s232.666 157 387.999 157c173.333 0 315.5 -63 426.5 -189s166.5 -294.667 166.5 -506c0 -197.333 -52.5 -365.333 -157.5 -504s-247.833 -208 -428.5 -208 c-181.333 0 -323.333 62.833 -426 188.5s-156.334 274.834 -161.001 447.501zM1217 1188c-102 0 -181.835 -46.833 -239.502 -140.5s-86.5 -217.167 -86.5 -370.5c0 -162 31.333 -285.833 94 -371.5s139.334 -128.5 230.001 -128.5c100.667 0 180.334 48 239.001 144 s88 220.333 88 373c0 163.333 -30.667 286.5 -92 369.5s-139 124.5 -233 124.5z" glyph-name="afii10048" horiz-adv-x="1887" unicode="Ю"/><glyph d="M894 567l-344 0.000976562l-250 -567h-247l288 612c-166.667 63.333 -250 179.666 -250 348.999c0 126 41.167 224.833 123.5 296.5s191.833 107.5 328.5 107.5h597v-1365h-246v567zM894 1166h-311.001c-77.333 0 -136.166 -17.5 -176.499 -52.5 s-60.5 -82.167 -60.5 -141.5c0 -58.667 20.667 -108.667 62 -150s106 -62 194 -62h292v406z" glyph-name="afii10049" horiz-adv-x="1291" unicode="Я"/><glyph d="M1001 0h-216.999c-19.333 61.333 -31 129.333 -35 204c-60.667 -150 -174.667 -225 -342 -225c-100.667 0 -181.5 29.5 -242.5 88.5s-91.5 133.167 -91.5 222.5c0 232 203.667 348 611 348c16 0 37.667 -0.333008 65 -1v76c0 104.667 -71.333 157 -214 157 c-138.667 0 -217.334 -52.333 -236.001 -157l-194 29c10.667 84 54 153.167 130 207.5s186 81.5 330 81.5c78 0 141.667 -6.5 191 -19.5s91 -35 125 -66s57.5 -64.667 70.5 -101s19.5 -97.833 19.5 -184.5v-456c0 -66 10 -134 30 -204zM749.001 514 c-294.667 0 -442 -70.333 -442 -211c0 -42 14.833 -77.833 44.5 -107.5s74.5 -44.5 134.5 -44.5c86.667 0 152.167 27.5 196.5 82.5s66.5 117.5 66.5 187.5v93z" glyph-name="afii10065" horiz-adv-x="1107" unicode="а"/><glyph d="M687 1456l234.002 -0.00390625c-4.66699 -67.333 -27.5 -118.166 -68.5 -152.499s-112.5 -62.166 -214.5 -83.499c-82.667 -17.333 -141.667 -34.666 -177 -51.999s-65 -46.5 -89 -87.5s-41 -94.5 -51 -160.5c58.667 50 105.5 81 140.5 93s76.5 18 124.5 18 c128 0 234.167 -44.333 318.5 -133s126.5 -216.667 126.5 -384c0 -168.667 -42.5 -300 -127.5 -394s-200.167 -141 -345.5 -141c-144.667 0 -259.5 45.5 -344.5 136.5s-127.5 237.167 -127.5 438.5c0 120.667 10.5 231.667 31.5 333s55.667 186.833 104 256.5 s95.833 117.834 142.5 144.501s108.667 48.667 186 66c53.333 11.333 88.666 23.333 105.999 36s27.666 34.667 30.999 66zM556.002 854.996c-159.333 0 -239 -115.333 -239 -346c0 -228 79.667 -342 239 -342c155.333 0 233 114 233 342c0 230.667 -77.667 346 -233 346z" glyph-name="afii10066" horiz-adv-x="1111" unicode="б"/><glyph d="M137 0v1010h525c121.333 0 204.666 -25.667 249.999 -77s68 -109.333 68 -174c0 -112 -65 -187.333 -195 -226c154.667 -38 232 -122.333 232 -253c0 -82.667 -26.667 -150 -80 -202s-128.666 -78 -225.999 -78h-574zM365 595h261c88.667 0 133 42.667 133 128 c0 80.667 -44.333 121 -133 121h-261v-249zM365 177h261c57.333 0 98 11.5 122 34.5s36 58.5 36 106.5c0 94.667 -52.667 142 -158 142h-261v-283z" glyph-name="afii10067" horiz-adv-x="1088" unicode="в"/><glyph d="M136 0v1010h626v-177h-398v-833h-228z" glyph-name="afii10068" horiz-adv-x="762" unicode="г"/><glyph d="M84 177l237 833h370l210 -833h92v-409h-148l-27 232h-651l-27 -232h-148v409h92zM267 177h406l-151 656h-82z" glyph-name="afii10069" horiz-adv-x="985" unicode="д"/><glyph d="M779 322l206 -28c-26.667 -91.333 -78.667 -166.666 -156 -225.999s-174.333 -89 -291 -89c-140 0 -252.667 47 -338 141s-128 221.333 -128 382c0 152.667 43 279 129 379s202.667 150 350 150c144 0 255.333 -49.333 334 -148s118 -225.334 118 -380.001l-1 -26h-693 c0 -68.667 6.5 -123.667 19.5 -165s38.833 -77.333 77.5 -108s87 -46 145 -46c112.667 0 188.667 54.667 228 164zM765 624c-0.666992 72.667 -22.5 132 -65.5 178s-96.167 69 -159.5 69c-62.667 0 -115 -21.5 -157 -64.5s-66.667 -103.833 -74 -182.5h456z" glyph-name="afii10070" horiz-adv-x="1074" unicode="е"/><glyph d="M1005 604l368 -604h-248l-282 455l-67 -19v-436h-219v436l-68 19l-291 -455h-223l360 535l-324 475h238l272 -396l36 -10v406h219v-406l36 10l272 396h226z" glyph-name="afii10072" horiz-adv-x="1328" unicode="ж"/><glyph d="M355 442l0.00292969 157c109.333 0 178 13.5 206 40.5s42 58.5 42 94.5c0 38 -13.333 69 -40 93s-64.334 36 -113.001 36c-104.667 0 -167 -50 -187 -150l-208 37c44.667 187.333 182 281 412 281c124 0 218 -26 282 -78s96 -117.667 96 -197 c0 -101.333 -62.333 -174.333 -187 -219c144.667 -38.667 217 -119.667 217 -243c0 -90 -34.833 -165 -104.5 -225s-169.834 -90 -300.501 -90c-240 0 -386.333 103 -439 309l210 37c27.333 -120 97 -180 209 -180c57.333 0 102.166 14.167 134.499 42.5 s48.5 66.5 48.5 114.5c0 36 -11 65.833 -33 89.5s-50.167 38 -84.5 43s-87.833 7.5 -160.5 7.5z" glyph-name="afii10073" horiz-adv-x="947" unicode="з"/><glyph d="M365 102v-102.001h-228v1010h228v-439c0 -66 -1.66699 -136.333 -5 -211c33.333 54 81.333 120 144 198l259 322v130h228v-1010h-228v415c0 82.667 2.33301 155.334 7 218.001c-32 -52 -76 -113.333 -132 -184z" glyph-name="afii10074" horiz-adv-x="1128" unicode="и"/><glyph d="M365 102v-102.001h-228v1010h228v-439c0 -66 -1.66699 -136.333 -5 -211c33.333 54 81.333 120 144 198l259 322v130h228v-1010h-228v415c0 82.667 2.33301 155.334 7 218.001c-32 -52 -76 -113.333 -132 -184zM261 1455h130.999c12 -88 70.333 -132 175 -132 c101.333 0 158 44 170 132h131c-3.33301 -76.667 -32.666 -141.5 -87.999 -194.5s-128 -79.5 -218 -79.5c-86 0 -157 25 -213 75s-85.333 116.333 -88 199z" glyph-name="afii10075" horiz-adv-x="1128" unicode="й"/><glyph d="M703 660l352 -659.999h-245l-265 488l-180 -190v-298h-228v1010h228v-300c0 -64.667 -2.33301 -122.334 -7 -173.001c33.333 44 65 81.667 95 113l339 360h224z" glyph-name="afii10076" horiz-adv-x="1028" unicode="к"/><glyph d="M-10 0l323 1010h269l314 -1010h-238l-228 833l-255 -833h-185z" glyph-name="afii10077" horiz-adv-x="887" unicode="л"/><glyph d="M136 0v1010h344l259 -833l273 833h322v-1010h-211v833h-14l-273 -833h-233l-269 833h-14v-833h-184z" glyph-name="afii10078" horiz-adv-x="1471" unicode="м"/><glyph d="M136 0v1010h228v-389h395v389h228v-1010h-228v444h-395v-444h-228z" glyph-name="afii10079" horiz-adv-x="1124" unicode="н"/><glyph d="M532 -21c-149.333 0 -263.333 53.6689 -342 161.002s-118 230.333 -118 369c0 149.333 43.5 273.666 130.5 372.999s201.833 149 344.5 149c135.333 0 246.5 -48.333 333.5 -145s130.5 -222.334 130.5 -377.001c0 -159.333 -45.167 -287.5 -135.5 -384.5 s-204.833 -145.5 -343.5 -145.5zM540 167.002c153.333 0 230 114.333 230 343c0 103.333 -18.333 184.833 -55 244.5s-93 89.5 -169 89.5c-78.667 0 -137 -30.833 -175 -92.5s-57 -143.5 -57 -245.5c0 -110 20.167 -194 60.5 -252s95.5 -87 165.5 -87z" glyph-name="afii10080" horiz-adv-x="1083" unicode="о"/><glyph d="M136 0v1010h807v-1010h-228v845h-351v-845h-228z" glyph-name="afii10081" horiz-adv-x="1080" unicode="п"/><glyph d="M369 -341l-232 -0.000976562v1351h218v-176c70 131.333 173 197 309 197c112 0 201.333 -48.667 268 -146s100 -221.666 100 -372.999c0 -143.333 -31.833 -268 -95.5 -374s-158.5 -159 -284.5 -159c-130 0 -224.333 54 -283 162v-482zM369 413.999 c0 -73.333 21.832 -134.167 65.499 -182.5s92.167 -72.5 145.5 -72.5c72.667 0 125.834 31.833 159.501 95.5s50.5 144.5 50.5 242.5c0 102.667 -17 186.167 -51 250.5s-84.667 96.5 -152 96.5c-60.667 0 -112.167 -26.333 -154.5 -79s-63.5 -121.667 -63.5 -207v-144z" glyph-name="afii10082" horiz-adv-x="1103" unicode="р"/><glyph d="M720 371l196.002 -19.999c-25.333 -126.667 -74.333 -220.334 -147 -281.001s-160.334 -91 -263.001 -91c-139.333 0 -246.5 50.833 -321.5 152.5s-112.5 226.167 -112.5 373.5c0 152 41 277.667 123 377s191.333 149 328 149c220 0 351 -116 393 -348l-196 -27 c-17.333 125.333 -79 188 -185 188c-77.333 0 -133.5 -33.833 -168.5 -101.5s-52.5 -149.5 -52.5 -245.5c0 -102 18.167 -180.667 54.5 -236s87.166 -83 152.499 -83c100 0 166.333 64.333 199 193z" glyph-name="afii10083" horiz-adv-x="954" unicode="с"/><glyph d="M270 0v833h-280v177h784v-177h-276v-833h-228z" glyph-name="afii10084" horiz-adv-x="763" unicode="т"/><glyph d="M891 1010l-393 -1150c-24 -70.667 -56.833 -125.5 -98.5 -164.5s-100.5 -58.5 -176.5 -58.5c-30 0 -73.667 2.33301 -131 7v181l109 -2c48 0 83.5 7.83301 106.5 23.5s41.167 43.5 54.5 83.5s20 63.333 20 70c0 4 -7 24.667 -21 62l-347 948h239l245 -666l211 666h182z" glyph-name="afii10085" horiz-adv-x="905" unicode="у"/><glyph d="M579 -341l0.00292969 341c-164.667 13.333 -289.834 65.666 -375.501 156.999s-128.5 205.333 -128.5 342c0 153.333 47.667 273.166 143 359.499s215.666 136.833 360.999 151.5v340h195v-340c145.333 -14.667 265.666 -65.167 360.999 -151.5 s143 -206.166 143 -359.499c0 -136.667 -43 -250.667 -129 -342s-211 -143.666 -375 -156.999v-341h-195zM579.003 866c-180.667 -33.333 -271 -152.668 -271 -358.001s90.333 -324.666 271 -357.999v716zM772.003 149.998c181.333 33.333 272 152.668 272 358.001 s-90.667 324.666 -272 357.999v-716z" glyph-name="afii10086" horiz-adv-x="1353" unicode="ф"/><glyph d="M904 0h-260l-214 368l-234 -368h-196l336 520l-291 490h261l166 -297l189 297h191l-285 -438z" glyph-name="afii10087" horiz-adv-x="904" unicode="х"/><glyph d="M137 0v1010h228v-833h365v833h228v-833h150v-409h-150l-27 232h-794z" glyph-name="afii10088" horiz-adv-x="1108" unicode="ц"/><glyph d="M666 0v397c-74.667 -58.667 -162 -88 -262 -88c-94.667 0 -168.667 25 -222 75s-80 121 -80 213v413h228v-381c0 -88.667 50.333 -133 151 -133c70 0 131.667 13.667 185 41v473h228v-1010h-228z" glyph-name="afii10089" horiz-adv-x="1031" unicode="ч"/><glyph d="M147 0v1010h228v-833h325v833h228v-833h325v833h228v-1010h-1334z" glyph-name="afii10090" horiz-adv-x="1627" unicode="ш"/><glyph d="M150 0v1010h228v-833h325v833h228v-833h325v833h228v-833h164v-409h-150l-28 232h-1320z" glyph-name="afii10091" horiz-adv-x="1648" unicode="щ"/></font>
</defs>
</svg>
